solid OpenSCAD_Model
  facet normal 0.951056 0.309019 0
    outer loop
      vertex -126 59.5833 -4.5
      vertex -126.573 61.3467 -6
      vertex -126.573 61.3467 -4.5
    endloop
  endfacet
  facet normal 0.951056 0.309019 0
    outer loop
      vertex -126.573 61.3467 -6
      vertex -126 59.5833 -4.5
      vertex -126 59.5833 -6
    endloop
  endfacet
  facet normal -0.951056 0.309019 0
    outer loop
      vertex -132 59.5833 -6
      vertex -131.427 61.3467 -4.5
      vertex -131.427 61.3467 -6
    endloop
  endfacet
  facet normal -0.951056 0.309019 0
    outer loop
      vertex -131.427 61.3467 -4.5
      vertex -132 59.5833 -6
      vertex -132 59.5833 -4.5
    endloop
  endfacet
  facet normal 0 0 -1
    outer loop
      vertex -134.214 -82.6183 -8
      vertex -108 -58.5 -8
      vertex -132.536 -82.0734 -8
    endloop
  endfacet
  facet normal 0 0 -1
    outer loop
      vertex -108 -58.5 -8
      vertex -132.536 69.0734 -8
      vertex -131.5 70.5 -8
    endloop
  endfacet
  facet normal 0 0 -1
    outer loop
      vertex -134.214 69.6183 -8
      vertex -108 -58.5 -8
      vertex -134.214 -82.6183 -8
    endloop
  endfacet
  facet normal 0 0 -1
    outer loop
      vertex -108 -58.5 -8
      vertex -134.214 69.6183 -8
      vertex -132.536 69.0734 -8
    endloop
  endfacet
  facet normal 0 0 -1
    outer loop
      vertex 4 -89.5 -8
      vertex -108 -58.5 -8
      vertex 4 -58.5 -8
    endloop
  endfacet
  facet normal 0 0 -1
    outer loop
      vertex -132.536 -82.0734 -8
      vertex -108 -58.5 -8
      vertex -131.5 -83.5 -8
    endloop
  endfacet
  facet normal 0 0 -1
    outer loop
      vertex 4 -89.5 -8
      vertex -131.5 -83.5 -8
      vertex -108 -58.5 -8
    endloop
  endfacet
  facet normal 0 0 -1
    outer loop
      vertex 4 -89.5 -8
      vertex -132.536 -84.9266 -8
      vertex -131.5 -83.5 -8
    endloop
  endfacet
  facet normal 0 0 -1
    outer loop
      vertex -139 -89.5 -8
      vertex -134.214 -82.6183 -8
      vertex -134.214 -84.3817 -8
    endloop
  endfacet
  facet normal -0 0 -1
    outer loop
      vertex -134.214 -82.6183 -8
      vertex -139 -89.5 -8
      vertex -134.214 69.6183 -8
    endloop
  endfacet
  facet normal 0 0 -1
    outer loop
      vertex -139 76.5 -8
      vertex -134.214 69.6183 -8
      vertex -139 -89.5 -8
    endloop
  endfacet
  facet normal -0 0 -1
    outer loop
      vertex -132.536 -84.9266 -8
      vertex -139 -89.5 -8
      vertex -134.214 -84.3817 -8
    endloop
  endfacet
  facet normal 0 0 -1
    outer loop
      vertex -139 -89.5 -8
      vertex -132.536 -84.9266 -8
      vertex 4 -89.5 -8
    endloop
  endfacet
  facet normal 0 0 -1
    outer loop
      vertex -108 58.5 -8
      vertex 4 76.5 -8
      vertex 4 58.5 -8
    endloop
  endfacet
  facet normal 0 0 -1
    outer loop
      vertex -108 -58.5 -8
      vertex -131.5 70.5 -8
      vertex -108 58.5 -8
    endloop
  endfacet
  facet normal 0 0 -1
    outer loop
      vertex -132.536 71.9266 -8
      vertex -108 58.5 -8
      vertex -131.5 70.5 -8
    endloop
  endfacet
  facet normal 0 0 -1
    outer loop
      vertex -108 58.5 -8
      vertex -132.536 71.9266 -8
      vertex 4 76.5 -8
    endloop
  endfacet
  facet normal 0 0 -1
    outer loop
      vertex -132.536 71.9266 -8
      vertex -139 76.5 -8
      vertex 4 76.5 -8
    endloop
  endfacet
  facet normal 0 0 -1
    outer loop
      vertex -134.214 71.3817 -8
      vertex -139 76.5 -8
      vertex -132.536 71.9266 -8
    endloop
  endfacet
  facet normal 0 0 -1
    outer loop
      vertex -134.214 69.6183 -8
      vertex -139 76.5 -8
      vertex -134.214 71.3817 -8
    endloop
  endfacet
  facet normal 0 1 -0
    outer loop
      vertex -128.073 62.4365 -6
      vertex -129.927 62.4365 -4.5
      vertex -128.073 62.4365 -4.5
    endloop
  endfacet
  facet normal 0 1 0
    outer loop
      vertex -129.927 62.4365 -4.5
      vertex -128.073 62.4365 -6
      vertex -129.927 62.4365 -6
    endloop
  endfacet
  facet normal 0.587785 0.809017 -0
    outer loop
      vertex -126.573 61.3467 -6
      vertex -128.073 62.4365 -4.5
      vertex -126.573 61.3467 -4.5
    endloop
  endfacet
  facet normal 0.587785 0.809017 0
    outer loop
      vertex -128.073 62.4365 -4.5
      vertex -126.573 61.3467 -6
      vertex -128.073 62.4365 -6
    endloop
  endfacet
  facet normal 0 0 1
    outer loop
      vertex -126.573 61.3467 -4.5
      vertex -126.573 57.82 -4.5
      vertex -126 59.5833 -4.5
    endloop
  endfacet
  facet normal 0 0 1
    outer loop
      vertex -128.073 62.4365 -4.5
      vertex -126.573 57.82 -4.5
      vertex -126.573 61.3467 -4.5
    endloop
  endfacet
  facet normal 0 0 1
    outer loop
      vertex -128.073 62.4365 -4.5
      vertex -128.073 56.7302 -4.5
      vertex -126.573 57.82 -4.5
    endloop
  endfacet
  facet normal -0 0 1
    outer loop
      vertex -129.927 62.4365 -4.5
      vertex -128.073 56.7302 -4.5
      vertex -128.073 62.4365 -4.5
    endloop
  endfacet
  facet normal 0 0 1
    outer loop
      vertex -129.927 62.4365 -4.5
      vertex -129.927 56.7302 -4.5
      vertex -128.073 56.7302 -4.5
    endloop
  endfacet
  facet normal -0 0 1
    outer loop
      vertex -131.427 61.3467 -4.5
      vertex -129.927 56.7302 -4.5
      vertex -129.927 62.4365 -4.5
    endloop
  endfacet
  facet normal 0 0 1
    outer loop
      vertex -131.427 61.3467 -4.5
      vertex -131.427 57.82 -4.5
      vertex -129.927 56.7302 -4.5
    endloop
  endfacet
  facet normal 0 -0 1
    outer loop
      vertex -131.427 57.82 -4.5
      vertex -131.427 61.3467 -4.5
      vertex -132 59.5833 -4.5
    endloop
  endfacet
  facet normal -0.587785 0.809017 0
    outer loop
      vertex -129.927 62.4365 -6
      vertex -131.427 61.3467 -4.5
      vertex -129.927 62.4365 -4.5
    endloop
  endfacet
  facet normal -0.587785 0.809017 0
    outer loop
      vertex -131.427 61.3467 -4.5
      vertex -129.927 62.4365 -6
      vertex -131.427 61.3467 -6
    endloop
  endfacet
  facet normal 0 -1 0
    outer loop
      vertex -129.927 56.7302 -6
      vertex -128.073 56.7302 -4.5
      vertex -129.927 56.7302 -4.5
    endloop
  endfacet
  facet normal 0 -1 -0
    outer loop
      vertex -128.073 56.7302 -4.5
      vertex -129.927 56.7302 -6
      vertex -128.073 56.7302 -6
    endloop
  endfacet
  facet normal 0.951056 -0.309019 0
    outer loop
      vertex -126.573 57.82 -4.5
      vertex -126 59.5833 -6
      vertex -126 59.5833 -4.5
    endloop
  endfacet
  facet normal 0.951056 -0.309019 0
    outer loop
      vertex -126 59.5833 -6
      vertex -126.573 57.82 -4.5
      vertex -126.573 57.82 -6
    endloop
  endfacet
  facet normal 0.587785 -0.809017 0
    outer loop
      vertex -128.073 56.7302 -6
      vertex -126.573 57.82 -4.5
      vertex -128.073 56.7302 -4.5
    endloop
  endfacet
  facet normal 0.587785 -0.809017 0
    outer loop
      vertex -126.573 57.82 -4.5
      vertex -128.073 56.7302 -6
      vertex -126.573 57.82 -6
    endloop
  endfacet
  facet normal -0.587785 -0.809017 0
    outer loop
      vertex -131.427 57.82 -6
      vertex -129.927 56.7302 -4.5
      vertex -131.427 57.82 -4.5
    endloop
  endfacet
  facet normal -0.587785 -0.809017 -0
    outer loop
      vertex -129.927 56.7302 -4.5
      vertex -131.427 57.82 -6
      vertex -129.927 56.7302 -6
    endloop
  endfacet
  facet normal -0.951056 -0.309019 0
    outer loop
      vertex -131.427 57.82 -6
      vertex -132 59.5833 -4.5
      vertex -132 59.5833 -6
    endloop
  endfacet
  facet normal -0.951056 -0.309019 0
    outer loop
      vertex -132 59.5833 -4.5
      vertex -131.427 57.82 -6
      vertex -131.427 57.82 -4.5
    endloop
  endfacet
  facet normal 0.951056 0.309019 0
    outer loop
      vertex -126 35.75 -4.5
      vertex -126.573 37.5134 -6
      vertex -126.573 37.5134 -4.5
    endloop
  endfacet
  facet normal 0.951056 0.309019 0
    outer loop
      vertex -126.573 37.5134 -6
      vertex -126 35.75 -4.5
      vertex -126 35.75 -6
    endloop
  endfacet
  facet normal -0.951056 0.309019 0
    outer loop
      vertex -132 35.75 -6
      vertex -131.427 37.5134 -4.5
      vertex -131.427 37.5134 -6
    endloop
  endfacet
  facet normal -0.951056 0.309019 0
    outer loop
      vertex -131.427 37.5134 -4.5
      vertex -132 35.75 -6
      vertex -132 35.75 -4.5
    endloop
  endfacet
  facet normal 0 -1 0
    outer loop
      vertex -129.927 32.8968 -6
      vertex -128.073 32.8968 -4.5
      vertex -129.927 32.8968 -4.5
    endloop
  endfacet
  facet normal 0 -1 -0
    outer loop
      vertex -128.073 32.8968 -4.5
      vertex -129.927 32.8968 -6
      vertex -128.073 32.8968 -6
    endloop
  endfacet
  facet normal 0 1 -0
    outer loop
      vertex -128.073 38.6032 -6
      vertex -129.927 38.6032 -4.5
      vertex -128.073 38.6032 -4.5
    endloop
  endfacet
  facet normal 0 1 0
    outer loop
      vertex -129.927 38.6032 -4.5
      vertex -128.073 38.6032 -6
      vertex -129.927 38.6032 -6
    endloop
  endfacet
  facet normal 0.587785 0.809017 -0
    outer loop
      vertex -126.573 37.5134 -6
      vertex -128.073 38.6032 -4.5
      vertex -126.573 37.5134 -4.5
    endloop
  endfacet
  facet normal 0.587785 0.809017 0
    outer loop
      vertex -128.073 38.6032 -4.5
      vertex -126.573 37.5134 -6
      vertex -128.073 38.6032 -6
    endloop
  endfacet
  facet normal 0 0 1
    outer loop
      vertex -126.573 37.5134 -4.5
      vertex -126.573 33.9866 -4.5
      vertex -126 35.75 -4.5
    endloop
  endfacet
  facet normal 0 0 1
    outer loop
      vertex -128.073 38.6032 -4.5
      vertex -126.573 33.9866 -4.5
      vertex -126.573 37.5134 -4.5
    endloop
  endfacet
  facet normal 0 0 1
    outer loop
      vertex -128.073 38.6032 -4.5
      vertex -128.073 32.8968 -4.5
      vertex -126.573 33.9866 -4.5
    endloop
  endfacet
  facet normal -0 0 1
    outer loop
      vertex -129.927 38.6032 -4.5
      vertex -128.073 32.8968 -4.5
      vertex -128.073 38.6032 -4.5
    endloop
  endfacet
  facet normal 0 0 1
    outer loop
      vertex -129.927 38.6032 -4.5
      vertex -129.927 32.8968 -4.5
      vertex -128.073 32.8968 -4.5
    endloop
  endfacet
  facet normal -0 0 1
    outer loop
      vertex -131.427 37.5134 -4.5
      vertex -129.927 32.8968 -4.5
      vertex -129.927 38.6032 -4.5
    endloop
  endfacet
  facet normal 0 0 1
    outer loop
      vertex -131.427 37.5134 -4.5
      vertex -131.427 33.9866 -4.5
      vertex -129.927 32.8968 -4.5
    endloop
  endfacet
  facet normal 0 -0 1
    outer loop
      vertex -131.427 33.9866 -4.5
      vertex -131.427 37.5134 -4.5
      vertex -132 35.75 -4.5
    endloop
  endfacet
  facet normal -0.587785 0.809017 0
    outer loop
      vertex -129.927 38.6032 -6
      vertex -131.427 37.5134 -4.5
      vertex -129.927 38.6032 -4.5
    endloop
  endfacet
  facet normal -0.587785 0.809017 0
    outer loop
      vertex -131.427 37.5134 -4.5
      vertex -129.927 38.6032 -6
      vertex -131.427 37.5134 -6
    endloop
  endfacet
  facet normal 0.951056 -0.309019 0
    outer loop
      vertex -126.573 33.9866 -4.5
      vertex -126 35.75 -6
      vertex -126 35.75 -4.5
    endloop
  endfacet
  facet normal 0.951056 -0.309019 0
    outer loop
      vertex -126 35.75 -6
      vertex -126.573 33.9866 -4.5
      vertex -126.573 33.9866 -6
    endloop
  endfacet
  facet normal 0.587786 -0.809016 0
    outer loop
      vertex -128.073 32.8968 -6
      vertex -126.573 33.9866 -4.5
      vertex -128.073 32.8968 -4.5
    endloop
  endfacet
  facet normal 0.587786 -0.809016 0
    outer loop
      vertex -126.573 33.9866 -4.5
      vertex -128.073 32.8968 -6
      vertex -126.573 33.9866 -6
    endloop
  endfacet
  facet normal -0.587786 -0.809016 0
    outer loop
      vertex -131.427 33.9866 -6
      vertex -129.927 32.8968 -4.5
      vertex -131.427 33.9866 -4.5
    endloop
  endfacet
  facet normal -0.587786 -0.809016 -0
    outer loop
      vertex -129.927 32.8968 -4.5
      vertex -131.427 33.9866 -6
      vertex -129.927 32.8968 -6
    endloop
  endfacet
  facet normal -0.951056 -0.309019 0
    outer loop
      vertex -131.427 33.9866 -6
      vertex -132 35.75 -4.5
      vertex -132 35.75 -6
    endloop
  endfacet
  facet normal -0.951056 -0.309019 0
    outer loop
      vertex -132 35.75 -4.5
      vertex -131.427 33.9866 -6
      vertex -131.427 33.9866 -4.5
    endloop
  endfacet
  facet normal 0.951056 0.309019 0
    outer loop
      vertex -126 11.9167 -4.5
      vertex -126.573 13.68 -6
      vertex -126.573 13.68 -4.5
    endloop
  endfacet
  facet normal 0.951056 0.309019 0
    outer loop
      vertex -126.573 13.68 -6
      vertex -126 11.9167 -4.5
      vertex -126 11.9167 -6
    endloop
  endfacet
  facet normal -0.951056 0.309019 0
    outer loop
      vertex -132 11.9167 -6
      vertex -131.427 13.68 -4.5
      vertex -131.427 13.68 -6
    endloop
  endfacet
  facet normal -0.951056 0.309019 0
    outer loop
      vertex -131.427 13.68 -4.5
      vertex -132 11.9167 -6
      vertex -132 11.9167 -4.5
    endloop
  endfacet
  facet normal 0 -1 0
    outer loop
      vertex -129.927 9.0635 -6
      vertex -128.073 9.0635 -4.5
      vertex -129.927 9.0635 -4.5
    endloop
  endfacet
  facet normal 0 -1 -0
    outer loop
      vertex -128.073 9.0635 -4.5
      vertex -129.927 9.0635 -6
      vertex -128.073 9.0635 -6
    endloop
  endfacet
  facet normal 0 1 -0
    outer loop
      vertex -128.073 14.7698 -6
      vertex -129.927 14.7698 -4.5
      vertex -128.073 14.7698 -4.5
    endloop
  endfacet
  facet normal 0 1 0
    outer loop
      vertex -129.927 14.7698 -4.5
      vertex -128.073 14.7698 -6
      vertex -129.927 14.7698 -6
    endloop
  endfacet
  facet normal 0.587785 0.809017 -0
    outer loop
      vertex -126.573 13.68 -6
      vertex -128.073 14.7698 -4.5
      vertex -126.573 13.68 -4.5
    endloop
  endfacet
  facet normal 0.587785 0.809017 0
    outer loop
      vertex -128.073 14.7698 -4.5
      vertex -126.573 13.68 -6
      vertex -128.073 14.7698 -6
    endloop
  endfacet
  facet normal 0 0 1
    outer loop
      vertex -126.573 13.68 -4.5
      vertex -126.573 10.1533 -4.5
      vertex -126 11.9167 -4.5
    endloop
  endfacet
  facet normal 0 0 1
    outer loop
      vertex -128.073 14.7698 -4.5
      vertex -126.573 10.1533 -4.5
      vertex -126.573 13.68 -4.5
    endloop
  endfacet
  facet normal 0 0 1
    outer loop
      vertex -128.073 14.7698 -4.5
      vertex -128.073 9.0635 -4.5
      vertex -126.573 10.1533 -4.5
    endloop
  endfacet
  facet normal -0 0 1
    outer loop
      vertex -129.927 14.7698 -4.5
      vertex -128.073 9.0635 -4.5
      vertex -128.073 14.7698 -4.5
    endloop
  endfacet
  facet normal 0 0 1
    outer loop
      vertex -129.927 14.7698 -4.5
      vertex -129.927 9.0635 -4.5
      vertex -128.073 9.0635 -4.5
    endloop
  endfacet
  facet normal -0 0 1
    outer loop
      vertex -131.427 13.68 -4.5
      vertex -129.927 9.0635 -4.5
      vertex -129.927 14.7698 -4.5
    endloop
  endfacet
  facet normal 0 0 1
    outer loop
      vertex -131.427 13.68 -4.5
      vertex -131.427 10.1533 -4.5
      vertex -129.927 9.0635 -4.5
    endloop
  endfacet
  facet normal 0 -0 1
    outer loop
      vertex -131.427 10.1533 -4.5
      vertex -131.427 13.68 -4.5
      vertex -132 11.9167 -4.5
    endloop
  endfacet
  facet normal -0.587785 0.809017 0
    outer loop
      vertex -129.927 14.7698 -6
      vertex -131.427 13.68 -4.5
      vertex -129.927 14.7698 -4.5
    endloop
  endfacet
  facet normal -0.587785 0.809017 0
    outer loop
      vertex -131.427 13.68 -4.5
      vertex -129.927 14.7698 -6
      vertex -131.427 13.68 -6
    endloop
  endfacet
  facet normal 0.587785 -0.809017 0
    outer loop
      vertex -128.073 9.0635 -6
      vertex -126.573 10.1533 -4.5
      vertex -128.073 9.0635 -4.5
    endloop
  endfacet
  facet normal 0.587785 -0.809017 0
    outer loop
      vertex -126.573 10.1533 -4.5
      vertex -128.073 9.0635 -6
      vertex -126.573 10.1533 -6
    endloop
  endfacet
  facet normal 0.951056 -0.309019 0
    outer loop
      vertex -126.573 10.1533 -4.5
      vertex -126 11.9167 -6
      vertex -126 11.9167 -4.5
    endloop
  endfacet
  facet normal 0.951056 -0.309019 0
    outer loop
      vertex -126 11.9167 -6
      vertex -126.573 10.1533 -4.5
      vertex -126.573 10.1533 -6
    endloop
  endfacet
  facet normal -0.951056 -0.309019 0
    outer loop
      vertex -131.427 10.1533 -6
      vertex -132 11.9167 -4.5
      vertex -132 11.9167 -6
    endloop
  endfacet
  facet normal -0.951056 -0.309019 0
    outer loop
      vertex -132 11.9167 -4.5
      vertex -131.427 10.1533 -6
      vertex -131.427 10.1533 -4.5
    endloop
  endfacet
  facet normal -0.587785 -0.809017 0
    outer loop
      vertex -131.427 10.1533 -6
      vertex -129.927 9.0635 -4.5
      vertex -131.427 10.1533 -4.5
    endloop
  endfacet
  facet normal -0.587785 -0.809017 -0
    outer loop
      vertex -129.927 9.0635 -4.5
      vertex -131.427 10.1533 -6
      vertex -129.927 9.0635 -6
    endloop
  endfacet
  facet normal 0.951056 0.309019 0
    outer loop
      vertex -126 -11.9167 -4.5
      vertex -126.573 -10.1533 -6
      vertex -126.573 -10.1533 -4.5
    endloop
  endfacet
  facet normal 0.951056 0.309019 0
    outer loop
      vertex -126.573 -10.1533 -6
      vertex -126 -11.9167 -4.5
      vertex -126 -11.9167 -6
    endloop
  endfacet
  facet normal -0.951056 0.309019 0
    outer loop
      vertex -132 -11.9167 -6
      vertex -131.427 -10.1533 -4.5
      vertex -131.427 -10.1533 -6
    endloop
  endfacet
  facet normal -0.951056 0.309019 0
    outer loop
      vertex -131.427 -10.1533 -4.5
      vertex -132 -11.9167 -6
      vertex -132 -11.9167 -4.5
    endloop
  endfacet
  facet normal 0 1 -0
    outer loop
      vertex -128.073 -9.0635 -6
      vertex -129.927 -9.0635 -4.5
      vertex -128.073 -9.0635 -4.5
    endloop
  endfacet
  facet normal 0 1 0
    outer loop
      vertex -129.927 -9.0635 -4.5
      vertex -128.073 -9.0635 -6
      vertex -129.927 -9.0635 -6
    endloop
  endfacet
  facet normal 0.587785 0.809017 -0
    outer loop
      vertex -126.573 -10.1533 -6
      vertex -128.073 -9.0635 -4.5
      vertex -126.573 -10.1533 -4.5
    endloop
  endfacet
  facet normal 0.587785 0.809017 0
    outer loop
      vertex -128.073 -9.0635 -4.5
      vertex -126.573 -10.1533 -6
      vertex -128.073 -9.0635 -6
    endloop
  endfacet
  facet normal 0 0 1
    outer loop
      vertex -126.573 -10.1533 -4.5
      vertex -126.573 -13.68 -4.5
      vertex -126 -11.9167 -4.5
    endloop
  endfacet
  facet normal 0 0 1
    outer loop
      vertex -128.073 -9.0635 -4.5
      vertex -126.573 -13.68 -4.5
      vertex -126.573 -10.1533 -4.5
    endloop
  endfacet
  facet normal 0 0 1
    outer loop
      vertex -128.073 -9.0635 -4.5
      vertex -128.073 -14.7698 -4.5
      vertex -126.573 -13.68 -4.5
    endloop
  endfacet
  facet normal -0 0 1
    outer loop
      vertex -129.927 -9.0635 -4.5
      vertex -128.073 -14.7698 -4.5
      vertex -128.073 -9.0635 -4.5
    endloop
  endfacet
  facet normal 0 0 1
    outer loop
      vertex -129.927 -9.0635 -4.5
      vertex -129.927 -14.7698 -4.5
      vertex -128.073 -14.7698 -4.5
    endloop
  endfacet
  facet normal -0 0 1
    outer loop
      vertex -131.427 -10.1533 -4.5
      vertex -129.927 -14.7698 -4.5
      vertex -129.927 -9.0635 -4.5
    endloop
  endfacet
  facet normal 0 0 1
    outer loop
      vertex -131.427 -10.1533 -4.5
      vertex -131.427 -13.68 -4.5
      vertex -129.927 -14.7698 -4.5
    endloop
  endfacet
  facet normal 0 -0 1
    outer loop
      vertex -131.427 -13.68 -4.5
      vertex -131.427 -10.1533 -4.5
      vertex -132 -11.9167 -4.5
    endloop
  endfacet
  facet normal -0.587785 0.809017 0
    outer loop
      vertex -129.927 -9.0635 -6
      vertex -131.427 -10.1533 -4.5
      vertex -129.927 -9.0635 -4.5
    endloop
  endfacet
  facet normal -0.587785 0.809017 0
    outer loop
      vertex -131.427 -10.1533 -4.5
      vertex -129.927 -9.0635 -6
      vertex -131.427 -10.1533 -6
    endloop
  endfacet
  facet normal 0 -1 0
    outer loop
      vertex -129.927 -14.7698 -6
      vertex -128.073 -14.7698 -4.5
      vertex -129.927 -14.7698 -4.5
    endloop
  endfacet
  facet normal 0 -1 -0
    outer loop
      vertex -128.073 -14.7698 -4.5
      vertex -129.927 -14.7698 -6
      vertex -128.073 -14.7698 -6
    endloop
  endfacet
  facet normal -0.951056 -0.309019 0
    outer loop
      vertex -131.427 -13.68 -6
      vertex -132 -11.9167 -4.5
      vertex -132 -11.9167 -6
    endloop
  endfacet
  facet normal -0.951056 -0.309019 0
    outer loop
      vertex -132 -11.9167 -4.5
      vertex -131.427 -13.68 -6
      vertex -131.427 -13.68 -4.5
    endloop
  endfacet
  facet normal 0.587785 -0.809017 0
    outer loop
      vertex -128.073 -14.7698 -6
      vertex -126.573 -13.68 -4.5
      vertex -128.073 -14.7698 -4.5
    endloop
  endfacet
  facet normal 0.587785 -0.809017 0
    outer loop
      vertex -126.573 -13.68 -4.5
      vertex -128.073 -14.7698 -6
      vertex -126.573 -13.68 -6
    endloop
  endfacet
  facet normal -0.587785 -0.809017 0
    outer loop
      vertex -131.427 -13.68 -6
      vertex -129.927 -14.7698 -4.5
      vertex -131.427 -13.68 -4.5
    endloop
  endfacet
  facet normal -0.587785 -0.809017 -0
    outer loop
      vertex -129.927 -14.7698 -4.5
      vertex -131.427 -13.68 -6
      vertex -129.927 -14.7698 -6
    endloop
  endfacet
  facet normal 0.951056 -0.309019 0
    outer loop
      vertex -126.573 -13.68 -4.5
      vertex -126 -11.9167 -6
      vertex -126 -11.9167 -4.5
    endloop
  endfacet
  facet normal 0.951056 -0.309019 0
    outer loop
      vertex -126 -11.9167 -6
      vertex -126.573 -13.68 -4.5
      vertex -126.573 -13.68 -6
    endloop
  endfacet
  facet normal 0.951056 0.309019 0
    outer loop
      vertex -126 -35.75 -4.5
      vertex -126.573 -33.9866 -6
      vertex -126.573 -33.9866 -4.5
    endloop
  endfacet
  facet normal 0.951056 0.309019 0
    outer loop
      vertex -126.573 -33.9866 -6
      vertex -126 -35.75 -4.5
      vertex -126 -35.75 -6
    endloop
  endfacet
  facet normal -0.951056 0.309019 0
    outer loop
      vertex -132 -35.75 -6
      vertex -131.427 -33.9866 -4.5
      vertex -131.427 -33.9866 -6
    endloop
  endfacet
  facet normal -0.951056 0.309019 0
    outer loop
      vertex -131.427 -33.9866 -4.5
      vertex -132 -35.75 -6
      vertex -132 -35.75 -4.5
    endloop
  endfacet
  facet normal 0 -1 0
    outer loop
      vertex -129.927 -38.6032 -6
      vertex -128.073 -38.6032 -4.5
      vertex -129.927 -38.6032 -4.5
    endloop
  endfacet
  facet normal 0 -1 -0
    outer loop
      vertex -128.073 -38.6032 -4.5
      vertex -129.927 -38.6032 -6
      vertex -128.073 -38.6032 -6
    endloop
  endfacet
  facet normal 0 1 -0
    outer loop
      vertex -128.073 -32.8968 -6
      vertex -129.927 -32.8968 -4.5
      vertex -128.073 -32.8968 -4.5
    endloop
  endfacet
  facet normal 0 1 0
    outer loop
      vertex -129.927 -32.8968 -4.5
      vertex -128.073 -32.8968 -6
      vertex -129.927 -32.8968 -6
    endloop
  endfacet
  facet normal 0.587786 0.809016 -0
    outer loop
      vertex -126.573 -33.9866 -6
      vertex -128.073 -32.8968 -4.5
      vertex -126.573 -33.9866 -4.5
    endloop
  endfacet
  facet normal 0.587786 0.809016 0
    outer loop
      vertex -128.073 -32.8968 -4.5
      vertex -126.573 -33.9866 -6
      vertex -128.073 -32.8968 -6
    endloop
  endfacet
  facet normal 0 0 1
    outer loop
      vertex -126.573 -33.9866 -4.5
      vertex -126.573 -37.5134 -4.5
      vertex -126 -35.75 -4.5
    endloop
  endfacet
  facet normal 0 0 1
    outer loop
      vertex -128.073 -32.8968 -4.5
      vertex -126.573 -37.5134 -4.5
      vertex -126.573 -33.9866 -4.5
    endloop
  endfacet
  facet normal 0 0 1
    outer loop
      vertex -128.073 -32.8968 -4.5
      vertex -128.073 -38.6032 -4.5
      vertex -126.573 -37.5134 -4.5
    endloop
  endfacet
  facet normal -0 0 1
    outer loop
      vertex -129.927 -32.8968 -4.5
      vertex -128.073 -38.6032 -4.5
      vertex -128.073 -32.8968 -4.5
    endloop
  endfacet
  facet normal 0 0 1
    outer loop
      vertex -129.927 -32.8968 -4.5
      vertex -129.927 -38.6032 -4.5
      vertex -128.073 -38.6032 -4.5
    endloop
  endfacet
  facet normal -0 0 1
    outer loop
      vertex -131.427 -33.9866 -4.5
      vertex -129.927 -38.6032 -4.5
      vertex -129.927 -32.8968 -4.5
    endloop
  endfacet
  facet normal 0 0 1
    outer loop
      vertex -131.427 -33.9866 -4.5
      vertex -131.427 -37.5134 -4.5
      vertex -129.927 -38.6032 -4.5
    endloop
  endfacet
  facet normal 0 -0 1
    outer loop
      vertex -131.427 -37.5134 -4.5
      vertex -131.427 -33.9866 -4.5
      vertex -132 -35.75 -4.5
    endloop
  endfacet
  facet normal -0.587786 0.809016 0
    outer loop
      vertex -129.927 -32.8968 -6
      vertex -131.427 -33.9866 -4.5
      vertex -129.927 -32.8968 -4.5
    endloop
  endfacet
  facet normal -0.587786 0.809016 0
    outer loop
      vertex -131.427 -33.9866 -4.5
      vertex -129.927 -32.8968 -6
      vertex -131.427 -33.9866 -6
    endloop
  endfacet
  facet normal 0.587785 -0.809017 0
    outer loop
      vertex -128.073 -38.6032 -6
      vertex -126.573 -37.5134 -4.5
      vertex -128.073 -38.6032 -4.5
    endloop
  endfacet
  facet normal 0.587785 -0.809017 0
    outer loop
      vertex -126.573 -37.5134 -4.5
      vertex -128.073 -38.6032 -6
      vertex -126.573 -37.5134 -6
    endloop
  endfacet
  facet normal 0.951056 -0.309019 0
    outer loop
      vertex -126.573 -37.5134 -4.5
      vertex -126 -35.75 -6
      vertex -126 -35.75 -4.5
    endloop
  endfacet
  facet normal 0.951056 -0.309019 0
    outer loop
      vertex -126 -35.75 -6
      vertex -126.573 -37.5134 -4.5
      vertex -126.573 -37.5134 -6
    endloop
  endfacet
  facet normal -0.951056 -0.309019 0
    outer loop
      vertex -131.427 -37.5134 -6
      vertex -132 -35.75 -4.5
      vertex -132 -35.75 -6
    endloop
  endfacet
  facet normal -0.951056 -0.309019 0
    outer loop
      vertex -132 -35.75 -4.5
      vertex -131.427 -37.5134 -6
      vertex -131.427 -37.5134 -4.5
    endloop
  endfacet
  facet normal -0.587785 -0.809017 0
    outer loop
      vertex -131.427 -37.5134 -6
      vertex -129.927 -38.6032 -4.5
      vertex -131.427 -37.5134 -4.5
    endloop
  endfacet
  facet normal -0.587785 -0.809017 -0
    outer loop
      vertex -129.927 -38.6032 -4.5
      vertex -131.427 -37.5134 -6
      vertex -129.927 -38.6032 -6
    endloop
  endfacet
  facet normal 0.951056 0.309019 0
    outer loop
      vertex -126 -59.5833 -4.5
      vertex -126.573 -57.82 -6
      vertex -126.573 -57.82 -4.5
    endloop
  endfacet
  facet normal 0.951056 0.309019 0
    outer loop
      vertex -126.573 -57.82 -6
      vertex -126 -59.5833 -4.5
      vertex -126 -59.5833 -6
    endloop
  endfacet
  facet normal -0.951056 0.309019 0
    outer loop
      vertex -132 -59.5833 -6
      vertex -131.427 -57.82 -4.5
      vertex -131.427 -57.82 -6
    endloop
  endfacet
  facet normal -0.951056 0.309019 0
    outer loop
      vertex -131.427 -57.82 -4.5
      vertex -132 -59.5833 -6
      vertex -132 -59.5833 -4.5
    endloop
  endfacet
  facet normal 0 -1 0
    outer loop
      vertex -129.927 -62.4365 -6
      vertex -128.073 -62.4365 -4.5
      vertex -129.927 -62.4365 -4.5
    endloop
  endfacet
  facet normal 0 -1 -0
    outer loop
      vertex -128.073 -62.4365 -4.5
      vertex -129.927 -62.4365 -6
      vertex -128.073 -62.4365 -6
    endloop
  endfacet
  facet normal 0 1 -0
    outer loop
      vertex -128.073 -56.7302 -6
      vertex -129.927 -56.7302 -4.5
      vertex -128.073 -56.7302 -4.5
    endloop
  endfacet
  facet normal 0 1 0
    outer loop
      vertex -129.927 -56.7302 -4.5
      vertex -128.073 -56.7302 -6
      vertex -129.927 -56.7302 -6
    endloop
  endfacet
  facet normal 0.587785 0.809017 -0
    outer loop
      vertex -126.573 -57.82 -6
      vertex -128.073 -56.7302 -4.5
      vertex -126.573 -57.82 -4.5
    endloop
  endfacet
  facet normal 0.587785 0.809017 0
    outer loop
      vertex -128.073 -56.7302 -4.5
      vertex -126.573 -57.82 -6
      vertex -128.073 -56.7302 -6
    endloop
  endfacet
  facet normal 0 0 1
    outer loop
      vertex -126.573 -57.82 -4.5
      vertex -126.573 -61.3467 -4.5
      vertex -126 -59.5833 -4.5
    endloop
  endfacet
  facet normal 0 0 1
    outer loop
      vertex -128.073 -56.7302 -4.5
      vertex -126.573 -61.3467 -4.5
      vertex -126.573 -57.82 -4.5
    endloop
  endfacet
  facet normal 0 0 1
    outer loop
      vertex -128.073 -56.7302 -4.5
      vertex -128.073 -62.4365 -4.5
      vertex -126.573 -61.3467 -4.5
    endloop
  endfacet
  facet normal -0 0 1
    outer loop
      vertex -129.927 -56.7302 -4.5
      vertex -128.073 -62.4365 -4.5
      vertex -128.073 -56.7302 -4.5
    endloop
  endfacet
  facet normal 0 0 1
    outer loop
      vertex -129.927 -56.7302 -4.5
      vertex -129.927 -62.4365 -4.5
      vertex -128.073 -62.4365 -4.5
    endloop
  endfacet
  facet normal -0 0 1
    outer loop
      vertex -131.427 -57.82 -4.5
      vertex -129.927 -62.4365 -4.5
      vertex -129.927 -56.7302 -4.5
    endloop
  endfacet
  facet normal 0 0 1
    outer loop
      vertex -131.427 -57.82 -4.5
      vertex -131.427 -61.3467 -4.5
      vertex -129.927 -62.4365 -4.5
    endloop
  endfacet
  facet normal 0 -0 1
    outer loop
      vertex -131.427 -61.3467 -4.5
      vertex -131.427 -57.82 -4.5
      vertex -132 -59.5833 -4.5
    endloop
  endfacet
  facet normal -0.587785 0.809017 0
    outer loop
      vertex -129.927 -56.7302 -6
      vertex -131.427 -57.82 -4.5
      vertex -129.927 -56.7302 -4.5
    endloop
  endfacet
  facet normal -0.587785 0.809017 0
    outer loop
      vertex -131.427 -57.82 -4.5
      vertex -129.927 -56.7302 -6
      vertex -131.427 -57.82 -6
    endloop
  endfacet
  facet normal 0.587785 -0.809017 0
    outer loop
      vertex -128.073 -62.4365 -6
      vertex -126.573 -61.3467 -4.5
      vertex -128.073 -62.4365 -4.5
    endloop
  endfacet
  facet normal 0.587785 -0.809017 0
    outer loop
      vertex -126.573 -61.3467 -4.5
      vertex -128.073 -62.4365 -6
      vertex -126.573 -61.3467 -6
    endloop
  endfacet
  facet normal 0.951056 -0.309019 0
    outer loop
      vertex -126.573 -61.3467 -4.5
      vertex -126 -59.5833 -6
      vertex -126 -59.5833 -4.5
    endloop
  endfacet
  facet normal 0.951056 -0.309019 0
    outer loop
      vertex -126 -59.5833 -6
      vertex -126.573 -61.3467 -4.5
      vertex -126.573 -61.3467 -6
    endloop
  endfacet
  facet normal -0.587785 -0.809017 0
    outer loop
      vertex -131.427 -61.3467 -6
      vertex -129.927 -62.4365 -4.5
      vertex -131.427 -61.3467 -4.5
    endloop
  endfacet
  facet normal -0.587785 -0.809017 -0
    outer loop
      vertex -129.927 -62.4365 -4.5
      vertex -131.427 -61.3467 -6
      vertex -129.927 -62.4365 -6
    endloop
  endfacet
  facet normal -0.951056 -0.309019 0
    outer loop
      vertex -131.427 -61.3467 -6
      vertex -132 -59.5833 -4.5
      vertex -132 -59.5833 -6
    endloop
  endfacet
  facet normal -0.951056 -0.309019 0
    outer loop
      vertex -132 -59.5833 -4.5
      vertex -131.427 -61.3467 -6
      vertex -131.427 -61.3467 -4.5
    endloop
  endfacet
  facet normal 0.951057 0.309017 0
    outer loop
      vertex 3 -81.5 -4.5
      vertex 2.42705 -79.7366 -6
      vertex 2.42705 -79.7366 -4.5
    endloop
  endfacet
  facet normal 0.951057 0.309017 0
    outer loop
      vertex 2.42705 -79.7366 -6
      vertex 3 -81.5 -4.5
      vertex 3 -81.5 -6
    endloop
  endfacet
  facet normal -0.951057 0.309017 0
    outer loop
      vertex -3 -81.5 -6
      vertex -2.42705 -79.7366 -4.5
      vertex -2.42705 -79.7366 -6
    endloop
  endfacet
  facet normal -0.951057 0.309017 0
    outer loop
      vertex -2.42705 -79.7366 -4.5
      vertex -3 -81.5 -6
      vertex -3 -81.5 -4.5
    endloop
  endfacet
  facet normal 0 1 -0
    outer loop
      vertex 0.927051 -78.6468 -6
      vertex -0.927051 -78.6468 -4.5
      vertex 0.927051 -78.6468 -4.5
    endloop
  endfacet
  facet normal 0 1 0
    outer loop
      vertex -0.927051 -78.6468 -4.5
      vertex 0.927051 -78.6468 -6
      vertex -0.927051 -78.6468 -6
    endloop
  endfacet
  facet normal 0.587785 0.809017 -0
    outer loop
      vertex 2.42705 -79.7366 -6
      vertex 0.927051 -78.6468 -4.5
      vertex 2.42705 -79.7366 -4.5
    endloop
  endfacet
  facet normal 0.587785 0.809017 0
    outer loop
      vertex 0.927051 -78.6468 -4.5
      vertex 2.42705 -79.7366 -6
      vertex 0.927051 -78.6468 -6
    endloop
  endfacet
  facet normal 0 0 1
    outer loop
      vertex 2.42705 -79.7366 -4.5
      vertex 2.42705 -83.2634 -4.5
      vertex 3 -81.5 -4.5
    endloop
  endfacet
  facet normal 0 0 1
    outer loop
      vertex 0.927051 -78.6468 -4.5
      vertex 2.42705 -83.2634 -4.5
      vertex 2.42705 -79.7366 -4.5
    endloop
  endfacet
  facet normal 0 0 1
    outer loop
      vertex 0.927051 -78.6468 -4.5
      vertex 0.927051 -84.3532 -4.5
      vertex 2.42705 -83.2634 -4.5
    endloop
  endfacet
  facet normal -0 0 1
    outer loop
      vertex -0.927051 -78.6468 -4.5
      vertex 0.927051 -84.3532 -4.5
      vertex 0.927051 -78.6468 -4.5
    endloop
  endfacet
  facet normal 0 0 1
    outer loop
      vertex -0.927051 -78.6468 -4.5
      vertex -0.927051 -84.3532 -4.5
      vertex 0.927051 -84.3532 -4.5
    endloop
  endfacet
  facet normal -0 0 1
    outer loop
      vertex -2.42705 -79.7366 -4.5
      vertex -0.927051 -84.3532 -4.5
      vertex -0.927051 -78.6468 -4.5
    endloop
  endfacet
  facet normal 0 0 1
    outer loop
      vertex -2.42705 -79.7366 -4.5
      vertex -2.42705 -83.2634 -4.5
      vertex -0.927051 -84.3532 -4.5
    endloop
  endfacet
  facet normal 0 -0 1
    outer loop
      vertex -2.42705 -83.2634 -4.5
      vertex -2.42705 -79.7366 -4.5
      vertex -3 -81.5 -4.5
    endloop
  endfacet
  facet normal -0.587785 0.809017 0
    outer loop
      vertex -0.927051 -78.6468 -6
      vertex -2.42705 -79.7366 -4.5
      vertex -0.927051 -78.6468 -4.5
    endloop
  endfacet
  facet normal -0.587785 0.809017 0
    outer loop
      vertex -2.42705 -79.7366 -4.5
      vertex -0.927051 -78.6468 -6
      vertex -2.42705 -79.7366 -6
    endloop
  endfacet
  facet normal 0.951056 -0.309018 0
    outer loop
      vertex 2.42705 -83.2634 -4.5
      vertex 3 -81.5 -6
      vertex 3 -81.5 -4.5
    endloop
  endfacet
  facet normal 0.951056 -0.309018 0
    outer loop
      vertex 3 -81.5 -6
      vertex 2.42705 -83.2634 -4.5
      vertex 2.42705 -83.2634 -6
    endloop
  endfacet
  facet normal -0.951056 -0.309018 0
    outer loop
      vertex -2.42705 -83.2634 -6
      vertex -3 -81.5 -4.5
      vertex -3 -81.5 -6
    endloop
  endfacet
  facet normal -0.951056 -0.309018 0
    outer loop
      vertex -3 -81.5 -4.5
      vertex -2.42705 -83.2634 -6
      vertex -2.42705 -83.2634 -4.5
    endloop
  endfacet
  facet normal 0 -1 0
    outer loop
      vertex -0.927051 -84.3532 -6
      vertex 0.927051 -84.3532 -4.5
      vertex -0.927051 -84.3532 -4.5
    endloop
  endfacet
  facet normal 0 -1 -0
    outer loop
      vertex 0.927051 -84.3532 -4.5
      vertex -0.927051 -84.3532 -6
      vertex 0.927051 -84.3532 -6
    endloop
  endfacet
  facet normal 0.587788 -0.809015 0
    outer loop
      vertex 0.927051 -84.3532 -6
      vertex 2.42705 -83.2634 -4.5
      vertex 0.927051 -84.3532 -4.5
    endloop
  endfacet
  facet normal 0.587788 -0.809015 0
    outer loop
      vertex 2.42705 -83.2634 -4.5
      vertex 0.927051 -84.3532 -6
      vertex 2.42705 -83.2634 -6
    endloop
  endfacet
  facet normal -0.587788 -0.809015 0
    outer loop
      vertex -2.42705 -83.2634 -6
      vertex -0.927051 -84.3532 -4.5
      vertex -2.42705 -83.2634 -4.5
    endloop
  endfacet
  facet normal -0.587788 -0.809015 -0
    outer loop
      vertex -0.927051 -84.3532 -4.5
      vertex -2.42705 -83.2634 -6
      vertex -0.927051 -84.3532 -6
    endloop
  endfacet
  facet normal 0.951056 0.309017 0
    outer loop
      vertex -30.4286 -81.5 -4.5
      vertex -31.0015 -79.7366 -6
      vertex -31.0015 -79.7366 -4.5
    endloop
  endfacet
  facet normal 0.951056 0.309017 0
    outer loop
      vertex -31.0015 -79.7366 -6
      vertex -30.4286 -81.5 -4.5
      vertex -30.4286 -81.5 -6
    endloop
  endfacet
  facet normal -0.951056 -0.309017 0
    outer loop
      vertex -35.8556 -83.2634 -6
      vertex -36.4286 -81.5 -4.5
      vertex -36.4286 -81.5 -6
    endloop
  endfacet
  facet normal -0.951056 -0.309017 0
    outer loop
      vertex -36.4286 -81.5 -4.5
      vertex -35.8556 -83.2634 -6
      vertex -35.8556 -83.2634 -4.5
    endloop
  endfacet
  facet normal 0 1 -0
    outer loop
      vertex -32.5015 -78.6468 -6
      vertex -34.3556 -78.6468 -4.5
      vertex -32.5015 -78.6468 -4.5
    endloop
  endfacet
  facet normal 0 1 0
    outer loop
      vertex -34.3556 -78.6468 -4.5
      vertex -32.5015 -78.6468 -6
      vertex -34.3556 -78.6468 -6
    endloop
  endfacet
  facet normal 0.587786 0.809017 -0
    outer loop
      vertex -31.0015 -79.7366 -6
      vertex -32.5015 -78.6468 -4.5
      vertex -31.0015 -79.7366 -4.5
    endloop
  endfacet
  facet normal 0.587786 0.809017 0
    outer loop
      vertex -32.5015 -78.6468 -4.5
      vertex -31.0015 -79.7366 -6
      vertex -32.5015 -78.6468 -6
    endloop
  endfacet
  facet normal -0.587785 0.809017 0
    outer loop
      vertex -34.3556 -78.6468 -6
      vertex -35.8556 -79.7366 -4.5
      vertex -34.3556 -78.6468 -4.5
    endloop
  endfacet
  facet normal -0.587785 0.809017 0
    outer loop
      vertex -35.8556 -79.7366 -4.5
      vertex -34.3556 -78.6468 -6
      vertex -35.8556 -79.7366 -6
    endloop
  endfacet
  facet normal 0.587788 -0.809015 0
    outer loop
      vertex -32.5015 -84.3532 -6
      vertex -31.0015 -83.2634 -4.5
      vertex -32.5015 -84.3532 -4.5
    endloop
  endfacet
  facet normal 0.587788 -0.809015 0
    outer loop
      vertex -31.0015 -83.2634 -4.5
      vertex -32.5015 -84.3532 -6
      vertex -31.0015 -83.2634 -6
    endloop
  endfacet
  facet normal -0.587788 -0.809015 0
    outer loop
      vertex -35.8556 -83.2634 -6
      vertex -34.3556 -84.3532 -4.5
      vertex -35.8556 -83.2634 -4.5
    endloop
  endfacet
  facet normal -0.587788 -0.809015 -0
    outer loop
      vertex -34.3556 -84.3532 -4.5
      vertex -35.8556 -83.2634 -6
      vertex -34.3556 -84.3532 -6
    endloop
  endfacet
  facet normal -0.951057 0.309016 0
    outer loop
      vertex -36.4286 -81.5 -6
      vertex -35.8556 -79.7366 -4.5
      vertex -35.8556 -79.7366 -6
    endloop
  endfacet
  facet normal -0.951057 0.309016 0
    outer loop
      vertex -35.8556 -79.7366 -4.5
      vertex -36.4286 -81.5 -6
      vertex -36.4286 -81.5 -4.5
    endloop
  endfacet
  facet normal 0 0 1
    outer loop
      vertex -31.0015 -79.7366 -4.5
      vertex -31.0015 -83.2634 -4.5
      vertex -30.4286 -81.5 -4.5
    endloop
  endfacet
  facet normal 0 0 1
    outer loop
      vertex -32.5015 -78.6468 -4.5
      vertex -31.0015 -83.2634 -4.5
      vertex -31.0015 -79.7366 -4.5
    endloop
  endfacet
  facet normal 0 0 1
    outer loop
      vertex -32.5015 -78.6468 -4.5
      vertex -32.5015 -84.3532 -4.5
      vertex -31.0015 -83.2634 -4.5
    endloop
  endfacet
  facet normal -0 0 1
    outer loop
      vertex -34.3556 -78.6468 -4.5
      vertex -32.5015 -84.3532 -4.5
      vertex -32.5015 -78.6468 -4.5
    endloop
  endfacet
  facet normal 0 0 1
    outer loop
      vertex -34.3556 -78.6468 -4.5
      vertex -34.3556 -84.3532 -4.5
      vertex -32.5015 -84.3532 -4.5
    endloop
  endfacet
  facet normal -0 0 1
    outer loop
      vertex -35.8556 -79.7366 -4.5
      vertex -34.3556 -84.3532 -4.5
      vertex -34.3556 -78.6468 -4.5
    endloop
  endfacet
  facet normal 0 0 1
    outer loop
      vertex -35.8556 -79.7366 -4.5
      vertex -35.8556 -83.2634 -4.5
      vertex -34.3556 -84.3532 -4.5
    endloop
  endfacet
  facet normal 0 -0 1
    outer loop
      vertex -35.8556 -83.2634 -4.5
      vertex -35.8556 -79.7366 -4.5
      vertex -36.4286 -81.5 -4.5
    endloop
  endfacet
  facet normal 0.951056 -0.309018 0
    outer loop
      vertex -31.0015 -83.2634 -4.5
      vertex -30.4286 -81.5 -6
      vertex -30.4286 -81.5 -4.5
    endloop
  endfacet
  facet normal 0.951056 -0.309018 0
    outer loop
      vertex -30.4286 -81.5 -6
      vertex -31.0015 -83.2634 -4.5
      vertex -31.0015 -83.2634 -6
    endloop
  endfacet
  facet normal 0 -1 0
    outer loop
      vertex -34.3556 -84.3532 -6
      vertex -32.5015 -84.3532 -4.5
      vertex -34.3556 -84.3532 -4.5
    endloop
  endfacet
  facet normal 0 -1 -0
    outer loop
      vertex -32.5015 -84.3532 -4.5
      vertex -34.3556 -84.3532 -6
      vertex -32.5015 -84.3532 -6
    endloop
  endfacet
  facet normal 0.951057 0.309016 0
    outer loop
      vertex -63.8571 -81.5 -4.5
      vertex -64.4301 -79.7366 -6
      vertex -64.4301 -79.7366 -4.5
    endloop
  endfacet
  facet normal 0.951057 0.309016 0
    outer loop
      vertex -64.4301 -79.7366 -6
      vertex -63.8571 -81.5 -4.5
      vertex -63.8571 -81.5 -6
    endloop
  endfacet
  facet normal -0.951057 0.309014 0
    outer loop
      vertex -69.8571 -81.5 -6
      vertex -69.2842 -79.7366 -4.5
      vertex -69.2842 -79.7366 -6
    endloop
  endfacet
  facet normal -0.951057 0.309014 0
    outer loop
      vertex -69.2842 -79.7366 -4.5
      vertex -69.8571 -81.5 -6
      vertex -69.8571 -81.5 -4.5
    endloop
  endfacet
  facet normal 0 -1 0
    outer loop
      vertex -67.7842 -84.3532 -6
      vertex -65.9301 -84.3532 -4.5
      vertex -67.7842 -84.3532 -4.5
    endloop
  endfacet
  facet normal 0 -1 -0
    outer loop
      vertex -65.9301 -84.3532 -4.5
      vertex -67.7842 -84.3532 -6
      vertex -65.9301 -84.3532 -6
    endloop
  endfacet
  facet normal 0 1 -0
    outer loop
      vertex -65.9301 -78.6468 -6
      vertex -67.7842 -78.6468 -4.5
      vertex -65.9301 -78.6468 -4.5
    endloop
  endfacet
  facet normal 0 1 0
    outer loop
      vertex -67.7842 -78.6468 -4.5
      vertex -65.9301 -78.6468 -6
      vertex -67.7842 -78.6468 -6
    endloop
  endfacet
  facet normal 0.587785 0.809017 -0
    outer loop
      vertex -64.4301 -79.7366 -6
      vertex -65.9301 -78.6468 -4.5
      vertex -64.4301 -79.7366 -4.5
    endloop
  endfacet
  facet normal 0.587785 0.809017 0
    outer loop
      vertex -65.9301 -78.6468 -4.5
      vertex -64.4301 -79.7366 -6
      vertex -65.9301 -78.6468 -6
    endloop
  endfacet
  facet normal 0 0 1
    outer loop
      vertex -64.4301 -79.7366 -4.5
      vertex -64.4301 -83.2634 -4.5
      vertex -63.8571 -81.5 -4.5
    endloop
  endfacet
  facet normal 0 0 1
    outer loop
      vertex -65.9301 -78.6468 -4.5
      vertex -64.4301 -83.2634 -4.5
      vertex -64.4301 -79.7366 -4.5
    endloop
  endfacet
  facet normal 0 0 1
    outer loop
      vertex -65.9301 -78.6468 -4.5
      vertex -65.9301 -84.3532 -4.5
      vertex -64.4301 -83.2634 -4.5
    endloop
  endfacet
  facet normal -0 0 1
    outer loop
      vertex -67.7842 -78.6468 -4.5
      vertex -65.9301 -84.3532 -4.5
      vertex -65.9301 -78.6468 -4.5
    endloop
  endfacet
  facet normal 0 0 1
    outer loop
      vertex -67.7842 -78.6468 -4.5
      vertex -67.7842 -84.3532 -4.5
      vertex -65.9301 -84.3532 -4.5
    endloop
  endfacet
  facet normal -0 0 1
    outer loop
      vertex -69.2842 -79.7366 -4.5
      vertex -67.7842 -84.3532 -4.5
      vertex -67.7842 -78.6468 -4.5
    endloop
  endfacet
  facet normal 0 0 1
    outer loop
      vertex -69.2842 -79.7366 -4.5
      vertex -69.2842 -83.2634 -4.5
      vertex -67.7842 -84.3532 -4.5
    endloop
  endfacet
  facet normal 0 -0 1
    outer loop
      vertex -69.2842 -83.2634 -4.5
      vertex -69.2842 -79.7366 -4.5
      vertex -69.8571 -81.5 -4.5
    endloop
  endfacet
  facet normal -0.587785 0.809017 0
    outer loop
      vertex -67.7842 -78.6468 -6
      vertex -69.2842 -79.7366 -4.5
      vertex -67.7842 -78.6468 -4.5
    endloop
  endfacet
  facet normal -0.587785 0.809017 0
    outer loop
      vertex -69.2842 -79.7366 -4.5
      vertex -67.7842 -78.6468 -6
      vertex -69.2842 -79.7366 -6
    endloop
  endfacet
  facet normal -0.951057 -0.309016 0
    outer loop
      vertex -69.2842 -83.2634 -6
      vertex -69.8571 -81.5 -4.5
      vertex -69.8571 -81.5 -6
    endloop
  endfacet
  facet normal -0.951057 -0.309016 0
    outer loop
      vertex -69.8571 -81.5 -4.5
      vertex -69.2842 -83.2634 -6
      vertex -69.2842 -83.2634 -4.5
    endloop
  endfacet
  facet normal 0.587788 -0.809015 0
    outer loop
      vertex -65.9301 -84.3532 -6
      vertex -64.4301 -83.2634 -4.5
      vertex -65.9301 -84.3532 -4.5
    endloop
  endfacet
  facet normal 0.587788 -0.809015 0
    outer loop
      vertex -64.4301 -83.2634 -4.5
      vertex -65.9301 -84.3532 -6
      vertex -64.4301 -83.2634 -6
    endloop
  endfacet
  facet normal -0.587788 -0.809015 0
    outer loop
      vertex -69.2842 -83.2634 -6
      vertex -67.7842 -84.3532 -4.5
      vertex -69.2842 -83.2634 -4.5
    endloop
  endfacet
  facet normal -0.587788 -0.809015 -0
    outer loop
      vertex -67.7842 -84.3532 -4.5
      vertex -69.2842 -83.2634 -6
      vertex -67.7842 -84.3532 -6
    endloop
  endfacet
  facet normal 0.951056 -0.309017 0
    outer loop
      vertex -64.4301 -83.2634 -4.5
      vertex -63.8571 -81.5 -6
      vertex -63.8571 -81.5 -4.5
    endloop
  endfacet
  facet normal 0.951056 -0.309017 0
    outer loop
      vertex -63.8571 -81.5 -6
      vertex -64.4301 -83.2634 -4.5
      vertex -64.4301 -83.2634 -6
    endloop
  endfacet
  facet normal 0.951056 0.309018 0
    outer loop
      vertex -97.2857 -81.5 -4.5
      vertex -97.8587 -79.7366 -6
      vertex -97.8587 -79.7366 -4.5
    endloop
  endfacet
  facet normal 0.951056 0.309018 0
    outer loop
      vertex -97.8587 -79.7366 -6
      vertex -97.2857 -81.5 -4.5
      vertex -97.2857 -81.5 -6
    endloop
  endfacet
  facet normal -0.951057 0.309014 0
    outer loop
      vertex -103.286 -81.5 -6
      vertex -102.713 -79.7366 -4.5
      vertex -102.713 -79.7366 -6
    endloop
  endfacet
  facet normal -0.951057 0.309014 0
    outer loop
      vertex -102.713 -79.7366 -4.5
      vertex -103.286 -81.5 -6
      vertex -103.286 -81.5 -4.5
    endloop
  endfacet
  facet normal 0 -1 0
    outer loop
      vertex -101.213 -84.3532 -6
      vertex -99.3587 -84.3532 -4.5
      vertex -101.213 -84.3532 -4.5
    endloop
  endfacet
  facet normal 0 -1 -0
    outer loop
      vertex -99.3587 -84.3532 -4.5
      vertex -101.213 -84.3532 -6
      vertex -99.3587 -84.3532 -6
    endloop
  endfacet
  facet normal 0 1 -0
    outer loop
      vertex -99.3587 -78.6468 -6
      vertex -101.213 -78.6468 -4.5
      vertex -99.3587 -78.6468 -4.5
    endloop
  endfacet
  facet normal 0 1 0
    outer loop
      vertex -101.213 -78.6468 -4.5
      vertex -99.3587 -78.6468 -6
      vertex -101.213 -78.6468 -6
    endloop
  endfacet
  facet normal 0.587785 0.809017 -0
    outer loop
      vertex -97.8587 -79.7366 -6
      vertex -99.3587 -78.6468 -4.5
      vertex -97.8587 -79.7366 -4.5
    endloop
  endfacet
  facet normal 0.587785 0.809017 0
    outer loop
      vertex -99.3587 -78.6468 -4.5
      vertex -97.8587 -79.7366 -6
      vertex -99.3587 -78.6468 -6
    endloop
  endfacet
  facet normal 0 0 1
    outer loop
      vertex -97.8587 -79.7366 -4.5
      vertex -97.8587 -83.2634 -4.5
      vertex -97.2857 -81.5 -4.5
    endloop
  endfacet
  facet normal 0 0 1
    outer loop
      vertex -99.3587 -78.6468 -4.5
      vertex -97.8587 -83.2634 -4.5
      vertex -97.8587 -79.7366 -4.5
    endloop
  endfacet
  facet normal 0 0 1
    outer loop
      vertex -99.3587 -78.6468 -4.5
      vertex -99.3587 -84.3532 -4.5
      vertex -97.8587 -83.2634 -4.5
    endloop
  endfacet
  facet normal -0 0 1
    outer loop
      vertex -101.213 -78.6468 -4.5
      vertex -99.3587 -84.3532 -4.5
      vertex -99.3587 -78.6468 -4.5
    endloop
  endfacet
  facet normal 0 0 1
    outer loop
      vertex -101.213 -78.6468 -4.5
      vertex -101.213 -84.3532 -4.5
      vertex -99.3587 -84.3532 -4.5
    endloop
  endfacet
  facet normal -0 0 1
    outer loop
      vertex -102.713 -79.7366 -4.5
      vertex -101.213 -84.3532 -4.5
      vertex -101.213 -78.6468 -4.5
    endloop
  endfacet
  facet normal 0 0 1
    outer loop
      vertex -102.713 -79.7366 -4.5
      vertex -102.713 -83.2634 -4.5
      vertex -101.213 -84.3532 -4.5
    endloop
  endfacet
  facet normal 0 -0 1
    outer loop
      vertex -102.713 -83.2634 -4.5
      vertex -102.713 -79.7366 -4.5
      vertex -103.286 -81.5 -4.5
    endloop
  endfacet
  facet normal -0.587785 0.809017 0
    outer loop
      vertex -101.213 -78.6468 -6
      vertex -102.713 -79.7366 -4.5
      vertex -101.213 -78.6468 -4.5
    endloop
  endfacet
  facet normal -0.587785 0.809017 0
    outer loop
      vertex -102.713 -79.7366 -4.5
      vertex -101.213 -78.6468 -6
      vertex -102.713 -79.7366 -6
    endloop
  endfacet
  facet normal 0.587788 -0.809015 0
    outer loop
      vertex -99.3587 -84.3532 -6
      vertex -97.8587 -83.2634 -4.5
      vertex -99.3587 -84.3532 -4.5
    endloop
  endfacet
  facet normal 0.587788 -0.809015 0
    outer loop
      vertex -97.8587 -83.2634 -4.5
      vertex -99.3587 -84.3532 -6
      vertex -97.8587 -83.2634 -6
    endloop
  endfacet
  facet normal 0.951056 -0.309019 0
    outer loop
      vertex -97.8587 -83.2634 -4.5
      vertex -97.2857 -81.5 -6
      vertex -97.2857 -81.5 -4.5
    endloop
  endfacet
  facet normal 0.951056 -0.309019 0
    outer loop
      vertex -97.2857 -81.5 -6
      vertex -97.8587 -83.2634 -4.5
      vertex -97.8587 -83.2634 -6
    endloop
  endfacet
  facet normal -0.587788 -0.809015 0
    outer loop
      vertex -102.713 -83.2634 -6
      vertex -101.213 -84.3532 -4.5
      vertex -102.713 -83.2634 -4.5
    endloop
  endfacet
  facet normal -0.587788 -0.809015 -0
    outer loop
      vertex -101.213 -84.3532 -4.5
      vertex -102.713 -83.2634 -6
      vertex -101.213 -84.3532 -6
    endloop
  endfacet
  facet normal -0.951057 -0.309016 0
    outer loop
      vertex -102.713 -83.2634 -6
      vertex -103.286 -81.5 -4.5
      vertex -103.286 -81.5 -6
    endloop
  endfacet
  facet normal -0.951057 -0.309016 0
    outer loop
      vertex -103.286 -81.5 -4.5
      vertex -102.713 -83.2634 -6
      vertex -102.713 -83.2634 -4.5
    endloop
  endfacet
  facet normal 0.951056 0.309018 0
    outer loop
      vertex -130 -83.5 -5
      vertex -130.573 -81.7366 -6
      vertex -130.573 -81.7366 -5
    endloop
  endfacet
  facet normal 0.951056 0.309018 0
    outer loop
      vertex -130.573 -81.7366 -6
      vertex -130 -83.5 -5
      vertex -130 -83.5 -6
    endloop
  endfacet
  facet normal -0.951056 0.309018 0
    outer loop
      vertex -136 -83.5 -6
      vertex -135.427 -81.7366 -5
      vertex -135.427 -81.7366 -6
    endloop
  endfacet
  facet normal -0.951056 0.309018 0
    outer loop
      vertex -135.427 -81.7366 -5
      vertex -136 -83.5 -6
      vertex -136 -83.5 -5
    endloop
  endfacet
  facet normal 0 -1 0
    outer loop
      vertex -133.927 -86.3532 -6
      vertex -132.073 -86.3532 -5
      vertex -133.927 -86.3532 -5
    endloop
  endfacet
  facet normal 0 -1 -0
    outer loop
      vertex -132.073 -86.3532 -5
      vertex -133.927 -86.3532 -6
      vertex -132.073 -86.3532 -6
    endloop
  endfacet
  facet normal 0 1 -0
    outer loop
      vertex -132.073 -80.6468 -6
      vertex -133.927 -80.6468 -5
      vertex -132.073 -80.6468 -5
    endloop
  endfacet
  facet normal 0 1 0
    outer loop
      vertex -133.927 -80.6468 -5
      vertex -132.073 -80.6468 -6
      vertex -133.927 -80.6468 -6
    endloop
  endfacet
  facet normal 0.587785 0.809017 -0
    outer loop
      vertex -130.573 -81.7366 -6
      vertex -132.073 -80.6468 -5
      vertex -130.573 -81.7366 -5
    endloop
  endfacet
  facet normal 0.587785 0.809017 0
    outer loop
      vertex -132.073 -80.6468 -5
      vertex -130.573 -81.7366 -6
      vertex -132.073 -80.6468 -6
    endloop
  endfacet
  facet normal 0 0 1
    outer loop
      vertex -131.5 -83.5 -5
      vertex -130 -83.5 -5
      vertex -130.573 -81.7366 -5
    endloop
  endfacet
  facet normal 0 0 1
    outer loop
      vertex -130 -83.5 -5
      vertex -131.5 -83.5 -5
      vertex -130.573 -85.2634 -5
    endloop
  endfacet
  facet normal 0 0 1
    outer loop
      vertex -132.536 -82.0734 -5
      vertex -130.573 -81.7366 -5
      vertex -132.073 -80.6468 -5
    endloop
  endfacet
  facet normal 0 0 1
    outer loop
      vertex -130.573 -81.7366 -5
      vertex -132.536 -82.0734 -5
      vertex -131.5 -83.5 -5
    endloop
  endfacet
  facet normal -0 0 1
    outer loop
      vertex -133.927 -80.6468 -5
      vertex -132.536 -82.0734 -5
      vertex -132.073 -80.6468 -5
    endloop
  endfacet
  facet normal 0 0 1
    outer loop
      vertex -133.927 -80.6468 -5
      vertex -134.214 -82.6183 -5
      vertex -132.536 -82.0734 -5
    endloop
  endfacet
  facet normal 0 0 1
    outer loop
      vertex -136 -83.5 -5
      vertex -134.214 -82.6183 -5
      vertex -135.427 -81.7366 -5
    endloop
  endfacet
  facet normal -0 0 1
    outer loop
      vertex -135.427 -81.7366 -5
      vertex -134.214 -82.6183 -5
      vertex -133.927 -80.6468 -5
    endloop
  endfacet
  facet normal -0 0 1
    outer loop
      vertex -132.536 -84.9266 -5
      vertex -130.573 -85.2634 -5
      vertex -131.5 -83.5 -5
    endloop
  endfacet
  facet normal 0 0 1
    outer loop
      vertex -130.573 -85.2634 -5
      vertex -132.536 -84.9266 -5
      vertex -132.073 -86.3532 -5
    endloop
  endfacet
  facet normal 0 0 1
    outer loop
      vertex -132.536 -84.9266 -5
      vertex -133.927 -86.3532 -5
      vertex -132.073 -86.3532 -5
    endloop
  endfacet
  facet normal 0 0 1
    outer loop
      vertex -134.214 -84.3817 -5
      vertex -133.927 -86.3532 -5
      vertex -132.536 -84.9266 -5
    endloop
  endfacet
  facet normal 0 0 1
    outer loop
      vertex -134.214 -82.6183 -5
      vertex -136 -83.5 -5
      vertex -134.214 -84.3817 -5
    endloop
  endfacet
  facet normal 0 0 1
    outer loop
      vertex -134.214 -84.3817 -5
      vertex -135.427 -85.2634 -5
      vertex -133.927 -86.3532 -5
    endloop
  endfacet
  facet normal 0 0 1
    outer loop
      vertex -134.214 -84.3817 -5
      vertex -136 -83.5 -5
      vertex -135.427 -85.2634 -5
    endloop
  endfacet
  facet normal -0.587785 0.809017 0
    outer loop
      vertex -133.927 -80.6468 -6
      vertex -135.427 -81.7366 -5
      vertex -133.927 -80.6468 -5
    endloop
  endfacet
  facet normal -0.587785 0.809017 0
    outer loop
      vertex -135.427 -81.7366 -5
      vertex -133.927 -80.6468 -6
      vertex -135.427 -81.7366 -6
    endloop
  endfacet
  facet normal 0.587788 -0.809015 0
    outer loop
      vertex -132.073 -86.3532 -6
      vertex -130.573 -85.2634 -5
      vertex -132.073 -86.3532 -5
    endloop
  endfacet
  facet normal 0.587788 -0.809015 0
    outer loop
      vertex -130.573 -85.2634 -5
      vertex -132.073 -86.3532 -6
      vertex -130.573 -85.2634 -6
    endloop
  endfacet
  facet normal 0.951056 -0.309019 0
    outer loop
      vertex -130.573 -85.2634 -5
      vertex -130 -83.5 -6
      vertex -130 -83.5 -5
    endloop
  endfacet
  facet normal 0.951056 -0.309019 0
    outer loop
      vertex -130 -83.5 -6
      vertex -130.573 -85.2634 -5
      vertex -130.573 -85.2634 -6
    endloop
  endfacet
  facet normal -0.587788 -0.809015 0
    outer loop
      vertex -135.427 -85.2634 -6
      vertex -133.927 -86.3532 -5
      vertex -135.427 -85.2634 -5
    endloop
  endfacet
  facet normal -0.587788 -0.809015 -0
    outer loop
      vertex -133.927 -86.3532 -5
      vertex -135.427 -85.2634 -6
      vertex -133.927 -86.3532 -6
    endloop
  endfacet
  facet normal -0.951056 -0.309019 0
    outer loop
      vertex -135.427 -85.2634 -6
      vertex -136 -83.5 -5
      vertex -136 -83.5 -6
    endloop
  endfacet
  facet normal -0.951056 -0.309019 0
    outer loop
      vertex -136 -83.5 -5
      vertex -135.427 -85.2634 -6
      vertex -135.427 -85.2634 -5
    endloop
  endfacet
  facet normal 0.951056 0.309019 0
    outer loop
      vertex -130 70.5 -5
      vertex -130.573 72.2634 -6
      vertex -130.573 72.2634 -5
    endloop
  endfacet
  facet normal 0.951056 0.309019 0
    outer loop
      vertex -130.573 72.2634 -6
      vertex -130 70.5 -5
      vertex -130 70.5 -6
    endloop
  endfacet
  facet normal -0.951056 0.309019 0
    outer loop
      vertex -136 70.5 -6
      vertex -135.427 72.2634 -5
      vertex -135.427 72.2634 -6
    endloop
  endfacet
  facet normal -0.951056 0.309019 0
    outer loop
      vertex -135.427 72.2634 -5
      vertex -136 70.5 -6
      vertex -136 70.5 -5
    endloop
  endfacet
  facet normal 0 1 -0
    outer loop
      vertex -132.073 73.3532 -6
      vertex -133.927 73.3532 -5
      vertex -132.073 73.3532 -5
    endloop
  endfacet
  facet normal 0 1 0
    outer loop
      vertex -133.927 73.3532 -5
      vertex -132.073 73.3532 -6
      vertex -133.927 73.3532 -6
    endloop
  endfacet
  facet normal 0.587788 0.809015 -0
    outer loop
      vertex -130.573 72.2634 -6
      vertex -132.073 73.3532 -5
      vertex -130.573 72.2634 -5
    endloop
  endfacet
  facet normal 0.587788 0.809015 0
    outer loop
      vertex -132.073 73.3532 -5
      vertex -130.573 72.2634 -6
      vertex -132.073 73.3532 -6
    endloop
  endfacet
  facet normal 0 0 1
    outer loop
      vertex -131.5 70.5 -5
      vertex -130 70.5 -5
      vertex -130.573 72.2634 -5
    endloop
  endfacet
  facet normal 0 0 1
    outer loop
      vertex -130 70.5 -5
      vertex -131.5 70.5 -5
      vertex -130.573 68.7366 -5
    endloop
  endfacet
  facet normal 0 0 1
    outer loop
      vertex -132.536 71.9266 -5
      vertex -130.573 72.2634 -5
      vertex -132.073 73.3532 -5
    endloop
  endfacet
  facet normal 0 0 1
    outer loop
      vertex -130.573 72.2634 -5
      vertex -132.536 71.9266 -5
      vertex -131.5 70.5 -5
    endloop
  endfacet
  facet normal -0 0 1
    outer loop
      vertex -133.927 73.3532 -5
      vertex -132.536 71.9266 -5
      vertex -132.073 73.3532 -5
    endloop
  endfacet
  facet normal 0 0 1
    outer loop
      vertex -133.927 73.3532 -5
      vertex -134.214 71.3817 -5
      vertex -132.536 71.9266 -5
    endloop
  endfacet
  facet normal 0 0 1
    outer loop
      vertex -136 70.5 -5
      vertex -134.214 71.3817 -5
      vertex -135.427 72.2634 -5
    endloop
  endfacet
  facet normal -0 0 1
    outer loop
      vertex -135.427 72.2634 -5
      vertex -134.214 71.3817 -5
      vertex -133.927 73.3532 -5
    endloop
  endfacet
  facet normal -0 0 1
    outer loop
      vertex -132.536 69.0734 -5
      vertex -130.573 68.7366 -5
      vertex -131.5 70.5 -5
    endloop
  endfacet
  facet normal 0 0 1
    outer loop
      vertex -130.573 68.7366 -5
      vertex -132.536 69.0734 -5
      vertex -132.073 67.6468 -5
    endloop
  endfacet
  facet normal 0 0 1
    outer loop
      vertex -132.536 69.0734 -5
      vertex -133.927 67.6468 -5
      vertex -132.073 67.6468 -5
    endloop
  endfacet
  facet normal 0 0 1
    outer loop
      vertex -134.214 69.6183 -5
      vertex -133.927 67.6468 -5
      vertex -132.536 69.0734 -5
    endloop
  endfacet
  facet normal 0 0 1
    outer loop
      vertex -134.214 71.3817 -5
      vertex -136 70.5 -5
      vertex -134.214 69.6183 -5
    endloop
  endfacet
  facet normal 0 0 1
    outer loop
      vertex -134.214 69.6183 -5
      vertex -135.427 68.7366 -5
      vertex -133.927 67.6468 -5
    endloop
  endfacet
  facet normal 0 0 1
    outer loop
      vertex -134.214 69.6183 -5
      vertex -136 70.5 -5
      vertex -135.427 68.7366 -5
    endloop
  endfacet
  facet normal -0.587788 0.809015 0
    outer loop
      vertex -133.927 73.3532 -6
      vertex -135.427 72.2634 -5
      vertex -133.927 73.3532 -5
    endloop
  endfacet
  facet normal -0.587788 0.809015 0
    outer loop
      vertex -135.427 72.2634 -5
      vertex -133.927 73.3532 -6
      vertex -135.427 72.2634 -6
    endloop
  endfacet
  facet normal -0.951056 -0.309018 0
    outer loop
      vertex -135.427 68.7366 -6
      vertex -136 70.5 -5
      vertex -136 70.5 -6
    endloop
  endfacet
  facet normal -0.951056 -0.309018 0
    outer loop
      vertex -136 70.5 -5
      vertex -135.427 68.7366 -6
      vertex -135.427 68.7366 -5
    endloop
  endfacet
  facet normal 0 -1 0
    outer loop
      vertex -133.927 67.6468 -6
      vertex -132.073 67.6468 -5
      vertex -133.927 67.6468 -5
    endloop
  endfacet
  facet normal 0 -1 -0
    outer loop
      vertex -132.073 67.6468 -5
      vertex -133.927 67.6468 -6
      vertex -132.073 67.6468 -6
    endloop
  endfacet
  facet normal 0.587785 -0.809017 0
    outer loop
      vertex -132.073 67.6468 -6
      vertex -130.573 68.7366 -5
      vertex -132.073 67.6468 -5
    endloop
  endfacet
  facet normal 0.587785 -0.809017 0
    outer loop
      vertex -130.573 68.7366 -5
      vertex -132.073 67.6468 -6
      vertex -130.573 68.7366 -6
    endloop
  endfacet
  facet normal -0.587785 -0.809017 0
    outer loop
      vertex -135.427 68.7366 -6
      vertex -133.927 67.6468 -5
      vertex -135.427 68.7366 -5
    endloop
  endfacet
  facet normal -0.587785 -0.809017 -0
    outer loop
      vertex -133.927 67.6468 -5
      vertex -135.427 68.7366 -6
      vertex -133.927 67.6468 -6
    endloop
  endfacet
  facet normal 0.951056 -0.309018 0
    outer loop
      vertex -130.573 68.7366 -5
      vertex -130 70.5 -6
      vertex -130 70.5 -5
    endloop
  endfacet
  facet normal 0.951056 -0.309018 0
    outer loop
      vertex -130 70.5 -6
      vertex -130.573 68.7366 -5
      vertex -130.573 68.7366 -6
    endloop
  endfacet
  facet normal 0 0 1
    outer loop
      vertex -103.286 -81.5 -6
      vertex -130.573 -81.7366 -6
      vertex -130 -83.5 -6
    endloop
  endfacet
  facet normal 0 0 1
    outer loop
      vertex -133.927 -80.6468 -6
      vertex -129.927 -62.4365 -6
      vertex -131.427 -61.3467 -6
    endloop
  endfacet
  facet normal 0 0 1
    outer loop
      vertex -135.427 -81.7366 -6
      vertex -131.427 -61.3467 -6
      vertex -132 -59.5833 -6
    endloop
  endfacet
  facet normal 0 0 1
    outer loop
      vertex -128.073 -62.4365 -6
      vertex -132.073 -80.6468 -6
      vertex -130.573 -81.7366 -6
    endloop
  endfacet
  facet normal 0 0 1
    outer loop
      vertex -132 35.75 -6
      vertex -137 74.5 -6
      vertex -132 11.9167 -6
    endloop
  endfacet
  facet normal 0 0 1
    outer loop
      vertex -132 11.9167 -6
      vertex -137 74.5 -6
      vertex -132 -11.9167 -6
    endloop
  endfacet
  facet normal 0 0 1
    outer loop
      vertex -129.927 -62.4365 -6
      vertex -133.927 -80.6468 -6
      vertex -132.073 -80.6468 -6
    endloop
  endfacet
  facet normal 0 0 1
    outer loop
      vertex -137 -87.5 -6
      vertex -132 -11.9167 -6
      vertex -137 74.5 -6
    endloop
  endfacet
  facet normal 0 0 1
    outer loop
      vertex -131.427 -61.3467 -6
      vertex -135.427 -81.7366 -6
      vertex -133.927 -80.6468 -6
    endloop
  endfacet
  facet normal 0 0 1
    outer loop
      vertex -132 -11.9167 -6
      vertex -137 -87.5 -6
      vertex -132 -35.75 -6
    endloop
  endfacet
  facet normal 0 0 1
    outer loop
      vertex -132 -59.5833 -6
      vertex -136 -83.5 -6
      vertex -135.427 -81.7366 -6
    endloop
  endfacet
  facet normal -0 0 1
    outer loop
      vertex -126.573 -57.82 -6
      vertex -108 -58.5 -6
      vertex -126.573 -37.5134 -6
    endloop
  endfacet
  facet normal 0 0 1
    outer loop
      vertex -108 -58.5 -6
      vertex -126.573 -57.82 -6
      vertex -126 -59.5833 -6
    endloop
  endfacet
  facet normal -0 0 1
    outer loop
      vertex -128.073 -38.6032 -6
      vertex -126.573 -57.82 -6
      vertex -126.573 -37.5134 -6
    endloop
  endfacet
  facet normal 0 0 1
    outer loop
      vertex -128.073 -38.6032 -6
      vertex -128.073 -56.7302 -6
      vertex -126.573 -57.82 -6
    endloop
  endfacet
  facet normal -0 0 1
    outer loop
      vertex -129.927 -38.6032 -6
      vertex -128.073 -56.7302 -6
      vertex -128.073 -38.6032 -6
    endloop
  endfacet
  facet normal 0 0 1
    outer loop
      vertex -129.927 -38.6032 -6
      vertex -129.927 -56.7302 -6
      vertex -128.073 -56.7302 -6
    endloop
  endfacet
  facet normal 0 0 1
    outer loop
      vertex -131.427 -37.5134 -6
      vertex -129.927 -56.7302 -6
      vertex -129.927 -38.6032 -6
    endloop
  endfacet
  facet normal 0 0 1
    outer loop
      vertex -131.427 -37.5134 -6
      vertex -131.427 -57.82 -6
      vertex -129.927 -56.7302 -6
    endloop
  endfacet
  facet normal 0 0 1
    outer loop
      vertex -132 -35.75 -6
      vertex -131.427 -57.82 -6
      vertex -131.427 -37.5134 -6
    endloop
  endfacet
  facet normal 0 0 1
    outer loop
      vertex -131.427 -57.82 -6
      vertex -132 -35.75 -6
      vertex -132 -59.5833 -6
    endloop
  endfacet
  facet normal -0 0 1
    outer loop
      vertex -126.573 -13.68 -6
      vertex -126 -35.75 -6
      vertex -126 -11.9167 -6
    endloop
  endfacet
  facet normal 0 0 1
    outer loop
      vertex -126.573 -13.68 -6
      vertex -126.573 -33.9866 -6
      vertex -126 -35.75 -6
    endloop
  endfacet
  facet normal -0 0 1
    outer loop
      vertex -128.073 -14.7698 -6
      vertex -126.573 -33.9866 -6
      vertex -126.573 -13.68 -6
    endloop
  endfacet
  facet normal 0 0 1
    outer loop
      vertex -128.073 -14.7698 -6
      vertex -128.073 -32.8968 -6
      vertex -126.573 -33.9866 -6
    endloop
  endfacet
  facet normal -0 0 1
    outer loop
      vertex -129.927 -14.7698 -6
      vertex -128.073 -32.8968 -6
      vertex -128.073 -14.7698 -6
    endloop
  endfacet
  facet normal 0 0 1
    outer loop
      vertex -129.927 -14.7698 -6
      vertex -129.927 -32.8968 -6
      vertex -128.073 -32.8968 -6
    endloop
  endfacet
  facet normal 0 0 1
    outer loop
      vertex -131.427 -13.68 -6
      vertex -129.927 -32.8968 -6
      vertex -129.927 -14.7698 -6
    endloop
  endfacet
  facet normal 0 0 1
    outer loop
      vertex -131.427 -13.68 -6
      vertex -131.427 -33.9866 -6
      vertex -129.927 -32.8968 -6
    endloop
  endfacet
  facet normal 0 0 1
    outer loop
      vertex -132 -11.9167 -6
      vertex -131.427 -33.9866 -6
      vertex -131.427 -13.68 -6
    endloop
  endfacet
  facet normal 0 0 1
    outer loop
      vertex -131.427 -33.9866 -6
      vertex -132 -11.9167 -6
      vertex -132 -35.75 -6
    endloop
  endfacet
  facet normal -0 0 1
    outer loop
      vertex -126.573 10.1533 -6
      vertex -126 -11.9167 -6
      vertex -126 11.9167 -6
    endloop
  endfacet
  facet normal 0 0 1
    outer loop
      vertex -126.573 10.1533 -6
      vertex -126.573 -10.1533 -6
      vertex -126 -11.9167 -6
    endloop
  endfacet
  facet normal -0 0 1
    outer loop
      vertex -128.073 9.0635 -6
      vertex -126.573 -10.1533 -6
      vertex -126.573 10.1533 -6
    endloop
  endfacet
  facet normal 0 0 1
    outer loop
      vertex -128.073 9.0635 -6
      vertex -128.073 -9.0635 -6
      vertex -126.573 -10.1533 -6
    endloop
  endfacet
  facet normal -0 0 1
    outer loop
      vertex -129.927 9.0635 -6
      vertex -128.073 -9.0635 -6
      vertex -128.073 9.0635 -6
    endloop
  endfacet
  facet normal 0 0 1
    outer loop
      vertex -129.927 9.0635 -6
      vertex -129.927 -9.0635 -6
      vertex -128.073 -9.0635 -6
    endloop
  endfacet
  facet normal 0 0 1
    outer loop
      vertex -131.427 10.1533 -6
      vertex -129.927 -9.0635 -6
      vertex -129.927 9.0635 -6
    endloop
  endfacet
  facet normal 0 0 1
    outer loop
      vertex -131.427 10.1533 -6
      vertex -131.427 -10.1533 -6
      vertex -129.927 -9.0635 -6
    endloop
  endfacet
  facet normal 0 0 1
    outer loop
      vertex -132 11.9167 -6
      vertex -131.427 -10.1533 -6
      vertex -131.427 10.1533 -6
    endloop
  endfacet
  facet normal 0 0 1
    outer loop
      vertex -131.427 -10.1533 -6
      vertex -132 11.9167 -6
      vertex -132 -11.9167 -6
    endloop
  endfacet
  facet normal -0 0 1
    outer loop
      vertex -126.573 33.9866 -6
      vertex -126 11.9167 -6
      vertex -126 35.75 -6
    endloop
  endfacet
  facet normal 0 0 1
    outer loop
      vertex -126.573 33.9866 -6
      vertex -126.573 13.68 -6
      vertex -126 11.9167 -6
    endloop
  endfacet
  facet normal -0 0 1
    outer loop
      vertex -128.073 32.8968 -6
      vertex -126.573 13.68 -6
      vertex -126.573 33.9866 -6
    endloop
  endfacet
  facet normal 0 0 1
    outer loop
      vertex -128.073 32.8968 -6
      vertex -128.073 14.7698 -6
      vertex -126.573 13.68 -6
    endloop
  endfacet
  facet normal -0 0 1
    outer loop
      vertex -129.927 32.8968 -6
      vertex -128.073 14.7698 -6
      vertex -128.073 32.8968 -6
    endloop
  endfacet
  facet normal 0 0 1
    outer loop
      vertex -129.927 32.8968 -6
      vertex -129.927 14.7698 -6
      vertex -128.073 14.7698 -6
    endloop
  endfacet
  facet normal 0 0 1
    outer loop
      vertex -131.427 33.9866 -6
      vertex -129.927 14.7698 -6
      vertex -129.927 32.8968 -6
    endloop
  endfacet
  facet normal 0 0 1
    outer loop
      vertex -131.427 33.9866 -6
      vertex -131.427 13.68 -6
      vertex -129.927 14.7698 -6
    endloop
  endfacet
  facet normal 0 0 1
    outer loop
      vertex -132 35.75 -6
      vertex -131.427 13.68 -6
      vertex -131.427 33.9866 -6
    endloop
  endfacet
  facet normal 0 0 1
    outer loop
      vertex -131.427 13.68 -6
      vertex -132 35.75 -6
      vertex -132 11.9167 -6
    endloop
  endfacet
  facet normal 0 0 1
    outer loop
      vertex -126.573 37.5134 -6
      vertex -108 58.5 -6
      vertex -126.573 57.82 -6
    endloop
  endfacet
  facet normal 0 0 1
    outer loop
      vertex -108 58.5 -6
      vertex -126.573 37.5134 -6
      vertex -126 35.75 -6
    endloop
  endfacet
  facet normal -0 0 1
    outer loop
      vertex -128.073 56.7302 -6
      vertex -126.573 37.5134 -6
      vertex -126.573 57.82 -6
    endloop
  endfacet
  facet normal 0 0 1
    outer loop
      vertex -128.073 56.7302 -6
      vertex -128.073 38.6032 -6
      vertex -126.573 37.5134 -6
    endloop
  endfacet
  facet normal -0 0 1
    outer loop
      vertex -129.927 56.7302 -6
      vertex -128.073 38.6032 -6
      vertex -128.073 56.7302 -6
    endloop
  endfacet
  facet normal 0 0 1
    outer loop
      vertex -129.927 56.7302 -6
      vertex -129.927 38.6032 -6
      vertex -128.073 38.6032 -6
    endloop
  endfacet
  facet normal 0 0 1
    outer loop
      vertex -131.427 57.82 -6
      vertex -129.927 38.6032 -6
      vertex -129.927 56.7302 -6
    endloop
  endfacet
  facet normal 0 0 1
    outer loop
      vertex -131.427 57.82 -6
      vertex -131.427 37.5134 -6
      vertex -129.927 38.6032 -6
    endloop
  endfacet
  facet normal 0 0 1
    outer loop
      vertex -132 59.5833 -6
      vertex -131.427 37.5134 -6
      vertex -131.427 57.82 -6
    endloop
  endfacet
  facet normal 0 0 1
    outer loop
      vertex -131.427 37.5134 -6
      vertex -132 59.5833 -6
      vertex -132 35.75 -6
    endloop
  endfacet
  facet normal 0 0 1
    outer loop
      vertex 4 74.5 -6
      vertex -108 58.5 -6
      vertex 4 58.5 -6
    endloop
  endfacet
  facet normal 0 0 1
    outer loop
      vertex -126.573 57.82 -6
      vertex -108 58.5 -6
      vertex -126 59.5833 -6
    endloop
  endfacet
  facet normal -0 0 1
    outer loop
      vertex -130.573 72.2634 -6
      vertex -108 58.5 -6
      vertex 4 74.5 -6
    endloop
  endfacet
  facet normal 0 0 1
    outer loop
      vertex -108 58.5 -6
      vertex -126.573 61.3467 -6
      vertex -126 59.5833 -6
    endloop
  endfacet
  facet normal 0 0 1
    outer loop
      vertex -108 58.5 -6
      vertex -130 70.5 -6
      vertex -126.573 61.3467 -6
    endloop
  endfacet
  facet normal 0 0 1
    outer loop
      vertex -126.573 61.3467 -6
      vertex -130 70.5 -6
      vertex -128.073 62.4365 -6
    endloop
  endfacet
  facet normal -0 0 1
    outer loop
      vertex -130.573 68.7366 -6
      vertex -128.073 62.4365 -6
      vertex -130 70.5 -6
    endloop
  endfacet
  facet normal 0 0 1
    outer loop
      vertex -108 58.5 -6
      vertex -130.573 72.2634 -6
      vertex -130 70.5 -6
    endloop
  endfacet
  facet normal 0 0 1
    outer loop
      vertex 4 74.5 -6
      vertex -132.073 73.3532 -6
      vertex -130.573 72.2634 -6
    endloop
  endfacet
  facet normal -0 0 1
    outer loop
      vertex -137 74.5 -6
      vertex -132.073 73.3532 -6
      vertex 4 74.5 -6
    endloop
  endfacet
  facet normal 0 -0 1
    outer loop
      vertex -136 -83.5 -6
      vertex -132 -35.75 -6
      vertex -137 -87.5 -6
    endloop
  endfacet
  facet normal 0 0 1
    outer loop
      vertex -135.427 72.2634 -6
      vertex -137 74.5 -6
      vertex -136 70.5 -6
    endloop
  endfacet
  facet normal 0 0 1
    outer loop
      vertex -133.927 73.3532 -6
      vertex -137 74.5 -6
      vertex -135.427 72.2634 -6
    endloop
  endfacet
  facet normal 0 0 1
    outer loop
      vertex -132.073 73.3532 -6
      vertex -137 74.5 -6
      vertex -133.927 73.3532 -6
    endloop
  endfacet
  facet normal 0 0 1
    outer loop
      vertex -128.073 62.4365 -6
      vertex -130.573 68.7366 -6
      vertex -129.927 62.4365 -6
    endloop
  endfacet
  facet normal -0 0 1
    outer loop
      vertex -132.073 67.6468 -6
      vertex -129.927 62.4365 -6
      vertex -130.573 68.7366 -6
    endloop
  endfacet
  facet normal 0 0 1
    outer loop
      vertex -129.927 62.4365 -6
      vertex -132.073 67.6468 -6
      vertex -131.427 61.3467 -6
    endloop
  endfacet
  facet normal 0 0 1
    outer loop
      vertex -135.427 68.7366 -6
      vertex -132 59.5833 -6
      vertex -133.927 67.6468 -6
    endloop
  endfacet
  facet normal 0 0 1
    outer loop
      vertex -132 59.5833 -6
      vertex -135.427 68.7366 -6
      vertex -132 35.75 -6
    endloop
  endfacet
  facet normal 0 0 1
    outer loop
      vertex -136 70.5 -6
      vertex -132 35.75 -6
      vertex -135.427 68.7366 -6
    endloop
  endfacet
  facet normal 0 0 1
    outer loop
      vertex -137 74.5 -6
      vertex -132 35.75 -6
      vertex -136 70.5 -6
    endloop
  endfacet
  facet normal 0 0 1
    outer loop
      vertex -131.427 61.3467 -6
      vertex -133.927 67.6468 -6
      vertex -132 59.5833 -6
    endloop
  endfacet
  facet normal -0 0 1
    outer loop
      vertex -133.927 67.6468 -6
      vertex -131.427 61.3467 -6
      vertex -132.073 67.6468 -6
    endloop
  endfacet
  facet normal 0 0 1
    outer loop
      vertex 4 -58.5 -6
      vertex 3 -81.5 -6
      vertex 4 -87.5 -6
    endloop
  endfacet
  facet normal 0 0 1
    outer loop
      vertex 4 -58.5 -6
      vertex 2.42705 -79.7366 -6
      vertex 3 -81.5 -6
    endloop
  endfacet
  facet normal 0 0 1
    outer loop
      vertex 4 -58.5 -6
      vertex 0.927051 -78.6468 -6
      vertex 2.42705 -79.7366 -6
    endloop
  endfacet
  facet normal 0 0 1
    outer loop
      vertex 4 -58.5 -6
      vertex -0.927051 -78.6468 -6
      vertex 0.927051 -78.6468 -6
    endloop
  endfacet
  facet normal 0 0 1
    outer loop
      vertex 4 -58.5 -6
      vertex -2.42705 -79.7366 -6
      vertex -0.927051 -78.6468 -6
    endloop
  endfacet
  facet normal 0 0 1
    outer loop
      vertex -31.0015 -79.7366 -6
      vertex -2.42705 -79.7366 -6
      vertex 4 -58.5 -6
    endloop
  endfacet
  facet normal 0 0 1
    outer loop
      vertex -2.42705 -79.7366 -6
      vertex -31.0015 -79.7366 -6
      vertex -3 -81.5 -6
    endloop
  endfacet
  facet normal 0 0 1
    outer loop
      vertex -3 -81.5 -6
      vertex -31.0015 -79.7366 -6
      vertex -30.4286 -81.5 -6
    endloop
  endfacet
  facet normal 0 0 1
    outer loop
      vertex 4 -58.5 -6
      vertex -32.5015 -78.6468 -6
      vertex -31.0015 -79.7366 -6
    endloop
  endfacet
  facet normal 0 0 1
    outer loop
      vertex 4 -58.5 -6
      vertex -34.3556 -78.6468 -6
      vertex -32.5015 -78.6468 -6
    endloop
  endfacet
  facet normal 0 0 1
    outer loop
      vertex -35.8556 -79.7366 -6
      vertex -63.8571 -81.5 -6
      vertex -36.4286 -81.5 -6
    endloop
  endfacet
  facet normal 0 0 1
    outer loop
      vertex -64.4301 -79.7366 -6
      vertex -35.8556 -79.7366 -6
      vertex -34.3556 -78.6468 -6
    endloop
  endfacet
  facet normal 0 0 1
    outer loop
      vertex -65.9301 -78.6468 -6
      vertex -34.3556 -78.6468 -6
      vertex 4 -58.5 -6
    endloop
  endfacet
  facet normal 0 0 1
    outer loop
      vertex -35.8556 -79.7366 -6
      vertex -64.4301 -79.7366 -6
      vertex -63.8571 -81.5 -6
    endloop
  endfacet
  facet normal 0 0 1
    outer loop
      vertex -34.3556 -78.6468 -6
      vertex -65.9301 -78.6468 -6
      vertex -64.4301 -79.7366 -6
    endloop
  endfacet
  facet normal -0 0 1
    outer loop
      vertex -108 -58.5 -6
      vertex -65.9301 -78.6468 -6
      vertex 4 -58.5 -6
    endloop
  endfacet
  facet normal 0 0 1
    outer loop
      vertex -69.2842 -79.7366 -6
      vertex -97.2857 -81.5 -6
      vertex -69.8571 -81.5 -6
    endloop
  endfacet
  facet normal 0 0 1
    outer loop
      vertex -108 -58.5 -6
      vertex -69.2842 -79.7366 -6
      vertex -67.7842 -78.6468 -6
    endloop
  endfacet
  facet normal 0 0 1
    outer loop
      vertex -65.9301 -78.6468 -6
      vertex -108 -58.5 -6
      vertex -67.7842 -78.6468 -6
    endloop
  endfacet
  facet normal 0 0 1
    outer loop
      vertex -69.2842 -79.7366 -6
      vertex -97.8587 -79.7366 -6
      vertex -97.2857 -81.5 -6
    endloop
  endfacet
  facet normal 0 0 1
    outer loop
      vertex -69.2842 -79.7366 -6
      vertex -108 -58.5 -6
      vertex -97.8587 -79.7366 -6
    endloop
  endfacet
  facet normal 0 0 1
    outer loop
      vertex -97.8587 -79.7366 -6
      vertex -108 -58.5 -6
      vertex -99.3587 -78.6468 -6
    endloop
  endfacet
  facet normal -0 0 1
    outer loop
      vertex -126.573 -61.3467 -6
      vertex -102.713 -79.7366 -6
      vertex -108 -58.5 -6
    endloop
  endfacet
  facet normal 0 0 1
    outer loop
      vertex -101.213 -78.6468 -6
      vertex -108 -58.5 -6
      vertex -102.713 -79.7366 -6
    endloop
  endfacet
  facet normal 0 0 1
    outer loop
      vertex -99.3587 -78.6468 -6
      vertex -108 -58.5 -6
      vertex -101.213 -78.6468 -6
    endloop
  endfacet
  facet normal -0 0 1
    outer loop
      vertex 2.42705 -83.2634 -6
      vertex 4 -87.5 -6
      vertex 3 -81.5 -6
    endloop
  endfacet
  facet normal -0 0 1
    outer loop
      vertex 0.927051 -84.3532 -6
      vertex 4 -87.5 -6
      vertex 2.42705 -83.2634 -6
    endloop
  endfacet
  facet normal -0 0 1
    outer loop
      vertex -0.927051 -84.3532 -6
      vertex 4 -87.5 -6
      vertex 0.927051 -84.3532 -6
    endloop
  endfacet
  facet normal -0 0 1
    outer loop
      vertex -30.4286 -81.5 -6
      vertex -2.42705 -83.2634 -6
      vertex -3 -81.5 -6
    endloop
  endfacet
  facet normal 0 0 1
    outer loop
      vertex -31.0015 -83.2634 -6
      vertex -2.42705 -83.2634 -6
      vertex -30.4286 -81.5 -6
    endloop
  endfacet
  facet normal 0 0 1
    outer loop
      vertex -2.42705 -83.2634 -6
      vertex -31.0015 -83.2634 -6
      vertex -0.927051 -84.3532 -6
    endloop
  endfacet
  facet normal 0 0 1
    outer loop
      vertex -32.5015 -84.3532 -6
      vertex -0.927051 -84.3532 -6
      vertex -31.0015 -83.2634 -6
    endloop
  endfacet
  facet normal 0 0 1
    outer loop
      vertex -0.927051 -84.3532 -6
      vertex -32.5015 -84.3532 -6
      vertex 4 -87.5 -6
    endloop
  endfacet
  facet normal -0 0 1
    outer loop
      vertex -34.3556 -84.3532 -6
      vertex 4 -87.5 -6
      vertex -32.5015 -84.3532 -6
    endloop
  endfacet
  facet normal -0 0 1
    outer loop
      vertex -63.8571 -81.5 -6
      vertex -35.8556 -83.2634 -6
      vertex -36.4286 -81.5 -6
    endloop
  endfacet
  facet normal 0 0 1
    outer loop
      vertex -64.4301 -83.2634 -6
      vertex -35.8556 -83.2634 -6
      vertex -63.8571 -81.5 -6
    endloop
  endfacet
  facet normal 0 0 1
    outer loop
      vertex -35.8556 -83.2634 -6
      vertex -64.4301 -83.2634 -6
      vertex -34.3556 -84.3532 -6
    endloop
  endfacet
  facet normal 0 0 1
    outer loop
      vertex -65.9301 -84.3532 -6
      vertex -34.3556 -84.3532 -6
      vertex -64.4301 -83.2634 -6
    endloop
  endfacet
  facet normal 0 0 1
    outer loop
      vertex -34.3556 -84.3532 -6
      vertex -65.9301 -84.3532 -6
      vertex 4 -87.5 -6
    endloop
  endfacet
  facet normal -0 0 1
    outer loop
      vertex -67.7842 -84.3532 -6
      vertex 4 -87.5 -6
      vertex -65.9301 -84.3532 -6
    endloop
  endfacet
  facet normal -0 0 1
    outer loop
      vertex -97.2857 -81.5 -6
      vertex -69.2842 -83.2634 -6
      vertex -69.8571 -81.5 -6
    endloop
  endfacet
  facet normal 0 0 1
    outer loop
      vertex -97.8587 -83.2634 -6
      vertex -69.2842 -83.2634 -6
      vertex -97.2857 -81.5 -6
    endloop
  endfacet
  facet normal 0 0 1
    outer loop
      vertex -69.2842 -83.2634 -6
      vertex -97.8587 -83.2634 -6
      vertex -67.7842 -84.3532 -6
    endloop
  endfacet
  facet normal 0 0 1
    outer loop
      vertex -99.3587 -84.3532 -6
      vertex -67.7842 -84.3532 -6
      vertex -97.8587 -83.2634 -6
    endloop
  endfacet
  facet normal 0 0 1
    outer loop
      vertex -137 -87.5 -6
      vertex -67.7842 -84.3532 -6
      vertex -99.3587 -84.3532 -6
    endloop
  endfacet
  facet normal 0 0 1
    outer loop
      vertex -137 -87.5 -6
      vertex -99.3587 -84.3532 -6
      vertex -101.213 -84.3532 -6
    endloop
  endfacet
  facet normal 0 0 1
    outer loop
      vertex -126 11.9167 -6
      vertex -108 58.5 -6
      vertex -126 35.75 -6
    endloop
  endfacet
  facet normal 0 0 1
    outer loop
      vertex -108 58.5 -6
      vertex -126 11.9167 -6
      vertex -108 -58.5 -6
    endloop
  endfacet
  facet normal -0 0 1
    outer loop
      vertex -126 -11.9167 -6
      vertex -108 -58.5 -6
      vertex -126 11.9167 -6
    endloop
  endfacet
  facet normal -0 0 1
    outer loop
      vertex -126 -35.75 -6
      vertex -108 -58.5 -6
      vertex -126 -11.9167 -6
    endloop
  endfacet
  facet normal -0 0 1
    outer loop
      vertex -126.573 -37.5134 -6
      vertex -108 -58.5 -6
      vertex -126 -35.75 -6
    endloop
  endfacet
  facet normal 0 0 1
    outer loop
      vertex -126.573 -61.3467 -6
      vertex -108 -58.5 -6
      vertex -126 -59.5833 -6
    endloop
  endfacet
  facet normal 0 0 1
    outer loop
      vertex -130.573 -81.7366 -6
      vertex -102.713 -79.7366 -6
      vertex -126.573 -61.3467 -6
    endloop
  endfacet
  facet normal 0 0 1
    outer loop
      vertex -130.573 -81.7366 -6
      vertex -103.286 -81.5 -6
      vertex -102.713 -79.7366 -6
    endloop
  endfacet
  facet normal 0 0 1
    outer loop
      vertex -130.573 -81.7366 -6
      vertex -126.573 -61.3467 -6
      vertex -128.073 -62.4365 -6
    endloop
  endfacet
  facet normal 0 0 1
    outer loop
      vertex -132.073 -80.6468 -6
      vertex -128.073 -62.4365 -6
      vertex -129.927 -62.4365 -6
    endloop
  endfacet
  facet normal 0 0 1
    outer loop
      vertex -103.286 -81.5 -6
      vertex -130 -83.5 -6
      vertex -102.713 -83.2634 -6
    endloop
  endfacet
  facet normal 0 0 1
    outer loop
      vertex -130.573 -85.2634 -6
      vertex -102.713 -83.2634 -6
      vertex -130 -83.5 -6
    endloop
  endfacet
  facet normal 0 0 1
    outer loop
      vertex -102.713 -83.2634 -6
      vertex -130.573 -85.2634 -6
      vertex -101.213 -84.3532 -6
    endloop
  endfacet
  facet normal 0 0 1
    outer loop
      vertex -132.073 -86.3532 -6
      vertex -101.213 -84.3532 -6
      vertex -130.573 -85.2634 -6
    endloop
  endfacet
  facet normal 0 0 1
    outer loop
      vertex -137 -87.5 -6
      vertex -101.213 -84.3532 -6
      vertex -132.073 -86.3532 -6
    endloop
  endfacet
  facet normal 0 0 1
    outer loop
      vertex -137 -87.5 -6
      vertex -132.073 -86.3532 -6
      vertex -133.927 -86.3532 -6
    endloop
  endfacet
  facet normal 0 0 1
    outer loop
      vertex -67.7842 -84.3532 -6
      vertex -137 -87.5 -6
      vertex 4 -87.5 -6
    endloop
  endfacet
  facet normal 0 0 1
    outer loop
      vertex -135.427 -85.2634 -6
      vertex -137 -87.5 -6
      vertex -133.927 -86.3532 -6
    endloop
  endfacet
  facet normal 0 0 1
    outer loop
      vertex -136 -83.5 -6
      vertex -137 -87.5 -6
      vertex -135.427 -85.2634 -6
    endloop
  endfacet
  facet normal 0 0 1
    outer loop
      vertex -132 -35.75 -6
      vertex -136 -83.5 -6
      vertex -132 -59.5833 -6
    endloop
  endfacet
  facet normal 0 1 0
    outer loop
      vertex 4 76.5 -4
      vertex 4 76.5 -8
      vertex 0 76.5 -4
    endloop
  endfacet
  facet normal 0 1 -0
    outer loop
      vertex 0 76.5 -4
      vertex -139 76.5 0
      vertex 0 76.5 0
    endloop
  endfacet
  facet normal 0 1 0
    outer loop
      vertex -139 76.5 -8
      vertex 0 76.5 -4
      vertex 4 76.5 -8
    endloop
  endfacet
  facet normal 0 1 0
    outer loop
      vertex 0 76.5 -4
      vertex -139 76.5 -8
      vertex -139 76.5 0
    endloop
  endfacet
  facet normal -1 0 0
    outer loop
      vertex -139 -89.5 -8
      vertex -139 76.5 0
      vertex -139 76.5 -8
    endloop
  endfacet
  facet normal -1 -0 0
    outer loop
      vertex -139 76.5 0
      vertex -139 -89.5 -8
      vertex -139 -89.5 0
    endloop
  endfacet
  facet normal 0 -1 0
    outer loop
      vertex -139 -89.5 0
      vertex 0 -89.5 -4
      vertex 0 -89.5 0
    endloop
  endfacet
  facet normal 0 -1 0
    outer loop
      vertex -139 -89.5 -8
      vertex 0 -89.5 -4
      vertex -139 -89.5 0
    endloop
  endfacet
  facet normal 0 -1 0
    outer loop
      vertex 4 -89.5 -8
      vertex 0 -89.5 -4
      vertex -139 -89.5 -8
    endloop
  endfacet
  facet normal 0 -1 0
    outer loop
      vertex 0 -89.5 -4
      vertex 4 -89.5 -8
      vertex 4 -89.5 -4
    endloop
  endfacet
  facet normal 1 -0 0
    outer loop
      vertex -108 -58.5 -6
      vertex -108 58.5 -8
      vertex -108 58.5 -6
    endloop
  endfacet
  facet normal 1 0 0
    outer loop
      vertex -108 58.5 -8
      vertex -108 -58.5 -6
      vertex -108 -58.5 -8
    endloop
  endfacet
  facet normal 0 -1 0
    outer loop
      vertex -108 58.5 -8
      vertex 4 58.5 -6
      vertex -108 58.5 -6
    endloop
  endfacet
  facet normal 0 -1 -0
    outer loop
      vertex 4 58.5 -6
      vertex -108 58.5 -8
      vertex 4 58.5 -8
    endloop
  endfacet
  facet normal 0 1 -0
    outer loop
      vertex 4 -58.5 -8
      vertex -108 -58.5 -6
      vertex 4 -58.5 -6
    endloop
  endfacet
  facet normal 0 1 0
    outer loop
      vertex -108 -58.5 -6
      vertex 4 -58.5 -8
      vertex -108 -58.5 -8
    endloop
  endfacet
  facet normal 0 0 1
    outer loop
      vertex 0 76.5 0
      vertex -137 74.5 0
      vertex 0 74.5 0
    endloop
  endfacet
  facet normal 0 0 1
    outer loop
      vertex -137 74.5 0
      vertex -139 76.5 0
      vertex -137 -87.5 0
    endloop
  endfacet
  facet normal -0 0 1
    outer loop
      vertex -139 76.5 0
      vertex -137 74.5 0
      vertex 0 76.5 0
    endloop
  endfacet
  facet normal -0 0 1
    outer loop
      vertex -137 -87.5 0
      vertex 0 -89.5 0
      vertex 0 -87.5 0
    endloop
  endfacet
  facet normal 0 0 1
    outer loop
      vertex -137 -87.5 0
      vertex -139 -89.5 0
      vertex 0 -89.5 0
    endloop
  endfacet
  facet normal 0 0 1
    outer loop
      vertex -139 -89.5 0
      vertex -137 -87.5 0
      vertex -139 76.5 0
    endloop
  endfacet
  facet normal 1 -0 0
    outer loop
      vertex -137 -87.5 0
      vertex -137 74.5 -6
      vertex -137 74.5 0
    endloop
  endfacet
  facet normal 1 0 0
    outer loop
      vertex -137 74.5 -6
      vertex -137 -87.5 0
      vertex -137 -87.5 -6
    endloop
  endfacet
  facet normal 0 -1 0
    outer loop
      vertex -137 74.5 0
      vertex 0 74.5 -4
      vertex 0 74.5 0
    endloop
  endfacet
  facet normal 0 -1 0
    outer loop
      vertex -137 74.5 -6
      vertex 0 74.5 -4
      vertex -137 74.5 0
    endloop
  endfacet
  facet normal 0 -1 0
    outer loop
      vertex 4 74.5 -6
      vertex 0 74.5 -4
      vertex -137 74.5 -6
    endloop
  endfacet
  facet normal 0 -1 0
    outer loop
      vertex 0 74.5 -4
      vertex 4 74.5 -6
      vertex 4 74.5 -4
    endloop
  endfacet
  facet normal 0 1 0
    outer loop
      vertex 4 -87.5 -4
      vertex 4 -87.5 -6
      vertex 0 -87.5 -4
    endloop
  endfacet
  facet normal 0 1 -0
    outer loop
      vertex 0 -87.5 -4
      vertex -137 -87.5 0
      vertex 0 -87.5 0
    endloop
  endfacet
  facet normal 0 1 0
    outer loop
      vertex -137 -87.5 -6
      vertex 0 -87.5 -4
      vertex 4 -87.5 -6
    endloop
  endfacet
  facet normal 0 1 0
    outer loop
      vertex 0 -87.5 -4
      vertex -137 -87.5 -6
      vertex -137 -87.5 0
    endloop
  endfacet
  facet normal -0.809018 -0.587784 0
    outer loop
      vertex -131.5 -83.5 -8
      vertex -132.536 -82.0734 -5
      vertex -132.536 -82.0734 -8
    endloop
  endfacet
  facet normal -0.809018 -0.587784 0
    outer loop
      vertex -132.536 -82.0734 -5
      vertex -131.5 -83.5 -8
      vertex -131.5 -83.5 -5
    endloop
  endfacet
  facet normal 1 -0 0
    outer loop
      vertex -134.214 -84.3817 -5
      vertex -134.214 -82.6183 -8
      vertex -134.214 -82.6183 -5
    endloop
  endfacet
  facet normal 1 0 0
    outer loop
      vertex -134.214 -82.6183 -8
      vertex -134.214 -84.3817 -5
      vertex -134.214 -84.3817 -8
    endloop
  endfacet
  facet normal 0.309015 -0.951057 0
    outer loop
      vertex -134.214 -82.6183 -8
      vertex -132.536 -82.0734 -5
      vertex -134.214 -82.6183 -5
    endloop
  endfacet
  facet normal 0.309015 -0.951057 0
    outer loop
      vertex -132.536 -82.0734 -5
      vertex -134.214 -82.6183 -8
      vertex -132.536 -82.0734 -8
    endloop
  endfacet
  facet normal -0.809018 0.587784 0
    outer loop
      vertex -132.536 -84.9266 -8
      vertex -131.5 -83.5 -5
      vertex -131.5 -83.5 -8
    endloop
  endfacet
  facet normal -0.809018 0.587784 0
    outer loop
      vertex -131.5 -83.5 -5
      vertex -132.536 -84.9266 -8
      vertex -132.536 -84.9266 -5
    endloop
  endfacet
  facet normal 0.309015 0.951057 -0
    outer loop
      vertex -132.536 -84.9266 -8
      vertex -134.214 -84.3817 -5
      vertex -132.536 -84.9266 -5
    endloop
  endfacet
  facet normal 0.309015 0.951057 0
    outer loop
      vertex -134.214 -84.3817 -5
      vertex -132.536 -84.9266 -8
      vertex -134.214 -84.3817 -8
    endloop
  endfacet
  facet normal -0.809018 -0.587784 0
    outer loop
      vertex -131.5 70.5 -8
      vertex -132.536 71.9266 -5
      vertex -132.536 71.9266 -8
    endloop
  endfacet
  facet normal -0.809018 -0.587784 0
    outer loop
      vertex -132.536 71.9266 -5
      vertex -131.5 70.5 -8
      vertex -131.5 70.5 -5
    endloop
  endfacet
  facet normal 1 -0 0
    outer loop
      vertex -134.214 69.6183 -5
      vertex -134.214 71.3817 -8
      vertex -134.214 71.3817 -5
    endloop
  endfacet
  facet normal 1 0 0
    outer loop
      vertex -134.214 71.3817 -8
      vertex -134.214 69.6183 -5
      vertex -134.214 69.6183 -8
    endloop
  endfacet
  facet normal 0.309015 -0.951057 0
    outer loop
      vertex -134.214 71.3817 -8
      vertex -132.536 71.9266 -5
      vertex -134.214 71.3817 -5
    endloop
  endfacet
  facet normal 0.309015 -0.951057 0
    outer loop
      vertex -132.536 71.9266 -5
      vertex -134.214 71.3817 -8
      vertex -132.536 71.9266 -8
    endloop
  endfacet
  facet normal 0.309015 0.951057 -0
    outer loop
      vertex -132.536 69.0734 -8
      vertex -134.214 69.6183 -5
      vertex -132.536 69.0734 -5
    endloop
  endfacet
  facet normal 0.309015 0.951057 0
    outer loop
      vertex -134.214 69.6183 -5
      vertex -132.536 69.0734 -8
      vertex -134.214 69.6183 -8
    endloop
  endfacet
  facet normal -0.809018 0.587784 0
    outer loop
      vertex -132.536 69.0734 -8
      vertex -131.5 70.5 -5
      vertex -131.5 70.5 -8
    endloop
  endfacet
  facet normal -0.809018 0.587784 0
    outer loop
      vertex -131.5 70.5 -5
      vertex -132.536 69.0734 -8
      vertex -132.536 69.0734 -5
    endloop
  endfacet
  facet normal 1 -0 0
    outer loop
      vertex 0 -89.5 0
      vertex 0 -87.5 -4
      vertex 0 -87.5 0
    endloop
  endfacet
  facet normal 1 0 0
    outer loop
      vertex 0 -87.5 -4
      vertex 0 -89.5 0
      vertex 0 -89.5 -4
    endloop
  endfacet
  facet normal 1 -0 0
    outer loop
      vertex 0 74.5 0
      vertex 0 76.5 -4
      vertex 0 76.5 0
    endloop
  endfacet
  facet normal 1 0 0
    outer loop
      vertex 0 76.5 -4
      vertex 0 74.5 0
      vertex 0 74.5 -4
    endloop
  endfacet
  facet normal -0 0 1
    outer loop
      vertex 0 76.5 -4
      vertex 4 74.5 -4
      vertex 4 76.5 -4
    endloop
  endfacet
  facet normal 0 0 1
    outer loop
      vertex 4 74.5 -4
      vertex 0 76.5 -4
      vertex 0 74.5 -4
    endloop
  endfacet
  facet normal -0 0 1
    outer loop
      vertex 0 -87.5 -4
      vertex 4 -89.5 -4
      vertex 4 -87.5 -4
    endloop
  endfacet
  facet normal 0 0 1
    outer loop
      vertex 4 -89.5 -4
      vertex 0 -87.5 -4
      vertex 0 -89.5 -4
    endloop
  endfacet
  facet normal 1 0 0
    outer loop
      vertex 4 74.5 -6
      vertex 4 76.5 -4
      vertex 4 74.5 -4
    endloop
  endfacet
  facet normal 1 0 0
    outer loop
      vertex 4 76.5 -4
      vertex 4 74.5 -6
      vertex 4 76.5 -8
    endloop
  endfacet
  facet normal 1 0 0
    outer loop
      vertex 4 58.5 -8
      vertex 4 74.5 -6
      vertex 4 58.5 -6
    endloop
  endfacet
  facet normal 1 0 0
    outer loop
      vertex 4 74.5 -6
      vertex 4 58.5 -8
      vertex 4 76.5 -8
    endloop
  endfacet
  facet normal 1 0 0
    outer loop
      vertex 4 -87.5 -4
      vertex 4 -89.5 -4
      vertex 4 -87.5 -6
    endloop
  endfacet
  facet normal 1 -0 0
    outer loop
      vertex 4 -87.5 -6
      vertex 4 -58.5 -8
      vertex 4 -58.5 -6
    endloop
  endfacet
  facet normal 1 0 0
    outer loop
      vertex 4 -87.5 -6
      vertex 4 -89.5 -8
      vertex 4 -58.5 -8
    endloop
  endfacet
  facet normal 1 0 0
    outer loop
      vertex 4 -89.5 -8
      vertex 4 -87.5 -6
      vertex 4 -89.5 -4
    endloop
  endfacet
endsolid OpenSCAD_Model
