solid OpenSCAD_Model
  facet normal 0 0 -1
    outer loop
      vertex -75.8 78.5 -8
      vertex 75.8 97.5 -8
      vertex 75.8 78.5 -8
    endloop
  endfacet
  facet normal -0 0 -1
    outer loop
      vertex 75.8 97.5 -8
      vertex -75.8 78.5 -8
      vertex -75.8 97.5 -8
    endloop
  endfacet
  facet normal -0 0 1
    outer loop
      vertex -79.8 95.5 -6
      vertex 79.8 94.5 -6
      vertex 79.8 95.5 -6
    endloop
  endfacet
  facet normal 0 0 1
    outer loop
      vertex 79.8 94.5 -6
      vertex -79.8 95.5 -6
      vertex -79.8 94.5 -6
    endloop
  endfacet
  facet normal -0 0 1
    outer loop
      vertex -79.8 92.5 -6
      vertex 79.8 78.5 -6
      vertex 79.8 92.5 -6
    endloop
  endfacet
  facet normal 0 0 1
    outer loop
      vertex 79.8 78.5 -6
      vertex -79.8 92.5 -6
      vertex -79.8 78.5 -6
    endloop
  endfacet
  facet normal 0 1 -0
    outer loop
      vertex 75.8 97.5 -8
      vertex -75.8 97.5 -6.79999
      vertex 75.8 97.5 -6.79999
    endloop
  endfacet
  facet normal 0 1 0
    outer loop
      vertex -75.8 97.5 -6.79999
      vertex 75.8 97.5 -8
      vertex -75.8 97.5 -8
    endloop
  endfacet
  facet normal 0 1 0
    outer loop
      vertex 75.8 97.5 -6.79999
      vertex 79.8 97.5 -2.79999
      vertex 79.8 97.5 -6.79999
    endloop
  endfacet
  facet normal 0 1 0
    outer loop
      vertex 79.8 97.5 -2.79999
      vertex 75.8 97.5 -6.79999
      vertex -79.8 97.5 -2.79999
    endloop
  endfacet
  facet normal 0 1 -0
    outer loop
      vertex -75.8 97.5 -6.79999
      vertex -79.8 97.5 -2.79999
      vertex 75.8 97.5 -6.79999
    endloop
  endfacet
  facet normal 0 1 0
    outer loop
      vertex -79.8 97.5 -2.79999
      vertex -75.8 97.5 -6.79999
      vertex -79.8 97.5 -6.79999
    endloop
  endfacet
  facet normal 0 1 0
    outer loop
      vertex 79.8 97.5 -2.79999
      vertex 83.8 97.5 0
      vertex 82.2 97.5 -2.79999
    endloop
  endfacet
  facet normal 0 1 -0
    outer loop
      vertex 83.8 97.5 -3.79999
      vertex 82.2 97.5 -2.79999
      vertex 83.8 97.5 0
    endloop
  endfacet
  facet normal 0 1 0
    outer loop
      vertex 82.2 97.5 -2.79999
      vertex 83.8 97.5 -3.79999
      vertex 82.2 97.5 -3.79999
    endloop
  endfacet
  facet normal 0 1 0
    outer loop
      vertex 83.8 97.5 0
      vertex 79.8 97.5 -2.79999
      vertex -83.8 97.5 0
    endloop
  endfacet
  facet normal 0 1 -0
    outer loop
      vertex -79.8 97.5 -2.79999
      vertex -83.8 97.5 0
      vertex 79.8 97.5 -2.79999
    endloop
  endfacet
  facet normal 0 1 -0
    outer loop
      vertex -82.2 97.5 -2.79999
      vertex -83.8 97.5 0
      vertex -79.8 97.5 -2.79999
    endloop
  endfacet
  facet normal 0 1 0
    outer loop
      vertex -83.8 97.5 -3.79999
      vertex -82.2 97.5 -2.79999
      vertex -82.2 97.5 -3.79999
    endloop
  endfacet
  facet normal 0 1 0
    outer loop
      vertex -82.2 97.5 -2.79999
      vertex -83.8 97.5 -3.79999
      vertex -83.8 97.5 0
    endloop
  endfacet
  facet normal 0 -1 0
    outer loop
      vertex -75.8 78.5 -8
      vertex 75.8 78.5 -6.79999
      vertex -75.8 78.5 -6.79999
    endloop
  endfacet
  facet normal 0 -1 -0
    outer loop
      vertex 75.8 78.5 -6.79999
      vertex -75.8 78.5 -8
      vertex 75.8 78.5 -8
    endloop
  endfacet
  facet normal 0 -1 0
    outer loop
      vertex -75.8 78.5 -6.79999
      vertex -79.8 78.5 -6
      vertex -79.8 78.5 -6.79999
    endloop
  endfacet
  facet normal 0 -1 0
    outer loop
      vertex -79.8 78.5 -6
      vertex -75.8 78.5 -6.79999
      vertex 79.8 78.5 -6
    endloop
  endfacet
  facet normal 0 -1 0
    outer loop
      vertex 75.8 78.5 -6.79999
      vertex 79.8 78.5 -6
      vertex -75.8 78.5 -6.79999
    endloop
  endfacet
  facet normal 0 -1 -0
    outer loop
      vertex 79.8 78.5 -6
      vertex 75.8 78.5 -6.79999
      vertex 79.8 78.5 -6.79999
    endloop
  endfacet
  facet normal -0 0 1
    outer loop
      vertex -83.8 97.5 0
      vertex 83.8 95.5 0
      vertex 83.8 97.5 0
    endloop
  endfacet
  facet normal 0 0 1
    outer loop
      vertex 83.8 95.5 0
      vertex -83.8 97.5 0
      vertex -83.8 95.5 0
    endloop
  endfacet
  facet normal 0 -1 0
    outer loop
      vertex -83.8 95.5 0
      vertex 79.8 95.5 -2.79999
      vertex 83.8 95.5 0
    endloop
  endfacet
  facet normal 0 -1 0
    outer loop
      vertex -79.8 95.5 -2.79999
      vertex -83.8 95.5 0
      vertex -82.2 95.5 -2.79999
    endloop
  endfacet
  facet normal 0 -1 0
    outer loop
      vertex -83.8 95.5 -3.79999
      vertex -82.2 95.5 -2.79999
      vertex -83.8 95.5 0
    endloop
  endfacet
  facet normal 0 -1 -0
    outer loop
      vertex -82.2 95.5 -2.79999
      vertex -83.8 95.5 -3.79999
      vertex -82.2 95.5 -3.79999
    endloop
  endfacet
  facet normal 0 -1 0
    outer loop
      vertex 82.2 95.5 -2.79999
      vertex 83.8 95.5 0
      vertex 79.8 95.5 -2.79999
    endloop
  endfacet
  facet normal 0 -1 0
    outer loop
      vertex 83.8 95.5 -3.79999
      vertex 82.2 95.5 -2.79999
      vertex 82.2 95.5 -3.79999
    endloop
  endfacet
  facet normal 0 -1 0
    outer loop
      vertex 82.2 95.5 -2.79999
      vertex 83.8 95.5 -3.79999
      vertex 83.8 95.5 0
    endloop
  endfacet
  facet normal 0 -1 0
    outer loop
      vertex -83.8 95.5 0
      vertex -79.8 95.5 -2.79999
      vertex 79.8 95.5 -2.79999
    endloop
  endfacet
  facet normal 0 -1 0
    outer loop
      vertex -79.8 95.5 -6
      vertex 79.8 95.5 -2.79999
      vertex -79.8 95.5 -2.79999
    endloop
  endfacet
  facet normal 0 -1 -0
    outer loop
      vertex 79.8 95.5 -2.79999
      vertex -79.8 95.5 -6
      vertex 79.8 95.5 -6
    endloop
  endfacet
  facet normal -0 0 1
    outer loop
      vertex -79.8 94.5 -5
      vertex 79.8 92.5 -5
      vertex 79.8 94.5 -5
    endloop
  endfacet
  facet normal 0 0 1
    outer loop
      vertex 79.8 92.5 -5
      vertex -79.8 94.5 -5
      vertex -79.8 92.5 -5
    endloop
  endfacet
  facet normal 0 1 -0
    outer loop
      vertex 79.8 94.5 -6
      vertex -79.8 94.5 -5
      vertex 79.8 94.5 -5
    endloop
  endfacet
  facet normal 0 1 0
    outer loop
      vertex -79.8 94.5 -5
      vertex 79.8 94.5 -6
      vertex -79.8 94.5 -6
    endloop
  endfacet
  facet normal 0 -1 0
    outer loop
      vertex -79.8 92.5 -6
      vertex 79.8 92.5 -5
      vertex -79.8 92.5 -5
    endloop
  endfacet
  facet normal 0 -1 -0
    outer loop
      vertex 79.8 92.5 -5
      vertex -79.8 92.5 -6
      vertex 79.8 92.5 -6
    endloop
  endfacet
  facet normal 0 -2.50967e-08 -1
    outer loop
      vertex -79.8 78.5 -6.79999
      vertex -75.8 97.5 -6.79999
      vertex -75.8 78.5 -6.79999
    endloop
  endfacet
  facet normal -0 -2.50967e-08 -1
    outer loop
      vertex -75.8 97.5 -6.79999
      vertex -79.8 78.5 -6.79999
      vertex -79.8 97.5 -6.79999
    endloop
  endfacet
  facet normal -1 0 0
    outer loop
      vertex -79.8 97.5 -6.79999
      vertex -79.8 95.5 -6
      vertex -79.8 97.5 -2.79999
    endloop
  endfacet
  facet normal -1 0 0
    outer loop
      vertex -79.8 97.5 -6.79999
      vertex -79.8 94.5 -6
      vertex -79.8 95.5 -6
    endloop
  endfacet
  facet normal -1 0 0
    outer loop
      vertex -79.8 94.5 -6
      vertex -79.8 92.5 -6
      vertex -79.8 94.5 -5
    endloop
  endfacet
  facet normal -1 0 0
    outer loop
      vertex -79.8 97.5 -6.79999
      vertex -79.8 92.5 -6
      vertex -79.8 94.5 -6
    endloop
  endfacet
  facet normal -1 0 0
    outer loop
      vertex -79.8 78.5 -6.79999
      vertex -79.8 92.5 -6
      vertex -79.8 97.5 -6.79999
    endloop
  endfacet
  facet normal -1 -0 0
    outer loop
      vertex -79.8 92.5 -6
      vertex -79.8 78.5 -6.79999
      vertex -79.8 78.5 -6
    endloop
  endfacet
  facet normal -1 -0 0
    outer loop
      vertex -79.8 97.5 -2.79999
      vertex -79.8 95.5 -6
      vertex -79.8 95.5 -2.79999
    endloop
  endfacet
  facet normal -1 -0 0
    outer loop
      vertex -79.8 94.5 -5
      vertex -79.8 92.5 -6
      vertex -79.8 92.5 -5
    endloop
  endfacet
  facet normal 0 0 -1
    outer loop
      vertex -82.2 95.5 -2.79999
      vertex -79.8 97.5 -2.79999
      vertex -79.8 95.5 -2.79999
    endloop
  endfacet
  facet normal -0 0 -1
    outer loop
      vertex -79.8 97.5 -2.79999
      vertex -82.2 95.5 -2.79999
      vertex -82.2 97.5 -2.79999
    endloop
  endfacet
  facet normal 1 -0 0
    outer loop
      vertex -82.2 95.5 -2.79999
      vertex -82.2 97.5 -3.79999
      vertex -82.2 97.5 -2.79999
    endloop
  endfacet
  facet normal 1 0 0
    outer loop
      vertex -82.2 97.5 -3.79999
      vertex -82.2 95.5 -2.79999
      vertex -82.2 95.5 -3.79999
    endloop
  endfacet
  facet normal 0 0 -1
    outer loop
      vertex -83.8 95.5 -3.79999
      vertex -82.2 97.5 -3.79999
      vertex -82.2 95.5 -3.79999
    endloop
  endfacet
  facet normal -0 0 -1
    outer loop
      vertex -82.2 97.5 -3.79999
      vertex -83.8 95.5 -3.79999
      vertex -83.8 97.5 -3.79999
    endloop
  endfacet
  facet normal -1 0 0
    outer loop
      vertex -83.8 95.5 -3.79999
      vertex -83.8 97.5 0
      vertex -83.8 97.5 -3.79999
    endloop
  endfacet
  facet normal -1 -0 0
    outer loop
      vertex -83.8 97.5 0
      vertex -83.8 95.5 -3.79999
      vertex -83.8 95.5 0
    endloop
  endfacet
  facet normal -1 0 0
    outer loop
      vertex -75.8 78.5 -8
      vertex -75.8 97.5 -6.79999
      vertex -75.8 97.5 -8
    endloop
  endfacet
  facet normal -1 -0 0
    outer loop
      vertex -75.8 97.5 -6.79999
      vertex -75.8 78.5 -8
      vertex -75.8 78.5 -6.79999
    endloop
  endfacet
  facet normal 0 2.50967e-08 -1
    outer loop
      vertex 75.8 78.5 -6.79999
      vertex 79.8 97.5 -6.79999
      vertex 79.8 78.5 -6.79999
    endloop
  endfacet
  facet normal 0 2.50967e-08 -1
    outer loop
      vertex 79.8 97.5 -6.79999
      vertex 75.8 78.5 -6.79999
      vertex 75.8 97.5 -6.79999
    endloop
  endfacet
  facet normal 1 0 0
    outer loop
      vertex 79.8 94.5 -5
      vertex 79.8 92.5 -5
      vertex 79.8 94.5 -6
    endloop
  endfacet
  facet normal 1 0 0
    outer loop
      vertex 79.8 95.5 -6
      vertex 79.8 97.5 -2.79999
      vertex 79.8 95.5 -2.79999
    endloop
  endfacet
  facet normal 1 0 0
    outer loop
      vertex 79.8 97.5 -2.79999
      vertex 79.8 95.5 -6
      vertex 79.8 97.5 -6.79999
    endloop
  endfacet
  facet normal 1 -0 0
    outer loop
      vertex 79.8 94.5 -6
      vertex 79.8 97.5 -6.79999
      vertex 79.8 95.5 -6
    endloop
  endfacet
  facet normal 1 0 0
    outer loop
      vertex 79.8 92.5 -6
      vertex 79.8 94.5 -6
      vertex 79.8 92.5 -5
    endloop
  endfacet
  facet normal 1 -0 0
    outer loop
      vertex 79.8 92.5 -6
      vertex 79.8 97.5 -6.79999
      vertex 79.8 94.5 -6
    endloop
  endfacet
  facet normal 1 0 0
    outer loop
      vertex 79.8 78.5 -6.79999
      vertex 79.8 92.5 -6
      vertex 79.8 78.5 -6
    endloop
  endfacet
  facet normal 1 0 0
    outer loop
      vertex 79.8 92.5 -6
      vertex 79.8 78.5 -6.79999
      vertex 79.8 97.5 -6.79999
    endloop
  endfacet
  facet normal 0 0 -1
    outer loop
      vertex 79.8 95.5 -2.79999
      vertex 82.2 97.5 -2.79999
      vertex 82.2 95.5 -2.79999
    endloop
  endfacet
  facet normal -0 0 -1
    outer loop
      vertex 82.2 97.5 -2.79999
      vertex 79.8 95.5 -2.79999
      vertex 79.8 97.5 -2.79999
    endloop
  endfacet
  facet normal -1 0 0
    outer loop
      vertex 82.2 95.5 -3.79999
      vertex 82.2 97.5 -2.79999
      vertex 82.2 97.5 -3.79999
    endloop
  endfacet
  facet normal -1 -0 0
    outer loop
      vertex 82.2 97.5 -2.79999
      vertex 82.2 95.5 -3.79999
      vertex 82.2 95.5 -2.79999
    endloop
  endfacet
  facet normal 0 0 -1
    outer loop
      vertex 82.2 95.5 -3.79999
      vertex 83.8 97.5 -3.79999
      vertex 83.8 95.5 -3.79999
    endloop
  endfacet
  facet normal -0 0 -1
    outer loop
      vertex 83.8 97.5 -3.79999
      vertex 82.2 95.5 -3.79999
      vertex 82.2 97.5 -3.79999
    endloop
  endfacet
  facet normal 1 -0 0
    outer loop
      vertex 83.8 95.5 0
      vertex 83.8 97.5 -3.79999
      vertex 83.8 97.5 0
    endloop
  endfacet
  facet normal 1 0 0
    outer loop
      vertex 83.8 97.5 -3.79999
      vertex 83.8 95.5 0
      vertex 83.8 95.5 -3.79999
    endloop
  endfacet
  facet normal 1 -0 0
    outer loop
      vertex 75.8 78.5 -6.79999
      vertex 75.8 97.5 -8
      vertex 75.8 97.5 -6.79999
    endloop
  endfacet
  facet normal 1 0 0
    outer loop
      vertex 75.8 97.5 -8
      vertex 75.8 78.5 -6.79999
      vertex 75.8 78.5 -8
    endloop
  endfacet
endsolid OpenSCAD_Model
