solid OpenSCAD_Model
  facet normal 0 0 -1
    outer loop
      vertex 75.8 -119.5 -8
      vertex 1.5 -111.5 -8
      vertex 75.8 -88.5 -8
    endloop
  endfacet
  facet normal 0 0 -1
    outer loop
      vertex 75.8 -119.5 -8
      vertex 0.463525 -112.927 -8
      vertex 1.5 -111.5 -8
    endloop
  endfacet
  facet normal -0 0 -1
    outer loop
      vertex -1.21352 -112.382 -8
      vertex -9.21428 -115.5 -8
      vertex -1.21352 -110.618 -8
    endloop
  endfacet
  facet normal -0 0 -1
    outer loop
      vertex 0.463525 -112.927 -8
      vertex -9.21428 -115.5 -8
      vertex -1.21352 -112.382 -8
    endloop
  endfacet
  facet normal 0 0 -1
    outer loop
      vertex 75.8 -119.5 -8
      vertex -9.21428 -115.5 -8
      vertex 0.463525 -112.927 -8
    endloop
  endfacet
  facet normal 0 0 -1
    outer loop
      vertex -75.8 -119.5 -8
      vertex -9.21428 -115.5 -8
      vertex 75.8 -119.5 -8
    endloop
  endfacet
  facet normal -0 0 -1
    outer loop
      vertex -24.2143 -115.5 -8
      vertex -75.8 -119.5 -8
      vertex -24.2143 -107.5 -8
    endloop
  endfacet
  facet normal -0 0 -1
    outer loop
      vertex -9.21428 -115.5 -8
      vertex -75.8 -119.5 -8
      vertex -24.2143 -115.5 -8
    endloop
  endfacet
  facet normal 0 0 -1
    outer loop
      vertex 0.463525 -110.073 -8
      vertex 75.8 -88.5 -8
      vertex 1.5 -111.5 -8
    endloop
  endfacet
  facet normal 0 0 -1
    outer loop
      vertex -9.21428 -107.5 -8
      vertex -1.21352 -110.618 -8
      vertex -9.21428 -115.5 -8
    endloop
  endfacet
  facet normal 0 0 -1
    outer loop
      vertex -9.21428 -107.5 -8
      vertex 0.463525 -110.073 -8
      vertex -1.21352 -110.618 -8
    endloop
  endfacet
  facet normal 0 0 -1
    outer loop
      vertex -9.21428 -107.5 -8
      vertex 75.8 -88.5 -8
      vertex 0.463525 -110.073 -8
    endloop
  endfacet
  facet normal 0 0 -1
    outer loop
      vertex -75.8 -88.5 -8
      vertex -9.21428 -107.5 -8
      vertex -24.2143 -107.5 -8
    endloop
  endfacet
  facet normal 0 0 -1
    outer loop
      vertex -9.21428 -107.5 -8
      vertex -75.8 -88.5 -8
      vertex 75.8 -88.5 -8
    endloop
  endfacet
  facet normal 0 0 -1
    outer loop
      vertex -75.8 -88.5 -8
      vertex -24.2143 -107.5 -8
      vertex -75.8 -119.5 -8
    endloop
  endfacet
  facet normal -0.809016 -0.587786 0
    outer loop
      vertex 1.5 -111.5 -8
      vertex 0.463525 -110.073 -5
      vertex 0.463525 -110.073 -8
    endloop
  endfacet
  facet normal -0.809016 -0.587786 0
    outer loop
      vertex 0.463525 -110.073 -5
      vertex 1.5 -111.5 -8
      vertex 1.5 -111.5 -5
    endloop
  endfacet
  facet normal 1 -0 0
    outer loop
      vertex -1.21352 -112.382 -5
      vertex -1.21352 -110.618 -8
      vertex -1.21352 -110.618 -5
    endloop
  endfacet
  facet normal 1 0 0
    outer loop
      vertex -1.21352 -110.618 -8
      vertex -1.21352 -112.382 -5
      vertex -1.21352 -112.382 -8
    endloop
  endfacet
  facet normal 0.309017 -0.951056 0
    outer loop
      vertex -1.21352 -110.618 -8
      vertex 0.463525 -110.073 -5
      vertex -1.21352 -110.618 -5
    endloop
  endfacet
  facet normal 0.309017 -0.951056 0
    outer loop
      vertex 0.463525 -110.073 -5
      vertex -1.21352 -110.618 -8
      vertex 0.463525 -110.073 -8
    endloop
  endfacet
  facet normal -0.809016 0.587786 0
    outer loop
      vertex 0.463525 -112.927 -8
      vertex 1.5 -111.5 -5
      vertex 1.5 -111.5 -8
    endloop
  endfacet
  facet normal -0.809016 0.587786 0
    outer loop
      vertex 1.5 -111.5 -5
      vertex 0.463525 -112.927 -8
      vertex 0.463525 -112.927 -5
    endloop
  endfacet
  facet normal 0.309017 0.951056 -0
    outer loop
      vertex 0.463525 -112.927 -8
      vertex -1.21352 -112.382 -5
      vertex 0.463525 -112.927 -5
    endloop
  endfacet
  facet normal 0.309017 0.951056 0
    outer loop
      vertex -1.21352 -112.382 -5
      vertex 0.463525 -112.927 -8
      vertex -1.21352 -112.382 -8
    endloop
  endfacet
  facet normal 0.951057 0.309014 0
    outer loop
      vertex 69.8571 -111.5 -5
      vertex 69.2842 -109.737 -6
      vertex 69.2842 -109.737 -5
    endloop
  endfacet
  facet normal 0.951057 0.309014 0
    outer loop
      vertex 69.2842 -109.737 -6
      vertex 69.8571 -111.5 -5
      vertex 69.8571 -111.5 -6
    endloop
  endfacet
  facet normal -0.951057 0.309016 0
    outer loop
      vertex 63.8571 -111.5 -6
      vertex 64.4301 -109.737 -5
      vertex 64.4301 -109.737 -6
    endloop
  endfacet
  facet normal -0.951057 0.309016 0
    outer loop
      vertex 64.4301 -109.737 -5
      vertex 63.8571 -111.5 -6
      vertex 63.8571 -111.5 -5
    endloop
  endfacet
  facet normal 0 -1 0
    outer loop
      vertex 65.9301 -114.353 -6
      vertex 67.7842 -114.353 -5
      vertex 65.9301 -114.353 -5
    endloop
  endfacet
  facet normal 0 -1 -0
    outer loop
      vertex 67.7842 -114.353 -5
      vertex 65.9301 -114.353 -6
      vertex 67.7842 -114.353 -6
    endloop
  endfacet
  facet normal 0 1 -0
    outer loop
      vertex 67.7842 -108.647 -6
      vertex 65.9301 -108.647 -5
      vertex 67.7842 -108.647 -5
    endloop
  endfacet
  facet normal 0 1 0
    outer loop
      vertex 65.9301 -108.647 -5
      vertex 67.7842 -108.647 -6
      vertex 65.9301 -108.647 -6
    endloop
  endfacet
  facet normal 0.587785 0.809017 -0
    outer loop
      vertex 69.2842 -109.737 -6
      vertex 67.7842 -108.647 -5
      vertex 69.2842 -109.737 -5
    endloop
  endfacet
  facet normal 0.587785 0.809017 0
    outer loop
      vertex 67.7842 -108.647 -5
      vertex 69.2842 -109.737 -6
      vertex 67.7842 -108.647 -6
    endloop
  endfacet
  facet normal 0 0 1
    outer loop
      vertex 69.2842 -109.737 -5
      vertex 69.2842 -113.263 -5
      vertex 69.8571 -111.5 -5
    endloop
  endfacet
  facet normal 0 0 1
    outer loop
      vertex 67.7842 -108.647 -5
      vertex 69.2842 -113.263 -5
      vertex 69.2842 -109.737 -5
    endloop
  endfacet
  facet normal 0 0 1
    outer loop
      vertex 67.7842 -108.647 -5
      vertex 67.7842 -114.353 -5
      vertex 69.2842 -113.263 -5
    endloop
  endfacet
  facet normal -0 0 1
    outer loop
      vertex 65.9301 -108.647 -5
      vertex 67.7842 -114.353 -5
      vertex 67.7842 -108.647 -5
    endloop
  endfacet
  facet normal 0 0 1
    outer loop
      vertex 65.9301 -108.647 -5
      vertex 65.9301 -114.353 -5
      vertex 67.7842 -114.353 -5
    endloop
  endfacet
  facet normal -0 0 1
    outer loop
      vertex 64.4301 -109.737 -5
      vertex 65.9301 -114.353 -5
      vertex 65.9301 -108.647 -5
    endloop
  endfacet
  facet normal 0 0 1
    outer loop
      vertex 64.4301 -109.737 -5
      vertex 64.4301 -113.263 -5
      vertex 65.9301 -114.353 -5
    endloop
  endfacet
  facet normal 0 -0 1
    outer loop
      vertex 64.4301 -113.263 -5
      vertex 64.4301 -109.737 -5
      vertex 63.8571 -111.5 -5
    endloop
  endfacet
  facet normal -0.587785 0.809017 0
    outer loop
      vertex 65.9301 -108.647 -6
      vertex 64.4301 -109.737 -5
      vertex 65.9301 -108.647 -5
    endloop
  endfacet
  facet normal -0.587785 0.809017 0
    outer loop
      vertex 64.4301 -109.737 -5
      vertex 65.9301 -108.647 -6
      vertex 64.4301 -109.737 -6
    endloop
  endfacet
  facet normal 0.951057 -0.309016 0
    outer loop
      vertex 69.2842 -113.263 -5
      vertex 69.8571 -111.5 -6
      vertex 69.8571 -111.5 -5
    endloop
  endfacet
  facet normal 0.951057 -0.309016 0
    outer loop
      vertex 69.8571 -111.5 -6
      vertex 69.2842 -113.263 -5
      vertex 69.2842 -113.263 -6
    endloop
  endfacet
  facet normal -0.951056 -0.309017 0
    outer loop
      vertex 64.4301 -113.263 -6
      vertex 63.8571 -111.5 -5
      vertex 63.8571 -111.5 -6
    endloop
  endfacet
  facet normal -0.951056 -0.309017 0
    outer loop
      vertex 63.8571 -111.5 -5
      vertex 64.4301 -113.263 -6
      vertex 64.4301 -113.263 -5
    endloop
  endfacet
  facet normal 0.587788 -0.809015 0
    outer loop
      vertex 67.7842 -114.353 -6
      vertex 69.2842 -113.263 -5
      vertex 67.7842 -114.353 -5
    endloop
  endfacet
  facet normal 0.587788 -0.809015 0
    outer loop
      vertex 69.2842 -113.263 -5
      vertex 67.7842 -114.353 -6
      vertex 69.2842 -113.263 -6
    endloop
  endfacet
  facet normal -0.587788 -0.809015 0
    outer loop
      vertex 64.4301 -113.263 -6
      vertex 65.9301 -114.353 -5
      vertex 64.4301 -113.263 -5
    endloop
  endfacet
  facet normal -0.587788 -0.809015 -0
    outer loop
      vertex 65.9301 -114.353 -5
      vertex 64.4301 -113.263 -6
      vertex 65.9301 -114.353 -6
    endloop
  endfacet
  facet normal 0.951057 0.309016 0
    outer loop
      vertex 36.4286 -111.5 -5
      vertex 35.8556 -109.737 -6
      vertex 35.8556 -109.737 -5
    endloop
  endfacet
  facet normal 0.951057 0.309016 0
    outer loop
      vertex 35.8556 -109.737 -6
      vertex 36.4286 -111.5 -5
      vertex 36.4286 -111.5 -6
    endloop
  endfacet
  facet normal -0.951056 0.309017 0
    outer loop
      vertex 30.4286 -111.5 -6
      vertex 31.0015 -109.737 -5
      vertex 31.0015 -109.737 -6
    endloop
  endfacet
  facet normal -0.951056 0.309017 0
    outer loop
      vertex 31.0015 -109.737 -5
      vertex 30.4286 -111.5 -6
      vertex 30.4286 -111.5 -5
    endloop
  endfacet
  facet normal 0 -1 0
    outer loop
      vertex 32.5015 -114.353 -6
      vertex 34.3556 -114.353 -5
      vertex 32.5015 -114.353 -5
    endloop
  endfacet
  facet normal 0 -1 -0
    outer loop
      vertex 34.3556 -114.353 -5
      vertex 32.5015 -114.353 -6
      vertex 34.3556 -114.353 -6
    endloop
  endfacet
  facet normal 0 1 -0
    outer loop
      vertex 34.3556 -108.647 -6
      vertex 32.5015 -108.647 -5
      vertex 34.3556 -108.647 -5
    endloop
  endfacet
  facet normal 0 1 0
    outer loop
      vertex 32.5015 -108.647 -5
      vertex 34.3556 -108.647 -6
      vertex 32.5015 -108.647 -6
    endloop
  endfacet
  facet normal 0.587785 0.809017 -0
    outer loop
      vertex 35.8556 -109.737 -6
      vertex 34.3556 -108.647 -5
      vertex 35.8556 -109.737 -5
    endloop
  endfacet
  facet normal 0.587785 0.809017 0
    outer loop
      vertex 34.3556 -108.647 -5
      vertex 35.8556 -109.737 -6
      vertex 34.3556 -108.647 -6
    endloop
  endfacet
  facet normal 0 0 1
    outer loop
      vertex 35.8556 -109.737 -5
      vertex 35.8556 -113.263 -5
      vertex 36.4286 -111.5 -5
    endloop
  endfacet
  facet normal 0 0 1
    outer loop
      vertex 34.3556 -108.647 -5
      vertex 35.8556 -113.263 -5
      vertex 35.8556 -109.737 -5
    endloop
  endfacet
  facet normal 0 0 1
    outer loop
      vertex 34.3556 -108.647 -5
      vertex 34.3556 -114.353 -5
      vertex 35.8556 -113.263 -5
    endloop
  endfacet
  facet normal -0 0 1
    outer loop
      vertex 32.5015 -108.647 -5
      vertex 34.3556 -114.353 -5
      vertex 34.3556 -108.647 -5
    endloop
  endfacet
  facet normal 0 0 1
    outer loop
      vertex 32.5015 -108.647 -5
      vertex 32.5015 -114.353 -5
      vertex 34.3556 -114.353 -5
    endloop
  endfacet
  facet normal -0 0 1
    outer loop
      vertex 31.0015 -109.737 -5
      vertex 32.5015 -114.353 -5
      vertex 32.5015 -108.647 -5
    endloop
  endfacet
  facet normal 0 0 1
    outer loop
      vertex 31.0015 -109.737 -5
      vertex 31.0015 -113.263 -5
      vertex 32.5015 -114.353 -5
    endloop
  endfacet
  facet normal 0 -0 1
    outer loop
      vertex 31.0015 -113.263 -5
      vertex 31.0015 -109.737 -5
      vertex 30.4286 -111.5 -5
    endloop
  endfacet
  facet normal -0.587786 0.809017 0
    outer loop
      vertex 32.5015 -108.647 -6
      vertex 31.0015 -109.737 -5
      vertex 32.5015 -108.647 -5
    endloop
  endfacet
  facet normal -0.587786 0.809017 0
    outer loop
      vertex 31.0015 -109.737 -5
      vertex 32.5015 -108.647 -6
      vertex 31.0015 -109.737 -6
    endloop
  endfacet
  facet normal 0.587788 -0.809015 0
    outer loop
      vertex 34.3556 -114.353 -6
      vertex 35.8556 -113.263 -5
      vertex 34.3556 -114.353 -5
    endloop
  endfacet
  facet normal 0.587788 -0.809015 0
    outer loop
      vertex 35.8556 -113.263 -5
      vertex 34.3556 -114.353 -6
      vertex 35.8556 -113.263 -6
    endloop
  endfacet
  facet normal 0.951056 -0.309017 0
    outer loop
      vertex 35.8556 -113.263 -5
      vertex 36.4286 -111.5 -6
      vertex 36.4286 -111.5 -5
    endloop
  endfacet
  facet normal 0.951056 -0.309017 0
    outer loop
      vertex 36.4286 -111.5 -6
      vertex 35.8556 -113.263 -5
      vertex 35.8556 -113.263 -6
    endloop
  endfacet
  facet normal -0.587788 -0.809015 0
    outer loop
      vertex 31.0015 -113.263 -6
      vertex 32.5015 -114.353 -5
      vertex 31.0015 -113.263 -5
    endloop
  endfacet
  facet normal -0.587788 -0.809015 -0
    outer loop
      vertex 32.5015 -114.353 -5
      vertex 31.0015 -113.263 -6
      vertex 32.5015 -114.353 -6
    endloop
  endfacet
  facet normal -0.951056 -0.309018 0
    outer loop
      vertex 31.0015 -113.263 -6
      vertex 30.4286 -111.5 -5
      vertex 30.4286 -111.5 -6
    endloop
  endfacet
  facet normal -0.951056 -0.309018 0
    outer loop
      vertex 30.4286 -111.5 -5
      vertex 31.0015 -113.263 -6
      vertex 31.0015 -113.263 -5
    endloop
  endfacet
  facet normal 0.951057 0.309017 0
    outer loop
      vertex 3 -111.5 -5
      vertex 2.42705 -109.737 -6
      vertex 2.42705 -109.737 -5
    endloop
  endfacet
  facet normal 0.951057 0.309017 0
    outer loop
      vertex 2.42705 -109.737 -6
      vertex 3 -111.5 -5
      vertex 3 -111.5 -6
    endloop
  endfacet
  facet normal -0.951057 0.309017 0
    outer loop
      vertex -3 -111.5 -6
      vertex -2.42705 -109.737 -5
      vertex -2.42705 -109.737 -6
    endloop
  endfacet
  facet normal -0.951057 0.309017 0
    outer loop
      vertex -2.42705 -109.737 -5
      vertex -3 -111.5 -6
      vertex -3 -111.5 -5
    endloop
  endfacet
  facet normal 0 -1 0
    outer loop
      vertex -0.927051 -114.353 -6
      vertex 0.927051 -114.353 -5
      vertex -0.927051 -114.353 -5
    endloop
  endfacet
  facet normal 0 -1 -0
    outer loop
      vertex 0.927051 -114.353 -5
      vertex -0.927051 -114.353 -6
      vertex 0.927051 -114.353 -6
    endloop
  endfacet
  facet normal 0 1 -0
    outer loop
      vertex 0.927051 -108.647 -6
      vertex -0.927051 -108.647 -5
      vertex 0.927051 -108.647 -5
    endloop
  endfacet
  facet normal 0 1 0
    outer loop
      vertex -0.927051 -108.647 -5
      vertex 0.927051 -108.647 -6
      vertex -0.927051 -108.647 -6
    endloop
  endfacet
  facet normal 0.587785 0.809017 -0
    outer loop
      vertex 2.42705 -109.737 -6
      vertex 0.927051 -108.647 -5
      vertex 2.42705 -109.737 -5
    endloop
  endfacet
  facet normal 0.587785 0.809017 0
    outer loop
      vertex 0.927051 -108.647 -5
      vertex 2.42705 -109.737 -6
      vertex 0.927051 -108.647 -6
    endloop
  endfacet
  facet normal 0 0 1
    outer loop
      vertex 1.5 -111.5 -5
      vertex 3 -111.5 -5
      vertex 2.42705 -109.737 -5
    endloop
  endfacet
  facet normal 0 0 1
    outer loop
      vertex 3 -111.5 -5
      vertex 1.5 -111.5 -5
      vertex 2.42705 -113.263 -5
    endloop
  endfacet
  facet normal 0 0 1
    outer loop
      vertex 0.463525 -110.073 -5
      vertex 2.42705 -109.737 -5
      vertex 0.927051 -108.647 -5
    endloop
  endfacet
  facet normal 0 0 1
    outer loop
      vertex 2.42705 -109.737 -5
      vertex 0.463525 -110.073 -5
      vertex 1.5 -111.5 -5
    endloop
  endfacet
  facet normal -0 0 1
    outer loop
      vertex -0.927051 -108.647 -5
      vertex 0.463525 -110.073 -5
      vertex 0.927051 -108.647 -5
    endloop
  endfacet
  facet normal 0 0 1
    outer loop
      vertex -0.927051 -108.647 -5
      vertex -1.21352 -110.618 -5
      vertex 0.463525 -110.073 -5
    endloop
  endfacet
  facet normal 0 0 1
    outer loop
      vertex -3 -111.5 -5
      vertex -1.21352 -110.618 -5
      vertex -2.42705 -109.737 -5
    endloop
  endfacet
  facet normal -0 0 1
    outer loop
      vertex -2.42705 -109.737 -5
      vertex -1.21352 -110.618 -5
      vertex -0.927051 -108.647 -5
    endloop
  endfacet
  facet normal -0 0 1
    outer loop
      vertex 0.463525 -112.927 -5
      vertex 2.42705 -113.263 -5
      vertex 1.5 -111.5 -5
    endloop
  endfacet
  facet normal 0 0 1
    outer loop
      vertex 2.42705 -113.263 -5
      vertex 0.463525 -112.927 -5
      vertex 0.927051 -114.353 -5
    endloop
  endfacet
  facet normal 0 0 1
    outer loop
      vertex 0.463525 -112.927 -5
      vertex -0.927051 -114.353 -5
      vertex 0.927051 -114.353 -5
    endloop
  endfacet
  facet normal 0 0 1
    outer loop
      vertex -1.21352 -112.382 -5
      vertex -0.927051 -114.353 -5
      vertex 0.463525 -112.927 -5
    endloop
  endfacet
  facet normal 0 0 1
    outer loop
      vertex -1.21352 -110.618 -5
      vertex -3 -111.5 -5
      vertex -1.21352 -112.382 -5
    endloop
  endfacet
  facet normal 0 0 1
    outer loop
      vertex -1.21352 -112.382 -5
      vertex -2.42705 -113.263 -5
      vertex -0.927051 -114.353 -5
    endloop
  endfacet
  facet normal 0 0 1
    outer loop
      vertex -1.21352 -112.382 -5
      vertex -3 -111.5 -5
      vertex -2.42705 -113.263 -5
    endloop
  endfacet
  facet normal -0.587785 0.809017 0
    outer loop
      vertex -0.927051 -108.647 -6
      vertex -2.42705 -109.737 -5
      vertex -0.927051 -108.647 -5
    endloop
  endfacet
  facet normal -0.587785 0.809017 0
    outer loop
      vertex -2.42705 -109.737 -5
      vertex -0.927051 -108.647 -6
      vertex -2.42705 -109.737 -6
    endloop
  endfacet
  facet normal 0.951056 -0.309018 0
    outer loop
      vertex 2.42705 -113.263 -5
      vertex 3 -111.5 -6
      vertex 3 -111.5 -5
    endloop
  endfacet
  facet normal 0.951056 -0.309018 0
    outer loop
      vertex 3 -111.5 -6
      vertex 2.42705 -113.263 -5
      vertex 2.42705 -113.263 -6
    endloop
  endfacet
  facet normal 0.587788 -0.809015 0
    outer loop
      vertex 0.927051 -114.353 -6
      vertex 2.42705 -113.263 -5
      vertex 0.927051 -114.353 -5
    endloop
  endfacet
  facet normal 0.587788 -0.809015 0
    outer loop
      vertex 2.42705 -113.263 -5
      vertex 0.927051 -114.353 -6
      vertex 2.42705 -113.263 -6
    endloop
  endfacet
  facet normal -0.587788 -0.809015 0
    outer loop
      vertex -2.42705 -113.263 -6
      vertex -0.927051 -114.353 -5
      vertex -2.42705 -113.263 -5
    endloop
  endfacet
  facet normal -0.587788 -0.809015 -0
    outer loop
      vertex -0.927051 -114.353 -5
      vertex -2.42705 -113.263 -6
      vertex -0.927051 -114.353 -6
    endloop
  endfacet
  facet normal -0.951056 -0.309018 0
    outer loop
      vertex -2.42705 -113.263 -6
      vertex -3 -111.5 -5
      vertex -3 -111.5 -6
    endloop
  endfacet
  facet normal -0.951056 -0.309018 0
    outer loop
      vertex -3 -111.5 -5
      vertex -2.42705 -113.263 -6
      vertex -2.42705 -113.263 -5
    endloop
  endfacet
  facet normal 0.951056 0.309017 0
    outer loop
      vertex -30.4286 -111.5 -5
      vertex -31.0015 -109.737 -6
      vertex -31.0015 -109.737 -5
    endloop
  endfacet
  facet normal 0.951056 0.309017 0
    outer loop
      vertex -31.0015 -109.737 -6
      vertex -30.4286 -111.5 -5
      vertex -30.4286 -111.5 -6
    endloop
  endfacet
  facet normal 0 1 -0
    outer loop
      vertex -32.5015 -108.647 -6
      vertex -34.3556 -108.647 -5
      vertex -32.5015 -108.647 -5
    endloop
  endfacet
  facet normal 0 1 0
    outer loop
      vertex -34.3556 -108.647 -5
      vertex -32.5015 -108.647 -6
      vertex -34.3556 -108.647 -6
    endloop
  endfacet
  facet normal 0.587786 0.809017 -0
    outer loop
      vertex -31.0015 -109.737 -6
      vertex -32.5015 -108.647 -5
      vertex -31.0015 -109.737 -5
    endloop
  endfacet
  facet normal 0.587786 0.809017 0
    outer loop
      vertex -32.5015 -108.647 -5
      vertex -31.0015 -109.737 -6
      vertex -32.5015 -108.647 -6
    endloop
  endfacet
  facet normal -0.951056 -0.309017 0
    outer loop
      vertex -35.8556 -113.263 -6
      vertex -36.4286 -111.5 -5
      vertex -36.4286 -111.5 -6
    endloop
  endfacet
  facet normal -0.951056 -0.309017 0
    outer loop
      vertex -36.4286 -111.5 -5
      vertex -35.8556 -113.263 -6
      vertex -35.8556 -113.263 -5
    endloop
  endfacet
  facet normal -0.587785 0.809017 0
    outer loop
      vertex -34.3556 -108.647 -6
      vertex -35.8556 -109.737 -5
      vertex -34.3556 -108.647 -5
    endloop
  endfacet
  facet normal -0.587785 0.809017 0
    outer loop
      vertex -35.8556 -109.737 -5
      vertex -34.3556 -108.647 -6
      vertex -35.8556 -109.737 -6
    endloop
  endfacet
  facet normal 0.951056 -0.309018 0
    outer loop
      vertex -31.0015 -113.263 -5
      vertex -30.4286 -111.5 -6
      vertex -30.4286 -111.5 -5
    endloop
  endfacet
  facet normal 0.951056 -0.309018 0
    outer loop
      vertex -30.4286 -111.5 -6
      vertex -31.0015 -113.263 -5
      vertex -31.0015 -113.263 -6
    endloop
  endfacet
  facet normal 0.587788 -0.809015 0
    outer loop
      vertex -32.5015 -114.353 -6
      vertex -31.0015 -113.263 -5
      vertex -32.5015 -114.353 -5
    endloop
  endfacet
  facet normal 0.587788 -0.809015 0
    outer loop
      vertex -31.0015 -113.263 -5
      vertex -32.5015 -114.353 -6
      vertex -31.0015 -113.263 -6
    endloop
  endfacet
  facet normal -0.587788 -0.809015 0
    outer loop
      vertex -35.8556 -113.263 -6
      vertex -34.3556 -114.353 -5
      vertex -35.8556 -113.263 -5
    endloop
  endfacet
  facet normal -0.587788 -0.809015 -0
    outer loop
      vertex -34.3556 -114.353 -5
      vertex -35.8556 -113.263 -6
      vertex -34.3556 -114.353 -6
    endloop
  endfacet
  facet normal 0 -1 0
    outer loop
      vertex -34.3556 -114.353 -6
      vertex -32.5015 -114.353 -5
      vertex -34.3556 -114.353 -5
    endloop
  endfacet
  facet normal 0 -1 -0
    outer loop
      vertex -32.5015 -114.353 -5
      vertex -34.3556 -114.353 -6
      vertex -32.5015 -114.353 -6
    endloop
  endfacet
  facet normal 0 0 1
    outer loop
      vertex -31.0015 -109.737 -5
      vertex -31.0015 -113.263 -5
      vertex -30.4286 -111.5 -5
    endloop
  endfacet
  facet normal 0 0 1
    outer loop
      vertex -32.5015 -108.647 -5
      vertex -31.0015 -113.263 -5
      vertex -31.0015 -109.737 -5
    endloop
  endfacet
  facet normal 0 0 1
    outer loop
      vertex -32.5015 -108.647 -5
      vertex -32.5015 -114.353 -5
      vertex -31.0015 -113.263 -5
    endloop
  endfacet
  facet normal -0 0 1
    outer loop
      vertex -34.3556 -108.647 -5
      vertex -32.5015 -114.353 -5
      vertex -32.5015 -108.647 -5
    endloop
  endfacet
  facet normal 0 0 1
    outer loop
      vertex -34.3556 -108.647 -5
      vertex -34.3556 -114.353 -5
      vertex -32.5015 -114.353 -5
    endloop
  endfacet
  facet normal -0 0 1
    outer loop
      vertex -35.8556 -109.737 -5
      vertex -34.3556 -114.353 -5
      vertex -34.3556 -108.647 -5
    endloop
  endfacet
  facet normal 0 0 1
    outer loop
      vertex -35.8556 -109.737 -5
      vertex -35.8556 -113.263 -5
      vertex -34.3556 -114.353 -5
    endloop
  endfacet
  facet normal 0 -0 1
    outer loop
      vertex -35.8556 -113.263 -5
      vertex -35.8556 -109.737 -5
      vertex -36.4286 -111.5 -5
    endloop
  endfacet
  facet normal -0.951057 0.309016 0
    outer loop
      vertex -36.4286 -111.5 -6
      vertex -35.8556 -109.737 -5
      vertex -35.8556 -109.737 -6
    endloop
  endfacet
  facet normal -0.951057 0.309016 0
    outer loop
      vertex -35.8556 -109.737 -5
      vertex -36.4286 -111.5 -6
      vertex -36.4286 -111.5 -5
    endloop
  endfacet
  facet normal 0.951057 0.309016 0
    outer loop
      vertex -63.8571 -111.5 -5
      vertex -64.4301 -109.737 -6
      vertex -64.4301 -109.737 -5
    endloop
  endfacet
  facet normal 0.951057 0.309016 0
    outer loop
      vertex -64.4301 -109.737 -6
      vertex -63.8571 -111.5 -5
      vertex -63.8571 -111.5 -6
    endloop
  endfacet
  facet normal -0.951057 0.309014 0
    outer loop
      vertex -69.8571 -111.5 -6
      vertex -69.2842 -109.737 -5
      vertex -69.2842 -109.737 -6
    endloop
  endfacet
  facet normal -0.951057 0.309014 0
    outer loop
      vertex -69.2842 -109.737 -5
      vertex -69.8571 -111.5 -6
      vertex -69.8571 -111.5 -5
    endloop
  endfacet
  facet normal 0 1 -0
    outer loop
      vertex -65.9301 -108.647 -6
      vertex -67.7842 -108.647 -5
      vertex -65.9301 -108.647 -5
    endloop
  endfacet
  facet normal 0 1 0
    outer loop
      vertex -67.7842 -108.647 -5
      vertex -65.9301 -108.647 -6
      vertex -67.7842 -108.647 -6
    endloop
  endfacet
  facet normal 0.587785 0.809017 -0
    outer loop
      vertex -64.4301 -109.737 -6
      vertex -65.9301 -108.647 -5
      vertex -64.4301 -109.737 -5
    endloop
  endfacet
  facet normal 0.587785 0.809017 0
    outer loop
      vertex -65.9301 -108.647 -5
      vertex -64.4301 -109.737 -6
      vertex -65.9301 -108.647 -6
    endloop
  endfacet
  facet normal 0 0 1
    outer loop
      vertex -64.4301 -109.737 -5
      vertex -64.4301 -113.263 -5
      vertex -63.8571 -111.5 -5
    endloop
  endfacet
  facet normal 0 0 1
    outer loop
      vertex -65.9301 -108.647 -5
      vertex -64.4301 -113.263 -5
      vertex -64.4301 -109.737 -5
    endloop
  endfacet
  facet normal 0 0 1
    outer loop
      vertex -65.9301 -108.647 -5
      vertex -65.9301 -114.353 -5
      vertex -64.4301 -113.263 -5
    endloop
  endfacet
  facet normal -0 0 1
    outer loop
      vertex -67.7842 -108.647 -5
      vertex -65.9301 -114.353 -5
      vertex -65.9301 -108.647 -5
    endloop
  endfacet
  facet normal 0 0 1
    outer loop
      vertex -67.7842 -108.647 -5
      vertex -67.7842 -114.353 -5
      vertex -65.9301 -114.353 -5
    endloop
  endfacet
  facet normal -0 0 1
    outer loop
      vertex -69.2842 -109.737 -5
      vertex -67.7842 -114.353 -5
      vertex -67.7842 -108.647 -5
    endloop
  endfacet
  facet normal 0 0 1
    outer loop
      vertex -69.2842 -109.737 -5
      vertex -69.2842 -113.263 -5
      vertex -67.7842 -114.353 -5
    endloop
  endfacet
  facet normal 0 -0 1
    outer loop
      vertex -69.2842 -113.263 -5
      vertex -69.2842 -109.737 -5
      vertex -69.8571 -111.5 -5
    endloop
  endfacet
  facet normal -0.587785 0.809017 0
    outer loop
      vertex -67.7842 -108.647 -6
      vertex -69.2842 -109.737 -5
      vertex -67.7842 -108.647 -5
    endloop
  endfacet
  facet normal -0.587785 0.809017 0
    outer loop
      vertex -69.2842 -109.737 -5
      vertex -67.7842 -108.647 -6
      vertex -69.2842 -109.737 -6
    endloop
  endfacet
  facet normal 0.951056 -0.309017 0
    outer loop
      vertex -64.4301 -113.263 -5
      vertex -63.8571 -111.5 -6
      vertex -63.8571 -111.5 -5
    endloop
  endfacet
  facet normal 0.951056 -0.309017 0
    outer loop
      vertex -63.8571 -111.5 -6
      vertex -64.4301 -113.263 -5
      vertex -64.4301 -113.263 -6
    endloop
  endfacet
  facet normal -0.951057 -0.309016 0
    outer loop
      vertex -69.2842 -113.263 -6
      vertex -69.8571 -111.5 -5
      vertex -69.8571 -111.5 -6
    endloop
  endfacet
  facet normal -0.951057 -0.309016 0
    outer loop
      vertex -69.8571 -111.5 -5
      vertex -69.2842 -113.263 -6
      vertex -69.2842 -113.263 -5
    endloop
  endfacet
  facet normal 0 -1 0
    outer loop
      vertex -67.7842 -114.353 -6
      vertex -65.9301 -114.353 -5
      vertex -67.7842 -114.353 -5
    endloop
  endfacet
  facet normal 0 -1 -0
    outer loop
      vertex -65.9301 -114.353 -5
      vertex -67.7842 -114.353 -6
      vertex -65.9301 -114.353 -6
    endloop
  endfacet
  facet normal 0.587788 -0.809015 0
    outer loop
      vertex -65.9301 -114.353 -6
      vertex -64.4301 -113.263 -5
      vertex -65.9301 -114.353 -5
    endloop
  endfacet
  facet normal 0.587788 -0.809015 0
    outer loop
      vertex -64.4301 -113.263 -5
      vertex -65.9301 -114.353 -6
      vertex -64.4301 -113.263 -6
    endloop
  endfacet
  facet normal -0.587788 -0.809015 0
    outer loop
      vertex -69.2842 -113.263 -6
      vertex -67.7842 -114.353 -5
      vertex -69.2842 -113.263 -5
    endloop
  endfacet
  facet normal -0.587788 -0.809015 -0
    outer loop
      vertex -67.7842 -114.353 -5
      vertex -69.2842 -113.263 -6
      vertex -67.7842 -114.353 -6
    endloop
  endfacet
  facet normal 0 0 1
    outer loop
      vertex 79.8 -104.5 -6
      vertex 69.8571 -111.5 -6
      vertex 79.8 -117.5 -6
    endloop
  endfacet
  facet normal 0 0 1
    outer loop
      vertex 79.8 -104.5 -6
      vertex 69.2842 -109.737 -6
      vertex 69.8571 -111.5 -6
    endloop
  endfacet
  facet normal 0 0 1
    outer loop
      vertex 79.8 -104.5 -6
      vertex 67.7842 -108.647 -6
      vertex 69.2842 -109.737 -6
    endloop
  endfacet
  facet normal 0 0 1
    outer loop
      vertex 79.8 -104.5 -6
      vertex 65.9301 -108.647 -6
      vertex 67.7842 -108.647 -6
    endloop
  endfacet
  facet normal 0 0 1
    outer loop
      vertex 64.4301 -109.737 -6
      vertex 36.4286 -111.5 -6
      vertex 63.8571 -111.5 -6
    endloop
  endfacet
  facet normal 0 0 1
    outer loop
      vertex 35.8556 -109.737 -6
      vertex 64.4301 -109.737 -6
      vertex 65.9301 -108.647 -6
    endloop
  endfacet
  facet normal 0 0 1
    outer loop
      vertex 34.3556 -108.647 -6
      vertex 65.9301 -108.647 -6
      vertex 79.8 -104.5 -6
    endloop
  endfacet
  facet normal 0 0 1
    outer loop
      vertex 64.4301 -109.737 -6
      vertex 35.8556 -109.737 -6
      vertex 36.4286 -111.5 -6
    endloop
  endfacet
  facet normal 0 0 1
    outer loop
      vertex 65.9301 -108.647 -6
      vertex 34.3556 -108.647 -6
      vertex 35.8556 -109.737 -6
    endloop
  endfacet
  facet normal 0 0 1
    outer loop
      vertex 79.8 -104.5 -6
      vertex 32.5015 -108.647 -6
      vertex 34.3556 -108.647 -6
    endloop
  endfacet
  facet normal 0 0 1
    outer loop
      vertex 31.0015 -109.737 -6
      vertex 3 -111.5 -6
      vertex 30.4286 -111.5 -6
    endloop
  endfacet
  facet normal 0 0 1
    outer loop
      vertex 2.42705 -109.737 -6
      vertex 31.0015 -109.737 -6
      vertex 32.5015 -108.647 -6
    endloop
  endfacet
  facet normal 0 0 1
    outer loop
      vertex 31.0015 -109.737 -6
      vertex 2.42705 -109.737 -6
      vertex 3 -111.5 -6
    endloop
  endfacet
  facet normal -0 0 1
    outer loop
      vertex -9.21428 -107.5 -6
      vertex 32.5015 -108.647 -6
      vertex 79.8 -104.5 -6
    endloop
  endfacet
  facet normal 0 0 1
    outer loop
      vertex 32.5015 -108.647 -6
      vertex 0.927051 -108.647 -6
      vertex 2.42705 -109.737 -6
    endloop
  endfacet
  facet normal 0 0 1
    outer loop
      vertex 32.5015 -108.647 -6
      vertex -9.21428 -107.5 -6
      vertex 0.927051 -108.647 -6
    endloop
  endfacet
  facet normal 0 0 1
    outer loop
      vertex -2.42705 -109.737 -6
      vertex -9.21428 -107.5 -6
      vertex -3 -111.5 -6
    endloop
  endfacet
  facet normal 0 0 1
    outer loop
      vertex -0.927051 -108.647 -6
      vertex -9.21428 -107.5 -6
      vertex -2.42705 -109.737 -6
    endloop
  endfacet
  facet normal 0 0 1
    outer loop
      vertex 0.927051 -108.647 -6
      vertex -9.21428 -107.5 -6
      vertex -0.927051 -108.647 -6
    endloop
  endfacet
  facet normal -0 0 1
    outer loop
      vertex -79.8 -104.5 -6
      vertex -9.21428 -107.5 -6
      vertex 79.8 -104.5 -6
    endloop
  endfacet
  facet normal 0 0 1
    outer loop
      vertex -24.2143 -107.5 -6
      vertex -30.4286 -111.5 -6
      vertex -24.2143 -115.5 -6
    endloop
  endfacet
  facet normal 0 0 1
    outer loop
      vertex -24.2143 -107.5 -6
      vertex -31.0015 -109.737 -6
      vertex -30.4286 -111.5 -6
    endloop
  endfacet
  facet normal 0 0 1
    outer loop
      vertex -24.2143 -107.5 -6
      vertex -32.5015 -108.647 -6
      vertex -31.0015 -109.737 -6
    endloop
  endfacet
  facet normal 0 0 1
    outer loop
      vertex -24.2143 -107.5 -6
      vertex -34.3556 -108.647 -6
      vertex -32.5015 -108.647 -6
    endloop
  endfacet
  facet normal 0 0 1
    outer loop
      vertex -35.8556 -109.737 -6
      vertex -63.8571 -111.5 -6
      vertex -36.4286 -111.5 -6
    endloop
  endfacet
  facet normal 0 0 1
    outer loop
      vertex -64.4301 -109.737 -6
      vertex -35.8556 -109.737 -6
      vertex -34.3556 -108.647 -6
    endloop
  endfacet
  facet normal 0 0 1
    outer loop
      vertex -79.8 -104.5 -6
      vertex -34.3556 -108.647 -6
      vertex -24.2143 -107.5 -6
    endloop
  endfacet
  facet normal 0 0 1
    outer loop
      vertex -35.8556 -109.737 -6
      vertex -64.4301 -109.737 -6
      vertex -63.8571 -111.5 -6
    endloop
  endfacet
  facet normal 0 0 1
    outer loop
      vertex -34.3556 -108.647 -6
      vertex -65.9301 -108.647 -6
      vertex -64.4301 -109.737 -6
    endloop
  endfacet
  facet normal 0 0 1
    outer loop
      vertex -9.21428 -107.5 -6
      vertex -79.8 -104.5 -6
      vertex -24.2143 -107.5 -6
    endloop
  endfacet
  facet normal 0 0 1
    outer loop
      vertex -34.3556 -108.647 -6
      vertex -79.8 -104.5 -6
      vertex -65.9301 -108.647 -6
    endloop
  endfacet
  facet normal 0 0 1
    outer loop
      vertex -69.2842 -109.737 -6
      vertex -79.8 -104.5 -6
      vertex -69.8571 -111.5 -6
    endloop
  endfacet
  facet normal 0 0 1
    outer loop
      vertex -67.7842 -108.647 -6
      vertex -79.8 -104.5 -6
      vertex -69.2842 -109.737 -6
    endloop
  endfacet
  facet normal 0 0 1
    outer loop
      vertex -65.9301 -108.647 -6
      vertex -79.8 -104.5 -6
      vertex -67.7842 -108.647 -6
    endloop
  endfacet
  facet normal -0 0 1
    outer loop
      vertex 69.2842 -113.263 -6
      vertex 79.8 -117.5 -6
      vertex 69.8571 -111.5 -6
    endloop
  endfacet
  facet normal -0 0 1
    outer loop
      vertex 67.7842 -114.353 -6
      vertex 79.8 -117.5 -6
      vertex 69.2842 -113.263 -6
    endloop
  endfacet
  facet normal -0 0 1
    outer loop
      vertex 65.9301 -114.353 -6
      vertex 79.8 -117.5 -6
      vertex 67.7842 -114.353 -6
    endloop
  endfacet
  facet normal -0 0 1
    outer loop
      vertex 36.4286 -111.5 -6
      vertex 64.4301 -113.263 -6
      vertex 63.8571 -111.5 -6
    endloop
  endfacet
  facet normal 0 0 1
    outer loop
      vertex 35.8556 -113.263 -6
      vertex 64.4301 -113.263 -6
      vertex 36.4286 -111.5 -6
    endloop
  endfacet
  facet normal 0 0 1
    outer loop
      vertex 64.4301 -113.263 -6
      vertex 35.8556 -113.263 -6
      vertex 65.9301 -114.353 -6
    endloop
  endfacet
  facet normal 0 0 1
    outer loop
      vertex 34.3556 -114.353 -6
      vertex 65.9301 -114.353 -6
      vertex 35.8556 -113.263 -6
    endloop
  endfacet
  facet normal 0 0 1
    outer loop
      vertex 65.9301 -114.353 -6
      vertex 34.3556 -114.353 -6
      vertex 79.8 -117.5 -6
    endloop
  endfacet
  facet normal -0 0 1
    outer loop
      vertex 32.5015 -114.353 -6
      vertex 79.8 -117.5 -6
      vertex 34.3556 -114.353 -6
    endloop
  endfacet
  facet normal -0 0 1
    outer loop
      vertex 3 -111.5 -6
      vertex 31.0015 -113.263 -6
      vertex 30.4286 -111.5 -6
    endloop
  endfacet
  facet normal 0 0 1
    outer loop
      vertex 2.42705 -113.263 -6
      vertex 31.0015 -113.263 -6
      vertex 3 -111.5 -6
    endloop
  endfacet
  facet normal 0 0 1
    outer loop
      vertex 31.0015 -113.263 -6
      vertex 2.42705 -113.263 -6
      vertex 32.5015 -114.353 -6
    endloop
  endfacet
  facet normal 0 0 1
    outer loop
      vertex 0.927051 -114.353 -6
      vertex 32.5015 -114.353 -6
      vertex 2.42705 -113.263 -6
    endloop
  endfacet
  facet normal 0 0 1
    outer loop
      vertex -9.21428 -115.5 -6
      vertex 32.5015 -114.353 -6
      vertex 0.927051 -114.353 -6
    endloop
  endfacet
  facet normal 0 0 1
    outer loop
      vertex -9.21428 -115.5 -6
      vertex 0.927051 -114.353 -6
      vertex -0.927051 -114.353 -6
    endloop
  endfacet
  facet normal 0 0 1
    outer loop
      vertex -9.21428 -115.5 -6
      vertex -3 -111.5 -6
      vertex -9.21428 -107.5 -6
    endloop
  endfacet
  facet normal 0 0 1
    outer loop
      vertex -3 -111.5 -6
      vertex -9.21428 -115.5 -6
      vertex -2.42705 -113.263 -6
    endloop
  endfacet
  facet normal 0 0 1
    outer loop
      vertex -9.21428 -115.5 -6
      vertex -0.927051 -114.353 -6
      vertex -2.42705 -113.263 -6
    endloop
  endfacet
  facet normal 0 0 1
    outer loop
      vertex 32.5015 -114.353 -6
      vertex -9.21428 -115.5 -6
      vertex 79.8 -117.5 -6
    endloop
  endfacet
  facet normal 0 0 1
    outer loop
      vertex -79.8 -117.5 -6
      vertex -9.21428 -115.5 -6
      vertex -24.2143 -115.5 -6
    endloop
  endfacet
  facet normal -0 0 1
    outer loop
      vertex -31.0015 -113.263 -6
      vertex -24.2143 -115.5 -6
      vertex -30.4286 -111.5 -6
    endloop
  endfacet
  facet normal -0 0 1
    outer loop
      vertex -32.5015 -114.353 -6
      vertex -24.2143 -115.5 -6
      vertex -31.0015 -113.263 -6
    endloop
  endfacet
  facet normal -0 0 1
    outer loop
      vertex -34.3556 -114.353 -6
      vertex -24.2143 -115.5 -6
      vertex -32.5015 -114.353 -6
    endloop
  endfacet
  facet normal -0 0 1
    outer loop
      vertex -63.8571 -111.5 -6
      vertex -35.8556 -113.263 -6
      vertex -36.4286 -111.5 -6
    endloop
  endfacet
  facet normal 0 0 1
    outer loop
      vertex -64.4301 -113.263 -6
      vertex -35.8556 -113.263 -6
      vertex -63.8571 -111.5 -6
    endloop
  endfacet
  facet normal 0 0 1
    outer loop
      vertex -35.8556 -113.263 -6
      vertex -64.4301 -113.263 -6
      vertex -34.3556 -114.353 -6
    endloop
  endfacet
  facet normal 0 0 1
    outer loop
      vertex -65.9301 -114.353 -6
      vertex -34.3556 -114.353 -6
      vertex -64.4301 -113.263 -6
    endloop
  endfacet
  facet normal 0 0 1
    outer loop
      vertex -79.8 -117.5 -6
      vertex -34.3556 -114.353 -6
      vertex -65.9301 -114.353 -6
    endloop
  endfacet
  facet normal 0 0 1
    outer loop
      vertex -79.8 -117.5 -6
      vertex -65.9301 -114.353 -6
      vertex -67.7842 -114.353 -6
    endloop
  endfacet
  facet normal 0 0 1
    outer loop
      vertex -79.8 -117.5 -6
      vertex -69.8571 -111.5 -6
      vertex -79.8 -104.5 -6
    endloop
  endfacet
  facet normal 0 0 1
    outer loop
      vertex -9.21428 -115.5 -6
      vertex -79.8 -117.5 -6
      vertex 79.8 -117.5 -6
    endloop
  endfacet
  facet normal 0 0 1
    outer loop
      vertex -34.3556 -114.353 -6
      vertex -79.8 -117.5 -6
      vertex -24.2143 -115.5 -6
    endloop
  endfacet
  facet normal 0 0 1
    outer loop
      vertex -69.2842 -113.263 -6
      vertex -79.8 -117.5 -6
      vertex -67.7842 -114.353 -6
    endloop
  endfacet
  facet normal 0 0 1
    outer loop
      vertex -69.8571 -111.5 -6
      vertex -79.8 -117.5 -6
      vertex -69.2842 -113.263 -6
    endloop
  endfacet
  facet normal -0 0 1
    outer loop
      vertex -79.8 -88.5 -6
      vertex 79.8 -102.5 -6
      vertex 79.8 -88.5 -6
    endloop
  endfacet
  facet normal 0 0 1
    outer loop
      vertex 79.8 -102.5 -6
      vertex -79.8 -88.5 -6
      vertex -79.8 -102.5 -6
    endloop
  endfacet
  facet normal 0 -1 0
    outer loop
      vertex -75.8 -119.5 -8
      vertex 75.8 -119.5 -6.79999
      vertex -75.8 -119.5 -6.79999
    endloop
  endfacet
  facet normal 0 -1 -0
    outer loop
      vertex 75.8 -119.5 -6.79999
      vertex -75.8 -119.5 -8
      vertex 75.8 -119.5 -8
    endloop
  endfacet
  facet normal 0 -1 0
    outer loop
      vertex -75.8 -119.5 -6.79999
      vertex -79.8 -119.5 -2.79999
      vertex -79.8 -119.5 -6.79999
    endloop
  endfacet
  facet normal 0 -1 0
    outer loop
      vertex -79.8 -119.5 -2.79999
      vertex -75.8 -119.5 -6.79999
      vertex 79.8 -119.5 -2.79999
    endloop
  endfacet
  facet normal 0 -1 0
    outer loop
      vertex 75.8 -119.5 -6.79999
      vertex 79.8 -119.5 -2.79999
      vertex -75.8 -119.5 -6.79999
    endloop
  endfacet
  facet normal 0 -1 -0
    outer loop
      vertex 79.8 -119.5 -2.79999
      vertex 75.8 -119.5 -6.79999
      vertex 79.8 -119.5 -6.79999
    endloop
  endfacet
  facet normal 0 -1 0
    outer loop
      vertex -79.8 -119.5 -2.79999
      vertex -83.8 -119.5 0
      vertex -82.2 -119.5 -2.79999
    endloop
  endfacet
  facet normal 0 -1 0
    outer loop
      vertex -83.8 -119.5 -3.79999
      vertex -82.2 -119.5 -2.79999
      vertex -83.8 -119.5 0
    endloop
  endfacet
  facet normal 0 -1 -0
    outer loop
      vertex -82.2 -119.5 -2.79999
      vertex -83.8 -119.5 -3.79999
      vertex -82.2 -119.5 -3.79999
    endloop
  endfacet
  facet normal 0 -1 0
    outer loop
      vertex -83.8 -119.5 0
      vertex -79.8 -119.5 -2.79999
      vertex 83.8 -119.5 0
    endloop
  endfacet
  facet normal 0 -1 0
    outer loop
      vertex 79.8 -119.5 -2.79999
      vertex 83.8 -119.5 0
      vertex -79.8 -119.5 -2.79999
    endloop
  endfacet
  facet normal 0 -1 0
    outer loop
      vertex 82.2 -119.5 -2.79999
      vertex 83.8 -119.5 0
      vertex 79.8 -119.5 -2.79999
    endloop
  endfacet
  facet normal 0 -1 0
    outer loop
      vertex 83.8 -119.5 -3.79999
      vertex 82.2 -119.5 -2.79999
      vertex 82.2 -119.5 -3.79999
    endloop
  endfacet
  facet normal 0 -1 0
    outer loop
      vertex 82.2 -119.5 -2.79999
      vertex 83.8 -119.5 -3.79999
      vertex 83.8 -119.5 0
    endloop
  endfacet
  facet normal 0 1 -0
    outer loop
      vertex 75.8 -88.5 -8
      vertex -75.8 -88.5 -6.79999
      vertex 75.8 -88.5 -6.79999
    endloop
  endfacet
  facet normal 0 1 0
    outer loop
      vertex -75.8 -88.5 -6.79999
      vertex 75.8 -88.5 -8
      vertex -75.8 -88.5 -8
    endloop
  endfacet
  facet normal 0 1 0
    outer loop
      vertex 75.8 -88.5 -6.79999
      vertex 79.8 -88.5 -6
      vertex 79.8 -88.5 -6.79999
    endloop
  endfacet
  facet normal 0 1 0
    outer loop
      vertex 79.8 -88.5 -6
      vertex 75.8 -88.5 -6.79999
      vertex -79.8 -88.5 -6
    endloop
  endfacet
  facet normal 0 1 -0
    outer loop
      vertex -75.8 -88.5 -6.79999
      vertex -79.8 -88.5 -6
      vertex 75.8 -88.5 -6.79999
    endloop
  endfacet
  facet normal 0 1 0
    outer loop
      vertex -79.8 -88.5 -6
      vertex -75.8 -88.5 -6.79999
      vertex -79.8 -88.5 -6.79999
    endloop
  endfacet
  facet normal -0 0 1
    outer loop
      vertex -83.8 -117.5 0
      vertex 83.8 -119.5 0
      vertex 83.8 -117.5 0
    endloop
  endfacet
  facet normal 0 0 1
    outer loop
      vertex 83.8 -119.5 0
      vertex -83.8 -117.5 0
      vertex -83.8 -119.5 0
    endloop
  endfacet
  facet normal 0 1 0
    outer loop
      vertex 83.8 -117.5 0
      vertex -79.8 -117.5 -2.79999
      vertex -83.8 -117.5 0
    endloop
  endfacet
  facet normal 0 1 0
    outer loop
      vertex 79.8 -117.5 -2.79999
      vertex 83.8 -117.5 0
      vertex 82.2 -117.5 -2.79999
    endloop
  endfacet
  facet normal 0 1 -0
    outer loop
      vertex 83.8 -117.5 -3.79999
      vertex 82.2 -117.5 -2.79999
      vertex 83.8 -117.5 0
    endloop
  endfacet
  facet normal 0 1 0
    outer loop
      vertex 82.2 -117.5 -2.79999
      vertex 83.8 -117.5 -3.79999
      vertex 82.2 -117.5 -3.79999
    endloop
  endfacet
  facet normal 0 1 -0
    outer loop
      vertex -82.2 -117.5 -2.79999
      vertex -83.8 -117.5 0
      vertex -79.8 -117.5 -2.79999
    endloop
  endfacet
  facet normal 0 1 0
    outer loop
      vertex -83.8 -117.5 -3.79999
      vertex -82.2 -117.5 -2.79999
      vertex -82.2 -117.5 -3.79999
    endloop
  endfacet
  facet normal 0 1 0
    outer loop
      vertex -82.2 -117.5 -2.79999
      vertex -83.8 -117.5 -3.79999
      vertex -83.8 -117.5 0
    endloop
  endfacet
  facet normal 0 1 0
    outer loop
      vertex 83.8 -117.5 0
      vertex 79.8 -117.5 -2.79999
      vertex -79.8 -117.5 -2.79999
    endloop
  endfacet
  facet normal 0 1 -0
    outer loop
      vertex 79.8 -117.5 -6
      vertex -79.8 -117.5 -2.79999
      vertex 79.8 -117.5 -2.79999
    endloop
  endfacet
  facet normal 0 1 0
    outer loop
      vertex -79.8 -117.5 -2.79999
      vertex 79.8 -117.5 -6
      vertex -79.8 -117.5 -6
    endloop
  endfacet
  facet normal -0 0 1
    outer loop
      vertex -79.8 -102.5 -5
      vertex 79.8 -104.5 -5
      vertex 79.8 -102.5 -5
    endloop
  endfacet
  facet normal 0 0 1
    outer loop
      vertex 79.8 -104.5 -5
      vertex -79.8 -102.5 -5
      vertex -79.8 -104.5 -5
    endloop
  endfacet
  facet normal 0 -1 0
    outer loop
      vertex -79.8 -104.5 -6
      vertex 79.8 -104.5 -5
      vertex -79.8 -104.5 -5
    endloop
  endfacet
  facet normal 0 -1 -0
    outer loop
      vertex 79.8 -104.5 -5
      vertex -79.8 -104.5 -6
      vertex 79.8 -104.5 -6
    endloop
  endfacet
  facet normal 0 1 -0
    outer loop
      vertex 79.8 -102.5 -6
      vertex -79.8 -102.5 -5
      vertex 79.8 -102.5 -5
    endloop
  endfacet
  facet normal 0 1 0
    outer loop
      vertex -79.8 -102.5 -5
      vertex 79.8 -102.5 -6
      vertex -79.8 -102.5 -6
    endloop
  endfacet
  facet normal 1 -0 0
    outer loop
      vertex -24.2143 -115.5 -6
      vertex -24.2143 -107.5 -8
      vertex -24.2143 -107.5 -6
    endloop
  endfacet
  facet normal 1 0 0
    outer loop
      vertex -24.2143 -107.5 -8
      vertex -24.2143 -115.5 -6
      vertex -24.2143 -115.5 -8
    endloop
  endfacet
  facet normal -1 0 0
    outer loop
      vertex -9.21428 -115.5 -8
      vertex -9.21428 -107.5 -6
      vertex -9.21428 -107.5 -8
    endloop
  endfacet
  facet normal -1 -0 0
    outer loop
      vertex -9.21428 -107.5 -6
      vertex -9.21428 -115.5 -8
      vertex -9.21428 -115.5 -6
    endloop
  endfacet
  facet normal 0 -1 0
    outer loop
      vertex -24.2143 -107.5 -8
      vertex -9.21428 -107.5 -6
      vertex -24.2143 -107.5 -6
    endloop
  endfacet
  facet normal 0 -1 -0
    outer loop
      vertex -9.21428 -107.5 -6
      vertex -24.2143 -107.5 -8
      vertex -9.21428 -107.5 -8
    endloop
  endfacet
  facet normal 0 1 -0
    outer loop
      vertex -9.21428 -115.5 -8
      vertex -24.2143 -115.5 -6
      vertex -9.21428 -115.5 -6
    endloop
  endfacet
  facet normal 0 1 0
    outer loop
      vertex -24.2143 -115.5 -6
      vertex -9.21428 -115.5 -8
      vertex -24.2143 -115.5 -8
    endloop
  endfacet
  facet normal 0 -1.53818e-08 -1
    outer loop
      vertex -79.8 -119.5 -6.79999
      vertex -75.8 -88.5 -6.79999
      vertex -75.8 -119.5 -6.79999
    endloop
  endfacet
  facet normal -0 -1.53818e-08 -1
    outer loop
      vertex -75.8 -88.5 -6.79999
      vertex -79.8 -119.5 -6.79999
      vertex -79.8 -88.5 -6.79999
    endloop
  endfacet
  facet normal -1 0 0
    outer loop
      vertex -79.8 -88.5 -6.79999
      vertex -79.8 -102.5 -6
      vertex -79.8 -88.5 -6
    endloop
  endfacet
  facet normal -1 0 0
    outer loop
      vertex -79.8 -102.5 -6
      vertex -79.8 -104.5 -6
      vertex -79.8 -102.5 -5
    endloop
  endfacet
  facet normal -1 0 0
    outer loop
      vertex -79.8 -88.5 -6.79999
      vertex -79.8 -104.5 -6
      vertex -79.8 -102.5 -6
    endloop
  endfacet
  facet normal -1 0 0
    outer loop
      vertex -79.8 -119.5 -6.79999
      vertex -79.8 -104.5 -6
      vertex -79.8 -88.5 -6.79999
    endloop
  endfacet
  facet normal -1 -0 0
    outer loop
      vertex -79.8 -104.5 -6
      vertex -79.8 -119.5 -6.79999
      vertex -79.8 -117.5 -6
    endloop
  endfacet
  facet normal -1 0 0
    outer loop
      vertex -79.8 -119.5 -2.79999
      vertex -79.8 -117.5 -6
      vertex -79.8 -119.5 -6.79999
    endloop
  endfacet
  facet normal -1 0 0
    outer loop
      vertex -79.8 -117.5 -6
      vertex -79.8 -119.5 -2.79999
      vertex -79.8 -117.5 -2.79999
    endloop
  endfacet
  facet normal -1 -0 0
    outer loop
      vertex -79.8 -102.5 -5
      vertex -79.8 -104.5 -6
      vertex -79.8 -104.5 -5
    endloop
  endfacet
  facet normal 0 0 -1
    outer loop
      vertex -82.2 -119.5 -2.79999
      vertex -79.8 -117.5 -2.79999
      vertex -79.8 -119.5 -2.79999
    endloop
  endfacet
  facet normal -0 0 -1
    outer loop
      vertex -79.8 -117.5 -2.79999
      vertex -82.2 -119.5 -2.79999
      vertex -82.2 -117.5 -2.79999
    endloop
  endfacet
  facet normal 1 -0 0
    outer loop
      vertex -82.2 -119.5 -2.79999
      vertex -82.2 -117.5 -3.79999
      vertex -82.2 -117.5 -2.79999
    endloop
  endfacet
  facet normal 1 0 0
    outer loop
      vertex -82.2 -117.5 -3.79999
      vertex -82.2 -119.5 -2.79999
      vertex -82.2 -119.5 -3.79999
    endloop
  endfacet
  facet normal 0 0 -1
    outer loop
      vertex -83.8 -119.5 -3.79999
      vertex -82.2 -117.5 -3.79999
      vertex -82.2 -119.5 -3.79999
    endloop
  endfacet
  facet normal -0 0 -1
    outer loop
      vertex -82.2 -117.5 -3.79999
      vertex -83.8 -119.5 -3.79999
      vertex -83.8 -117.5 -3.79999
    endloop
  endfacet
  facet normal -1 0 0
    outer loop
      vertex -83.8 -119.5 -3.79999
      vertex -83.8 -117.5 0
      vertex -83.8 -117.5 -3.79999
    endloop
  endfacet
  facet normal -1 -0 0
    outer loop
      vertex -83.8 -117.5 0
      vertex -83.8 -119.5 -3.79999
      vertex -83.8 -119.5 0
    endloop
  endfacet
  facet normal -1 0 0
    outer loop
      vertex -75.8 -119.5 -8
      vertex -75.8 -88.5 -6.79999
      vertex -75.8 -88.5 -8
    endloop
  endfacet
  facet normal -1 -0 0
    outer loop
      vertex -75.8 -88.5 -6.79999
      vertex -75.8 -119.5 -8
      vertex -75.8 -119.5 -6.79999
    endloop
  endfacet
  facet normal 0 1.53818e-08 -1
    outer loop
      vertex 75.8 -119.5 -6.79999
      vertex 79.8 -88.5 -6.79999
      vertex 79.8 -119.5 -6.79999
    endloop
  endfacet
  facet normal 0 1.53818e-08 -1
    outer loop
      vertex 79.8 -88.5 -6.79999
      vertex 75.8 -119.5 -6.79999
      vertex 75.8 -88.5 -6.79999
    endloop
  endfacet
  facet normal 1 0 0
    outer loop
      vertex 79.8 -117.5 -2.79999
      vertex 79.8 -119.5 -2.79999
      vertex 79.8 -117.5 -6
    endloop
  endfacet
  facet normal 1 0 0
    outer loop
      vertex 79.8 -102.5 -5
      vertex 79.8 -104.5 -5
      vertex 79.8 -102.5 -6
    endloop
  endfacet
  facet normal 1 -0 0
    outer loop
      vertex 79.8 -102.5 -6
      vertex 79.8 -88.5 -6.79999
      vertex 79.8 -88.5 -6
    endloop
  endfacet
  facet normal 1 0 0
    outer loop
      vertex 79.8 -104.5 -6
      vertex 79.8 -102.5 -6
      vertex 79.8 -104.5 -5
    endloop
  endfacet
  facet normal 1 -0 0
    outer loop
      vertex 79.8 -104.5 -6
      vertex 79.8 -88.5 -6.79999
      vertex 79.8 -102.5 -6
    endloop
  endfacet
  facet normal 1 0 0
    outer loop
      vertex 79.8 -119.5 -6.79999
      vertex 79.8 -104.5 -6
      vertex 79.8 -117.5 -6
    endloop
  endfacet
  facet normal 1 0 0
    outer loop
      vertex 79.8 -104.5 -6
      vertex 79.8 -119.5 -6.79999
      vertex 79.8 -88.5 -6.79999
    endloop
  endfacet
  facet normal 1 0 0
    outer loop
      vertex 79.8 -119.5 -6.79999
      vertex 79.8 -117.5 -6
      vertex 79.8 -119.5 -2.79999
    endloop
  endfacet
  facet normal 0 0 -1
    outer loop
      vertex 79.8 -119.5 -2.79999
      vertex 82.2 -117.5 -2.79999
      vertex 82.2 -119.5 -2.79999
    endloop
  endfacet
  facet normal -0 0 -1
    outer loop
      vertex 82.2 -117.5 -2.79999
      vertex 79.8 -119.5 -2.79999
      vertex 79.8 -117.5 -2.79999
    endloop
  endfacet
  facet normal -1 0 0
    outer loop
      vertex 82.2 -119.5 -3.79999
      vertex 82.2 -117.5 -2.79999
      vertex 82.2 -117.5 -3.79999
    endloop
  endfacet
  facet normal -1 -0 0
    outer loop
      vertex 82.2 -117.5 -2.79999
      vertex 82.2 -119.5 -3.79999
      vertex 82.2 -119.5 -2.79999
    endloop
  endfacet
  facet normal 0 0 -1
    outer loop
      vertex 82.2 -119.5 -3.79999
      vertex 83.8 -117.5 -3.79999
      vertex 83.8 -119.5 -3.79999
    endloop
  endfacet
  facet normal -0 0 -1
    outer loop
      vertex 83.8 -117.5 -3.79999
      vertex 82.2 -119.5 -3.79999
      vertex 82.2 -117.5 -3.79999
    endloop
  endfacet
  facet normal 1 -0 0
    outer loop
      vertex 83.8 -119.5 0
      vertex 83.8 -117.5 -3.79999
      vertex 83.8 -117.5 0
    endloop
  endfacet
  facet normal 1 0 0
    outer loop
      vertex 83.8 -117.5 -3.79999
      vertex 83.8 -119.5 0
      vertex 83.8 -119.5 -3.79999
    endloop
  endfacet
  facet normal 1 -0 0
    outer loop
      vertex 75.8 -119.5 -6.79999
      vertex 75.8 -88.5 -8
      vertex 75.8 -88.5 -6.79999
    endloop
  endfacet
  facet normal 1 0 0
    outer loop
      vertex 75.8 -88.5 -8
      vertex 75.8 -119.5 -6.79999
      vertex 75.8 -119.5 -8
    endloop
  endfacet
endsolid OpenSCAD_Model
