solid OpenSCAD_Model
  facet normal 0 0 -1
    outer loop
      vertex -75.9 78.5 -8
      vertex 75.9 97.5 -8
      vertex 75.9 78.5 -8
    endloop
  endfacet
  facet normal -0 0 -1
    outer loop
      vertex 75.9 97.5 -8
      vertex -75.9 78.5 -8
      vertex -75.9 97.5 -8
    endloop
  endfacet
  facet normal -0 0 1
    outer loop
      vertex -79.9 95.5 -6
      vertex 79.9 78.5 -6
      vertex 79.9 95.5 -6
    endloop
  endfacet
  facet normal 0 0 1
    outer loop
      vertex 79.9 78.5 -6
      vertex -79.9 95.5 -6
      vertex -79.9 78.5 -6
    endloop
  endfacet
  facet normal 0 1 -0
    outer loop
      vertex 75.9 97.5 -8
      vertex -75.9 97.5 -6.89999
      vertex 75.9 97.5 -6.89999
    endloop
  endfacet
  facet normal 0 1 0
    outer loop
      vertex -75.9 97.5 -6.89999
      vertex 75.9 97.5 -8
      vertex -75.9 97.5 -8
    endloop
  endfacet
  facet normal 0 1 0
    outer loop
      vertex 75.9 97.5 -6.89999
      vertex 79.9 97.5 -0.899993
      vertex 79.9 97.5 -6.89999
    endloop
  endfacet
  facet normal 0 1 0
    outer loop
      vertex 79.9 97.5 -0.899993
      vertex 75.9 97.5 -6.89999
      vertex -79.9 97.5 -0.899994
    endloop
  endfacet
  facet normal 0 1 -0
    outer loop
      vertex -75.9 97.5 -6.89999
      vertex -79.9 97.5 -0.899994
      vertex 75.9 97.5 -6.89999
    endloop
  endfacet
  facet normal 0 1 0
    outer loop
      vertex -79.9 97.5 -0.899994
      vertex -75.9 97.5 -6.89999
      vertex -79.9 97.5 -6.89999
    endloop
  endfacet
  facet normal 0 1 0
    outer loop
      vertex 79.9 97.5 -0.899993
      vertex 83.9 97.5 0
      vertex 82.1 97.5 -0.899993
    endloop
  endfacet
  facet normal 0 1 -0
    outer loop
      vertex 83.9 97.5 -1.89999
      vertex 82.1 97.5 -0.899993
      vertex 83.9 97.5 0
    endloop
  endfacet
  facet normal 0 1 0
    outer loop
      vertex 82.1 97.5 -0.899993
      vertex 83.9 97.5 -1.89999
      vertex 82.1 97.5 -1.89999
    endloop
  endfacet
  facet normal 0 1 0
    outer loop
      vertex 83.9 97.5 0
      vertex 79.9 97.5 -0.899993
      vertex -83.9 97.5 0
    endloop
  endfacet
  facet normal 0 1 -0
    outer loop
      vertex -79.9 97.5 -0.899994
      vertex -83.9 97.5 0
      vertex 79.9 97.5 -0.899993
    endloop
  endfacet
  facet normal 0 1 -0
    outer loop
      vertex -82.1 97.5 -0.899994
      vertex -83.9 97.5 0
      vertex -79.9 97.5 -0.899994
    endloop
  endfacet
  facet normal 0 1 0
    outer loop
      vertex -83.9 97.5 -1.89999
      vertex -82.1 97.5 -0.899994
      vertex -82.1 97.5 -1.89999
    endloop
  endfacet
  facet normal 0 1 0
    outer loop
      vertex -82.1 97.5 -0.899994
      vertex -83.9 97.5 -1.89999
      vertex -83.9 97.5 0
    endloop
  endfacet
  facet normal 0 -1 0
    outer loop
      vertex -75.9 78.5 -8
      vertex 75.9 78.5 -6.89999
      vertex -75.9 78.5 -6.89999
    endloop
  endfacet
  facet normal 0 -1 -0
    outer loop
      vertex 75.9 78.5 -6.89999
      vertex -75.9 78.5 -8
      vertex 75.9 78.5 -8
    endloop
  endfacet
  facet normal 0 -1 0
    outer loop
      vertex -75.9 78.5 -6.89999
      vertex -79.9 78.5 -6
      vertex -79.9 78.5 -6.89999
    endloop
  endfacet
  facet normal 0 -1 0
    outer loop
      vertex -79.9 78.5 -6
      vertex -75.9 78.5 -6.89999
      vertex 79.9 78.5 -6
    endloop
  endfacet
  facet normal 0 -1 0
    outer loop
      vertex 75.9 78.5 -6.89999
      vertex 79.9 78.5 -6
      vertex -75.9 78.5 -6.89999
    endloop
  endfacet
  facet normal 0 -1 -0
    outer loop
      vertex 79.9 78.5 -6
      vertex 75.9 78.5 -6.89999
      vertex 79.9 78.5 -6.89999
    endloop
  endfacet
  facet normal -0 0 1
    outer loop
      vertex -83.9 97.5 0
      vertex 83.9 95.5 0
      vertex 83.9 97.5 0
    endloop
  endfacet
  facet normal 0 0 1
    outer loop
      vertex 83.9 95.5 0
      vertex -83.9 97.5 0
      vertex -83.9 95.5 0
    endloop
  endfacet
  facet normal 0 -1 0
    outer loop
      vertex -83.9 95.5 0
      vertex 79.9 95.5 -0.899993
      vertex 83.9 95.5 0
    endloop
  endfacet
  facet normal 0 -1 0
    outer loop
      vertex -79.9 95.5 -0.899994
      vertex -83.9 95.5 0
      vertex -82.1 95.5 -0.899994
    endloop
  endfacet
  facet normal 0 -1 0
    outer loop
      vertex -83.9 95.5 -1.89999
      vertex -82.1 95.5 -0.899994
      vertex -83.9 95.5 0
    endloop
  endfacet
  facet normal 0 -1 -0
    outer loop
      vertex -82.1 95.5 -0.899994
      vertex -83.9 95.5 -1.89999
      vertex -82.1 95.5 -1.89999
    endloop
  endfacet
  facet normal 0 -1 0
    outer loop
      vertex 82.1 95.5 -0.899993
      vertex 83.9 95.5 0
      vertex 79.9 95.5 -0.899993
    endloop
  endfacet
  facet normal 0 -1 0
    outer loop
      vertex 83.9 95.5 -1.89999
      vertex 82.1 95.5 -0.899993
      vertex 82.1 95.5 -1.89999
    endloop
  endfacet
  facet normal 0 -1 0
    outer loop
      vertex 82.1 95.5 -0.899993
      vertex 83.9 95.5 -1.89999
      vertex 83.9 95.5 0
    endloop
  endfacet
  facet normal 0 -1 0
    outer loop
      vertex -83.9 95.5 0
      vertex -79.9 95.5 -0.899994
      vertex 79.9 95.5 -0.899993
    endloop
  endfacet
  facet normal 0 -1 0
    outer loop
      vertex -79.9 95.5 -6
      vertex 79.9 95.5 -0.899993
      vertex -79.9 95.5 -0.899994
    endloop
  endfacet
  facet normal 0 -1 -0
    outer loop
      vertex 79.9 95.5 -0.899993
      vertex -79.9 95.5 -6
      vertex 79.9 95.5 -6
    endloop
  endfacet
  facet normal 0 -2.50967e-08 -1
    outer loop
      vertex -79.9 78.5 -6.89999
      vertex -75.9 97.5 -6.89999
      vertex -75.9 78.5 -6.89999
    endloop
  endfacet
  facet normal -0 -2.50967e-08 -1
    outer loop
      vertex -75.9 97.5 -6.89999
      vertex -79.9 78.5 -6.89999
      vertex -79.9 97.5 -6.89999
    endloop
  endfacet
  facet normal -1 0 0
    outer loop
      vertex -79.9 97.5 -6.89999
      vertex -79.9 95.5 -6
      vertex -79.9 97.5 -0.899994
    endloop
  endfacet
  facet normal -1 0 0
    outer loop
      vertex -79.9 78.5 -6.89999
      vertex -79.9 95.5 -6
      vertex -79.9 97.5 -6.89999
    endloop
  endfacet
  facet normal -1 -0 0
    outer loop
      vertex -79.9 95.5 -6
      vertex -79.9 78.5 -6.89999
      vertex -79.9 78.5 -6
    endloop
  endfacet
  facet normal -1 -0 0
    outer loop
      vertex -79.9 97.5 -0.899994
      vertex -79.9 95.5 -6
      vertex -79.9 95.5 -0.899994
    endloop
  endfacet
  facet normal 0 0 -1
    outer loop
      vertex -82.1 95.5 -0.899994
      vertex -79.9 97.5 -0.899994
      vertex -79.9 95.5 -0.899994
    endloop
  endfacet
  facet normal -0 0 -1
    outer loop
      vertex -79.9 97.5 -0.899994
      vertex -82.1 95.5 -0.899994
      vertex -82.1 97.5 -0.899994
    endloop
  endfacet
  facet normal 1 -0 0
    outer loop
      vertex -82.1 95.5 -0.899994
      vertex -82.1 97.5 -1.89999
      vertex -82.1 97.5 -0.899994
    endloop
  endfacet
  facet normal 1 0 0
    outer loop
      vertex -82.1 97.5 -1.89999
      vertex -82.1 95.5 -0.899994
      vertex -82.1 95.5 -1.89999
    endloop
  endfacet
  facet normal 0 0 -1
    outer loop
      vertex -83.9 95.5 -1.89999
      vertex -82.1 97.5 -1.89999
      vertex -82.1 95.5 -1.89999
    endloop
  endfacet
  facet normal -0 0 -1
    outer loop
      vertex -82.1 97.5 -1.89999
      vertex -83.9 95.5 -1.89999
      vertex -83.9 97.5 -1.89999
    endloop
  endfacet
  facet normal -1 0 0
    outer loop
      vertex -83.9 95.5 -1.89999
      vertex -83.9 97.5 0
      vertex -83.9 97.5 -1.89999
    endloop
  endfacet
  facet normal -1 -0 0
    outer loop
      vertex -83.9 97.5 0
      vertex -83.9 95.5 -1.89999
      vertex -83.9 95.5 0
    endloop
  endfacet
  facet normal -1 0 0
    outer loop
      vertex -75.9 78.5 -8
      vertex -75.9 97.5 -6.89999
      vertex -75.9 97.5 -8
    endloop
  endfacet
  facet normal -1 -0 0
    outer loop
      vertex -75.9 97.5 -6.89999
      vertex -75.9 78.5 -8
      vertex -75.9 78.5 -6.89999
    endloop
  endfacet
  facet normal 0 2.50967e-08 -1
    outer loop
      vertex 75.9 78.5 -6.89999
      vertex 79.9 97.5 -6.89999
      vertex 79.9 78.5 -6.89999
    endloop
  endfacet
  facet normal 0 2.50967e-08 -1
    outer loop
      vertex 79.9 97.5 -6.89999
      vertex 75.9 78.5 -6.89999
      vertex 75.9 97.5 -6.89999
    endloop
  endfacet
  facet normal 1 0 0
    outer loop
      vertex 79.9 95.5 -6
      vertex 79.9 97.5 -0.899993
      vertex 79.9 95.5 -0.899993
    endloop
  endfacet
  facet normal 1 0 0
    outer loop
      vertex 79.9 97.5 -0.899993
      vertex 79.9 95.5 -6
      vertex 79.9 97.5 -6.89999
    endloop
  endfacet
  facet normal 1 0 0
    outer loop
      vertex 79.9 78.5 -6.89999
      vertex 79.9 95.5 -6
      vertex 79.9 78.5 -6
    endloop
  endfacet
  facet normal 1 0 0
    outer loop
      vertex 79.9 95.5 -6
      vertex 79.9 78.5 -6.89999
      vertex 79.9 97.5 -6.89999
    endloop
  endfacet
  facet normal 0 0 -1
    outer loop
      vertex 79.9 95.5 -0.899993
      vertex 82.1 97.5 -0.899993
      vertex 82.1 95.5 -0.899993
    endloop
  endfacet
  facet normal -0 0 -1
    outer loop
      vertex 82.1 97.5 -0.899993
      vertex 79.9 95.5 -0.899993
      vertex 79.9 97.5 -0.899993
    endloop
  endfacet
  facet normal -1 0 0
    outer loop
      vertex 82.1 95.5 -1.89999
      vertex 82.1 97.5 -0.899993
      vertex 82.1 97.5 -1.89999
    endloop
  endfacet
  facet normal -1 -0 0
    outer loop
      vertex 82.1 97.5 -0.899993
      vertex 82.1 95.5 -1.89999
      vertex 82.1 95.5 -0.899993
    endloop
  endfacet
  facet normal 0 0 -1
    outer loop
      vertex 82.1 95.5 -1.89999
      vertex 83.9 97.5 -1.89999
      vertex 83.9 95.5 -1.89999
    endloop
  endfacet
  facet normal -0 0 -1
    outer loop
      vertex 83.9 97.5 -1.89999
      vertex 82.1 95.5 -1.89999
      vertex 82.1 97.5 -1.89999
    endloop
  endfacet
  facet normal 1 -0 0
    outer loop
      vertex 83.9 95.5 0
      vertex 83.9 97.5 -1.89999
      vertex 83.9 97.5 0
    endloop
  endfacet
  facet normal 1 0 0
    outer loop
      vertex 83.9 97.5 -1.89999
      vertex 83.9 95.5 0
      vertex 83.9 95.5 -1.89999
    endloop
  endfacet
  facet normal 1 -0 0
    outer loop
      vertex 75.9 78.5 -6.89999
      vertex 75.9 97.5 -8
      vertex 75.9 97.5 -6.89999
    endloop
  endfacet
  facet normal 1 0 0
    outer loop
      vertex 75.9 97.5 -8
      vertex 75.9 78.5 -6.89999
      vertex 75.9 78.5 -8
    endloop
  endfacet
endsolid OpenSCAD_Model
