solid OpenSCAD_Model
  facet normal -0 1.22465e-16 1
    outer loop
      vertex -71 -94.5 9.12362e-15
      vertex 71 -97.5 9.49101e-15
      vertex 71 -94.5 9.12362e-15
    endloop
  endfacet
  facet normal 0 1.22465e-16 1
    outer loop
      vertex 71 -97.5 9.49101e-15
      vertex -71 -94.5 9.12362e-15
      vertex -71 -97.5 9.49101e-15
    endloop
  endfacet
  facet normal -0 1.22465e-16 1
    outer loop
      vertex -71 -83.5 7.77651e-15
      vertex 71 -92.5 8.87869e-15
      vertex 71 -83.5 7.77651e-15
    endloop
  endfacet
  facet normal 0 1.22465e-16 1
    outer loop
      vertex 71 -92.5 8.87869e-15
      vertex -71 -83.5 7.77651e-15
      vertex -71 -92.5 8.87869e-15
    endloop
  endfacet
  facet normal -0 0 1
    outer loop
      vertex -75 -92.5 5
      vertex 75 -94.5 5
      vertex 75 -92.5 5
    endloop
  endfacet
  facet normal 0 0 1
    outer loop
      vertex 75 -94.5 5
      vertex -75 -92.5 5
      vertex -75 -94.5 5
    endloop
  endfacet
  facet normal 0 -1 0
    outer loop
      vertex -71 -94.5 9.12362e-15
      vertex 71 -94.5 3
      vertex -71 -94.5 3
    endloop
  endfacet
  facet normal 0 -1 -0
    outer loop
      vertex 71 -94.5 3
      vertex -71 -94.5 9.12362e-15
      vertex 71 -94.5 9.12362e-15
    endloop
  endfacet
  facet normal 0 -1 0
    outer loop
      vertex -71 -94.5 3
      vertex -75 -94.5 5
      vertex -73 -94.5 3
    endloop
  endfacet
  facet normal 0 -1 0
    outer loop
      vertex -75 -94.5 2
      vertex -73 -94.5 3
      vertex -75 -94.5 5
    endloop
  endfacet
  facet normal 0 -1 -0
    outer loop
      vertex -73 -94.5 3
      vertex -75 -94.5 2
      vertex -73 -94.5 2
    endloop
  endfacet
  facet normal 0 -1 0
    outer loop
      vertex -75 -94.5 5
      vertex -71 -94.5 3
      vertex 75 -94.5 5
    endloop
  endfacet
  facet normal 0 -1 0
    outer loop
      vertex 71 -94.5 3
      vertex 75 -94.5 5
      vertex -71 -94.5 3
    endloop
  endfacet
  facet normal 0 -1 0
    outer loop
      vertex 73 -94.5 3
      vertex 75 -94.5 5
      vertex 71 -94.5 3
    endloop
  endfacet
  facet normal 0 -1 0
    outer loop
      vertex 75 -94.5 2
      vertex 73 -94.5 3
      vertex 73 -94.5 2
    endloop
  endfacet
  facet normal 0 -1 0
    outer loop
      vertex 73 -94.5 3
      vertex 75 -94.5 2
      vertex 75 -94.5 5
    endloop
  endfacet
  facet normal 0 1 0
    outer loop
      vertex 75 -92.5 5
      vertex -71 -92.5 3
      vertex -75 -92.5 5
    endloop
  endfacet
  facet normal 0 1 0
    outer loop
      vertex 71 -92.5 3
      vertex 75 -92.5 5
      vertex 73 -92.5 3
    endloop
  endfacet
  facet normal 0 1 -0
    outer loop
      vertex 75 -92.5 2
      vertex 73 -92.5 3
      vertex 75 -92.5 5
    endloop
  endfacet
  facet normal 0 1 0
    outer loop
      vertex 73 -92.5 3
      vertex 75 -92.5 2
      vertex 73 -92.5 2
    endloop
  endfacet
  facet normal 0 1 -0
    outer loop
      vertex -73 -92.5 3
      vertex -75 -92.5 5
      vertex -71 -92.5 3
    endloop
  endfacet
  facet normal 0 1 0
    outer loop
      vertex -75 -92.5 2
      vertex -73 -92.5 3
      vertex -73 -92.5 2
    endloop
  endfacet
  facet normal 0 1 0
    outer loop
      vertex -73 -92.5 3
      vertex -75 -92.5 2
      vertex -75 -92.5 5
    endloop
  endfacet
  facet normal 0 1 0
    outer loop
      vertex 75 -92.5 5
      vertex 71 -92.5 3
      vertex -71 -92.5 3
    endloop
  endfacet
  facet normal 0 1 -0
    outer loop
      vertex 71 -92.5 8.87869e-15
      vertex -71 -92.5 3
      vertex 71 -92.5 3
    endloop
  endfacet
  facet normal 0 1 0
    outer loop
      vertex -71 -92.5 3
      vertex 71 -92.5 8.87869e-15
      vertex -71 -92.5 8.87869e-15
    endloop
  endfacet
  facet normal 0 0 -1
    outer loop
      vertex -66 -96.1667 -4
      vertex 66 -84.77 -4
      vertex 66 -96.1667 -4
    endloop
  endfacet
  facet normal -0 0 -1
    outer loop
      vertex 66 -84.77 -4
      vertex -66 -96.1667 -4
      vertex -66 -84.77 -4
    endloop
  endfacet
  facet normal -1.14239e-09 -0.948678 -0.316242
    outer loop
      vertex -66 -96.7821 -2.15385
      vertex 66 -96.8333 -2
      vertex -66 -96.8333 -2
    endloop
  endfacet
  facet normal -1.85155e-08 -0.948683 -0.316229
    outer loop
      vertex 66 -96.8333 -2
      vertex -66 -96.7821 -2.15385
      vertex 66 -96.2179 -3.84615
    endloop
  endfacet
  facet normal -0 -0.948684 -0.316227
    outer loop
      vertex -66 -96.8333 -2
      vertex -71 -97.5 9.49101e-15
      vertex -68 -96.8333 -2
    endloop
  endfacet
  facet normal -7.94035e-08 -0.948684 -0.316227
    outer loop
      vertex -71 -96.8034 -2.08974
      vertex -68 -96.8333 -2
      vertex -71 -97.5 9.49101e-15
    endloop
  endfacet
  facet normal 9.87661e-07 -0.948673 -0.316259
    outer loop
      vertex -68 -96.8333 -2
      vertex -71 -96.8034 -2.08974
      vertex -68 -96.7906 -2.1282
    endloop
  endfacet
  facet normal 0 -0.948684 -0.316227
    outer loop
      vertex -71 -97.5 9.49101e-15
      vertex -66 -96.8333 -2
      vertex 71 -97.5 9.49101e-15
    endloop
  endfacet
  facet normal -1.14234e-09 -0.948684 -0.316227
    outer loop
      vertex 66 -96.8333 -2
      vertex 71 -97.5 9.49101e-15
      vertex -66 -96.8333 -2
    endloop
  endfacet
  facet normal -0 -0.948684 -0.316227
    outer loop
      vertex 68 -96.8333 -2
      vertex 71 -97.5 9.49101e-15
      vertex 66 -96.8333 -2
    endloop
  endfacet
  facet normal -0 -0.948683 -0.31623
    outer loop
      vertex 71 -96.5 -3
      vertex 68 -96.8333 -2
      vertex 68 -96.5 -3
    endloop
  endfacet
  facet normal 7.95832e-07 -0.948683 -0.316228
    outer loop
      vertex 68 -96.8333 -2
      vertex 71 -96.5 -3
      vertex 71 -97.5 9.49101e-15
    endloop
  endfacet
  facet normal 1.40064e-06 -0.948683 -0.31623
    outer loop
      vertex -71 -96.5 -3
      vertex -68 -96.7906 -2.1282
      vertex -71 -96.8034 -2.08974
    endloop
  endfacet
  facet normal 0 -0.948684 -0.316226
    outer loop
      vertex -68 -96.7906 -2.1282
      vertex -71 -96.5 -3
      vertex -68 -96.5 -3
    endloop
  endfacet
  facet normal -1.69447e-08 -0.948683 -0.316229
    outer loop
      vertex -66 -96.1667 -4
      vertex 66 -96.2179 -3.84615
      vertex -66 -96.7821 -2.15385
    endloop
  endfacet
  facet normal 0 -0.948679 -0.316242
    outer loop
      vertex 66 -96.2179 -3.84615
      vertex -66 -96.1667 -4
      vertex 66 -96.1667 -4
    endloop
  endfacet
  facet normal 0 0.953113 -0.302615
    outer loop
      vertex 71 -83.5 7.77651e-15
      vertex -66 -84.135 -2
      vertex -71 -83.5 7.77651e-15
    endloop
  endfacet
  facet normal 0 0.953113 -0.302614
    outer loop
      vertex 66 -84.135 -2
      vertex 71 -83.5 7.77651e-15
      vertex 68 -84.135 -2
    endloop
  endfacet
  facet normal -8.15981e-07 0.953113 -0.302613
    outer loop
      vertex 71 -84.4525 -3
      vertex 68 -84.135 -2
      vertex 71 -83.5 7.77651e-15
    endloop
  endfacet
  facet normal 0 0.953114 -0.302611
    outer loop
      vertex 68 -84.135 -2
      vertex 71 -84.4525 -3
      vertex 68 -84.4525 -3
    endloop
  endfacet
  facet normal 0 0.953113 -0.302615
    outer loop
      vertex -68 -84.135 -2
      vertex -71 -83.5 7.77651e-15
      vertex -66 -84.135 -2
    endloop
  endfacet
  facet normal 0 0.953114 -0.302611
    outer loop
      vertex -71 -84.4525 -3
      vertex -68 -84.135 -2
      vertex -68 -84.4525 -3
    endloop
  endfacet
  facet normal 8.32014e-07 0.953113 -0.302613
    outer loop
      vertex -68 -84.135 -2
      vertex -71 -84.4525 -3
      vertex -71 -83.5 7.77651e-15
    endloop
  endfacet
  facet normal -1.09317e-09 0.953113 -0.302614
    outer loop
      vertex 71 -83.5 7.77651e-15
      vertex 66 -84.135 -2
      vertex -66 -84.135 -2
    endloop
  endfacet
  facet normal -1.09315e-09 0.953114 -0.302611
    outer loop
      vertex 66 -84.77 -4
      vertex -66 -84.135 -2
      vertex 66 -84.135 -2
    endloop
  endfacet
  facet normal 0 0.953114 -0.302611
    outer loop
      vertex -66 -84.135 -2
      vertex 66 -84.77 -4
      vertex -66 -84.77 -4
    endloop
  endfacet
  facet normal 0 0 -1
    outer loop
      vertex -75 -94.5 2
      vertex -73 -92.5 2
      vertex -73 -94.5 2
    endloop
  endfacet
  facet normal -0 0 -1
    outer loop
      vertex -73 -92.5 2
      vertex -75 -94.5 2
      vertex -75 -92.5 2
    endloop
  endfacet
  facet normal 1 -0 0
    outer loop
      vertex -73 -94.5 3
      vertex -73 -92.5 2
      vertex -73 -92.5 3
    endloop
  endfacet
  facet normal 1 0 0
    outer loop
      vertex -73 -92.5 2
      vertex -73 -94.5 3
      vertex -73 -94.5 2
    endloop
  endfacet
  facet normal 0 0 -1
    outer loop
      vertex -73 -94.5 3
      vertex -71 -92.5 3
      vertex -71 -94.5 3
    endloop
  endfacet
  facet normal -0 0 -1
    outer loop
      vertex -71 -92.5 3
      vertex -73 -94.5 3
      vertex -73 -92.5 3
    endloop
  endfacet
  facet normal -1 0 0
    outer loop
      vertex -71 -84.4525 -3
      vertex -71 -92.5 8.87869e-15
      vertex -71 -83.5 7.77651e-15
    endloop
  endfacet
  facet normal -1 0 0
    outer loop
      vertex -71 -92.5 8.87869e-15
      vertex -71 -94.5 9.12362e-15
      vertex -71 -92.5 3
    endloop
  endfacet
  facet normal -1 0 0
    outer loop
      vertex -71 -96.5 -3
      vertex -71 -92.5 8.87869e-15
      vertex -71 -84.4525 -3
    endloop
  endfacet
  facet normal -1 -0 0
    outer loop
      vertex -71 -92.5 8.87869e-15
      vertex -71 -96.5 -3
      vertex -71 -94.5 9.12362e-15
    endloop
  endfacet
  facet normal -1 0 0
    outer loop
      vertex -71 -96.8034 -2.08974
      vertex -71 -94.5 9.12362e-15
      vertex -71 -96.5 -3
    endloop
  endfacet
  facet normal -1 -0 0
    outer loop
      vertex -71 -94.5 9.12362e-15
      vertex -71 -96.8034 -2.08974
      vertex -71 -97.5 9.49101e-15
    endloop
  endfacet
  facet normal -1 -0 0
    outer loop
      vertex -71 -92.5 3
      vertex -71 -94.5 9.12362e-15
      vertex -71 -94.5 3
    endloop
  endfacet
  facet normal 0 0 -1
    outer loop
      vertex -71 -96.5 -3
      vertex -68 -84.4525 -3
      vertex -68 -96.5 -3
    endloop
  endfacet
  facet normal -0 0 -1
    outer loop
      vertex -68 -84.4525 -3
      vertex -71 -96.5 -3
      vertex -71 -84.4525 -3
    endloop
  endfacet
  facet normal 1 0 0
    outer loop
      vertex -68 -84.135 -2
      vertex -68 -96.5 -3
      vertex -68 -84.4525 -3
    endloop
  endfacet
  facet normal 1 0 0
    outer loop
      vertex -68 -84.135 -2
      vertex -68 -96.7906 -2.1282
      vertex -68 -96.5 -3
    endloop
  endfacet
  facet normal 1 0 -0
    outer loop
      vertex -68 -96.7906 -2.1282
      vertex -68 -84.135 -2
      vertex -68 -96.8333 -2
    endloop
  endfacet
  facet normal 0 0 -1
    outer loop
      vertex -68 -96.8333 -2
      vertex -66 -84.135 -2
      vertex -66 -96.8333 -2
    endloop
  endfacet
  facet normal -0 0 -1
    outer loop
      vertex -66 -84.135 -2
      vertex -68 -96.8333 -2
      vertex -68 -84.135 -2
    endloop
  endfacet
  facet normal -1 0 0
    outer loop
      vertex -66 -96.1667 -4
      vertex -66 -84.135 -2
      vertex -66 -84.77 -4
    endloop
  endfacet
  facet normal -1 0 0
    outer loop
      vertex -66 -96.7821 -2.15385
      vertex -66 -84.135 -2
      vertex -66 -96.1667 -4
    endloop
  endfacet
  facet normal -1 -0 0
    outer loop
      vertex -66 -84.135 -2
      vertex -66 -96.7821 -2.15385
      vertex -66 -96.8333 -2
    endloop
  endfacet
  facet normal -1 0 0
    outer loop
      vertex -75 -94.5 2
      vertex -75 -92.5 5
      vertex -75 -92.5 2
    endloop
  endfacet
  facet normal -1 -0 0
    outer loop
      vertex -75 -92.5 5
      vertex -75 -94.5 2
      vertex -75 -94.5 5
    endloop
  endfacet
  facet normal 0 0 -1
    outer loop
      vertex 73 -94.5 2
      vertex 75 -92.5 2
      vertex 75 -94.5 2
    endloop
  endfacet
  facet normal -0 0 -1
    outer loop
      vertex 75 -92.5 2
      vertex 73 -94.5 2
      vertex 73 -92.5 2
    endloop
  endfacet
  facet normal -1 0 0
    outer loop
      vertex 73 -94.5 2
      vertex 73 -92.5 3
      vertex 73 -92.5 2
    endloop
  endfacet
  facet normal -1 -0 0
    outer loop
      vertex 73 -92.5 3
      vertex 73 -94.5 2
      vertex 73 -94.5 3
    endloop
  endfacet
  facet normal 0 0 -1
    outer loop
      vertex 71 -94.5 3
      vertex 73 -92.5 3
      vertex 73 -94.5 3
    endloop
  endfacet
  facet normal -0 0 -1
    outer loop
      vertex 73 -92.5 3
      vertex 71 -94.5 3
      vertex 71 -92.5 3
    endloop
  endfacet
  facet normal 1 0 0
    outer loop
      vertex 71 -92.5 3
      vertex 71 -94.5 3
      vertex 71 -92.5 8.87869e-15
    endloop
  endfacet
  facet normal 1 0 0
    outer loop
      vertex 71 -92.5 8.87869e-15
      vertex 71 -84.4525 -3
      vertex 71 -83.5 7.77651e-15
    endloop
  endfacet
  facet normal 1 -0 0
    outer loop
      vertex 71 -94.5 9.12362e-15
      vertex 71 -92.5 8.87869e-15
      vertex 71 -94.5 3
    endloop
  endfacet
  facet normal 1 0 0
    outer loop
      vertex 71 -96.5 -3
      vertex 71 -92.5 8.87869e-15
      vertex 71 -94.5 9.12362e-15
    endloop
  endfacet
  facet normal 1 0 0
    outer loop
      vertex 71 -92.5 8.87869e-15
      vertex 71 -96.5 -3
      vertex 71 -84.4525 -3
    endloop
  endfacet
  facet normal 1 0 -0
    outer loop
      vertex 71 -96.5 -3
      vertex 71 -94.5 9.12362e-15
      vertex 71 -97.5 9.49101e-15
    endloop
  endfacet
  facet normal 0 0 -1
    outer loop
      vertex 68 -96.5 -3
      vertex 71 -84.4525 -3
      vertex 71 -96.5 -3
    endloop
  endfacet
  facet normal -0 0 -1
    outer loop
      vertex 71 -84.4525 -3
      vertex 68 -96.5 -3
      vertex 68 -84.4525 -3
    endloop
  endfacet
  facet normal -1 0 0
    outer loop
      vertex 68 -96.5 -3
      vertex 68 -84.135 -2
      vertex 68 -84.4525 -3
    endloop
  endfacet
  facet normal -1 -0 0
    outer loop
      vertex 68 -84.135 -2
      vertex 68 -96.5 -3
      vertex 68 -96.8333 -2
    endloop
  endfacet
  facet normal 0 0 -1
    outer loop
      vertex 66 -96.8333 -2
      vertex 68 -84.135 -2
      vertex 68 -96.8333 -2
    endloop
  endfacet
  facet normal -0 0 -1
    outer loop
      vertex 68 -84.135 -2
      vertex 66 -96.8333 -2
      vertex 66 -84.135 -2
    endloop
  endfacet
  facet normal 1 -0 0
    outer loop
      vertex 66 -96.2179 -3.84615
      vertex 66 -84.77 -4
      vertex 66 -84.135 -2
    endloop
  endfacet
  facet normal 1 0 0
    outer loop
      vertex 66 -84.77 -4
      vertex 66 -96.2179 -3.84615
      vertex 66 -96.1667 -4
    endloop
  endfacet
  facet normal 1 0 -0
    outer loop
      vertex 66 -96.2179 -3.84615
      vertex 66 -84.135 -2
      vertex 66 -96.8333 -2
    endloop
  endfacet
  facet normal 1 -0 0
    outer loop
      vertex 75 -94.5 5
      vertex 75 -92.5 2
      vertex 75 -92.5 5
    endloop
  endfacet
  facet normal 1 0 0
    outer loop
      vertex 75 -92.5 2
      vertex 75 -94.5 5
      vertex 75 -94.5 2
    endloop
  endfacet
endsolid OpenSCAD_Model
